%TF.GenerationSoftware,KiCad,Pcbnew,(5.1.8)-1*%
%TF.CreationDate,2020-11-24T12:22:43+05:30*%
%TF.ProjectId,stm32f405_breakout,73746d33-3266-4343-9035-5f627265616b,rev?*%
%TF.SameCoordinates,Original*%
%TF.FileFunction,Soldermask,Top*%
%TF.FilePolarity,Negative*%
%FSLAX46Y46*%
G04 Gerber Fmt 4.6, Leading zero omitted, Abs format (unit mm)*
G04 Created by KiCad (PCBNEW (5.1.8)-1) date 2020-11-24 12:22:43*
%MOMM*%
%LPD*%
G01*
G04 APERTURE LIST*
%ADD10R,1.700000X1.700000*%
%ADD11O,1.700000X1.700000*%
%ADD12R,0.900000X1.200000*%
%ADD13C,2.500000*%
%ADD14R,2.400000X0.740000*%
%ADD15R,2.600000X2.600000*%
%ADD16C,2.600000*%
%ADD17R,1.400000X1.800000*%
%ADD18R,2.160000X1.120000*%
%ADD19R,2.000000X3.800000*%
%ADD20R,2.000000X1.500000*%
G04 APERTURE END LIST*
%TO.C,D2*%
G36*
G01*
X136641200Y-89353850D02*
X136641200Y-88841350D01*
G75*
G02*
X136859950Y-88622600I218750J0D01*
G01*
X137297450Y-88622600D01*
G75*
G02*
X137516200Y-88841350I0J-218750D01*
G01*
X137516200Y-89353850D01*
G75*
G02*
X137297450Y-89572600I-218750J0D01*
G01*
X136859950Y-89572600D01*
G75*
G02*
X136641200Y-89353850I0J218750D01*
G01*
G37*
G36*
G01*
X138216200Y-89353850D02*
X138216200Y-88841350D01*
G75*
G02*
X138434950Y-88622600I218750J0D01*
G01*
X138872450Y-88622600D01*
G75*
G02*
X139091200Y-88841350I0J-218750D01*
G01*
X139091200Y-89353850D01*
G75*
G02*
X138872450Y-89572600I-218750J0D01*
G01*
X138434950Y-89572600D01*
G75*
G02*
X138216200Y-89353850I0J218750D01*
G01*
G37*
%TD*%
%TO.C,U1*%
G36*
G01*
X117753700Y-92122600D02*
X117753700Y-90722600D01*
G75*
G02*
X117828700Y-90647600I75000J0D01*
G01*
X117978700Y-90647600D01*
G75*
G02*
X118053700Y-90722600I0J-75000D01*
G01*
X118053700Y-92122600D01*
G75*
G02*
X117978700Y-92197600I-75000J0D01*
G01*
X117828700Y-92197600D01*
G75*
G02*
X117753700Y-92122600I0J75000D01*
G01*
G37*
G36*
G01*
X118253700Y-92122600D02*
X118253700Y-90722600D01*
G75*
G02*
X118328700Y-90647600I75000J0D01*
G01*
X118478700Y-90647600D01*
G75*
G02*
X118553700Y-90722600I0J-75000D01*
G01*
X118553700Y-92122600D01*
G75*
G02*
X118478700Y-92197600I-75000J0D01*
G01*
X118328700Y-92197600D01*
G75*
G02*
X118253700Y-92122600I0J75000D01*
G01*
G37*
G36*
G01*
X118753700Y-92122600D02*
X118753700Y-90722600D01*
G75*
G02*
X118828700Y-90647600I75000J0D01*
G01*
X118978700Y-90647600D01*
G75*
G02*
X119053700Y-90722600I0J-75000D01*
G01*
X119053700Y-92122600D01*
G75*
G02*
X118978700Y-92197600I-75000J0D01*
G01*
X118828700Y-92197600D01*
G75*
G02*
X118753700Y-92122600I0J75000D01*
G01*
G37*
G36*
G01*
X119253700Y-92122600D02*
X119253700Y-90722600D01*
G75*
G02*
X119328700Y-90647600I75000J0D01*
G01*
X119478700Y-90647600D01*
G75*
G02*
X119553700Y-90722600I0J-75000D01*
G01*
X119553700Y-92122600D01*
G75*
G02*
X119478700Y-92197600I-75000J0D01*
G01*
X119328700Y-92197600D01*
G75*
G02*
X119253700Y-92122600I0J75000D01*
G01*
G37*
G36*
G01*
X119753700Y-92122600D02*
X119753700Y-90722600D01*
G75*
G02*
X119828700Y-90647600I75000J0D01*
G01*
X119978700Y-90647600D01*
G75*
G02*
X120053700Y-90722600I0J-75000D01*
G01*
X120053700Y-92122600D01*
G75*
G02*
X119978700Y-92197600I-75000J0D01*
G01*
X119828700Y-92197600D01*
G75*
G02*
X119753700Y-92122600I0J75000D01*
G01*
G37*
G36*
G01*
X120253700Y-92122600D02*
X120253700Y-90722600D01*
G75*
G02*
X120328700Y-90647600I75000J0D01*
G01*
X120478700Y-90647600D01*
G75*
G02*
X120553700Y-90722600I0J-75000D01*
G01*
X120553700Y-92122600D01*
G75*
G02*
X120478700Y-92197600I-75000J0D01*
G01*
X120328700Y-92197600D01*
G75*
G02*
X120253700Y-92122600I0J75000D01*
G01*
G37*
G36*
G01*
X120753700Y-92122600D02*
X120753700Y-90722600D01*
G75*
G02*
X120828700Y-90647600I75000J0D01*
G01*
X120978700Y-90647600D01*
G75*
G02*
X121053700Y-90722600I0J-75000D01*
G01*
X121053700Y-92122600D01*
G75*
G02*
X120978700Y-92197600I-75000J0D01*
G01*
X120828700Y-92197600D01*
G75*
G02*
X120753700Y-92122600I0J75000D01*
G01*
G37*
G36*
G01*
X121253700Y-92122600D02*
X121253700Y-90722600D01*
G75*
G02*
X121328700Y-90647600I75000J0D01*
G01*
X121478700Y-90647600D01*
G75*
G02*
X121553700Y-90722600I0J-75000D01*
G01*
X121553700Y-92122600D01*
G75*
G02*
X121478700Y-92197600I-75000J0D01*
G01*
X121328700Y-92197600D01*
G75*
G02*
X121253700Y-92122600I0J75000D01*
G01*
G37*
G36*
G01*
X121753700Y-92122600D02*
X121753700Y-90722600D01*
G75*
G02*
X121828700Y-90647600I75000J0D01*
G01*
X121978700Y-90647600D01*
G75*
G02*
X122053700Y-90722600I0J-75000D01*
G01*
X122053700Y-92122600D01*
G75*
G02*
X121978700Y-92197600I-75000J0D01*
G01*
X121828700Y-92197600D01*
G75*
G02*
X121753700Y-92122600I0J75000D01*
G01*
G37*
G36*
G01*
X122253700Y-92122600D02*
X122253700Y-90722600D01*
G75*
G02*
X122328700Y-90647600I75000J0D01*
G01*
X122478700Y-90647600D01*
G75*
G02*
X122553700Y-90722600I0J-75000D01*
G01*
X122553700Y-92122600D01*
G75*
G02*
X122478700Y-92197600I-75000J0D01*
G01*
X122328700Y-92197600D01*
G75*
G02*
X122253700Y-92122600I0J75000D01*
G01*
G37*
G36*
G01*
X122753700Y-92122600D02*
X122753700Y-90722600D01*
G75*
G02*
X122828700Y-90647600I75000J0D01*
G01*
X122978700Y-90647600D01*
G75*
G02*
X123053700Y-90722600I0J-75000D01*
G01*
X123053700Y-92122600D01*
G75*
G02*
X122978700Y-92197600I-75000J0D01*
G01*
X122828700Y-92197600D01*
G75*
G02*
X122753700Y-92122600I0J75000D01*
G01*
G37*
G36*
G01*
X123253700Y-92122600D02*
X123253700Y-90722600D01*
G75*
G02*
X123328700Y-90647600I75000J0D01*
G01*
X123478700Y-90647600D01*
G75*
G02*
X123553700Y-90722600I0J-75000D01*
G01*
X123553700Y-92122600D01*
G75*
G02*
X123478700Y-92197600I-75000J0D01*
G01*
X123328700Y-92197600D01*
G75*
G02*
X123253700Y-92122600I0J75000D01*
G01*
G37*
G36*
G01*
X123753700Y-92122600D02*
X123753700Y-90722600D01*
G75*
G02*
X123828700Y-90647600I75000J0D01*
G01*
X123978700Y-90647600D01*
G75*
G02*
X124053700Y-90722600I0J-75000D01*
G01*
X124053700Y-92122600D01*
G75*
G02*
X123978700Y-92197600I-75000J0D01*
G01*
X123828700Y-92197600D01*
G75*
G02*
X123753700Y-92122600I0J75000D01*
G01*
G37*
G36*
G01*
X124253700Y-92122600D02*
X124253700Y-90722600D01*
G75*
G02*
X124328700Y-90647600I75000J0D01*
G01*
X124478700Y-90647600D01*
G75*
G02*
X124553700Y-90722600I0J-75000D01*
G01*
X124553700Y-92122600D01*
G75*
G02*
X124478700Y-92197600I-75000J0D01*
G01*
X124328700Y-92197600D01*
G75*
G02*
X124253700Y-92122600I0J75000D01*
G01*
G37*
G36*
G01*
X124753700Y-92122600D02*
X124753700Y-90722600D01*
G75*
G02*
X124828700Y-90647600I75000J0D01*
G01*
X124978700Y-90647600D01*
G75*
G02*
X125053700Y-90722600I0J-75000D01*
G01*
X125053700Y-92122600D01*
G75*
G02*
X124978700Y-92197600I-75000J0D01*
G01*
X124828700Y-92197600D01*
G75*
G02*
X124753700Y-92122600I0J75000D01*
G01*
G37*
G36*
G01*
X125253700Y-92122600D02*
X125253700Y-90722600D01*
G75*
G02*
X125328700Y-90647600I75000J0D01*
G01*
X125478700Y-90647600D01*
G75*
G02*
X125553700Y-90722600I0J-75000D01*
G01*
X125553700Y-92122600D01*
G75*
G02*
X125478700Y-92197600I-75000J0D01*
G01*
X125328700Y-92197600D01*
G75*
G02*
X125253700Y-92122600I0J75000D01*
G01*
G37*
G36*
G01*
X126553700Y-93422600D02*
X126553700Y-93272600D01*
G75*
G02*
X126628700Y-93197600I75000J0D01*
G01*
X128028700Y-93197600D01*
G75*
G02*
X128103700Y-93272600I0J-75000D01*
G01*
X128103700Y-93422600D01*
G75*
G02*
X128028700Y-93497600I-75000J0D01*
G01*
X126628700Y-93497600D01*
G75*
G02*
X126553700Y-93422600I0J75000D01*
G01*
G37*
G36*
G01*
X126553700Y-93922600D02*
X126553700Y-93772600D01*
G75*
G02*
X126628700Y-93697600I75000J0D01*
G01*
X128028700Y-93697600D01*
G75*
G02*
X128103700Y-93772600I0J-75000D01*
G01*
X128103700Y-93922600D01*
G75*
G02*
X128028700Y-93997600I-75000J0D01*
G01*
X126628700Y-93997600D01*
G75*
G02*
X126553700Y-93922600I0J75000D01*
G01*
G37*
G36*
G01*
X126553700Y-94422600D02*
X126553700Y-94272600D01*
G75*
G02*
X126628700Y-94197600I75000J0D01*
G01*
X128028700Y-94197600D01*
G75*
G02*
X128103700Y-94272600I0J-75000D01*
G01*
X128103700Y-94422600D01*
G75*
G02*
X128028700Y-94497600I-75000J0D01*
G01*
X126628700Y-94497600D01*
G75*
G02*
X126553700Y-94422600I0J75000D01*
G01*
G37*
G36*
G01*
X126553700Y-94922600D02*
X126553700Y-94772600D01*
G75*
G02*
X126628700Y-94697600I75000J0D01*
G01*
X128028700Y-94697600D01*
G75*
G02*
X128103700Y-94772600I0J-75000D01*
G01*
X128103700Y-94922600D01*
G75*
G02*
X128028700Y-94997600I-75000J0D01*
G01*
X126628700Y-94997600D01*
G75*
G02*
X126553700Y-94922600I0J75000D01*
G01*
G37*
G36*
G01*
X126553700Y-95422600D02*
X126553700Y-95272600D01*
G75*
G02*
X126628700Y-95197600I75000J0D01*
G01*
X128028700Y-95197600D01*
G75*
G02*
X128103700Y-95272600I0J-75000D01*
G01*
X128103700Y-95422600D01*
G75*
G02*
X128028700Y-95497600I-75000J0D01*
G01*
X126628700Y-95497600D01*
G75*
G02*
X126553700Y-95422600I0J75000D01*
G01*
G37*
G36*
G01*
X126553700Y-95922600D02*
X126553700Y-95772600D01*
G75*
G02*
X126628700Y-95697600I75000J0D01*
G01*
X128028700Y-95697600D01*
G75*
G02*
X128103700Y-95772600I0J-75000D01*
G01*
X128103700Y-95922600D01*
G75*
G02*
X128028700Y-95997600I-75000J0D01*
G01*
X126628700Y-95997600D01*
G75*
G02*
X126553700Y-95922600I0J75000D01*
G01*
G37*
G36*
G01*
X126553700Y-96422600D02*
X126553700Y-96272600D01*
G75*
G02*
X126628700Y-96197600I75000J0D01*
G01*
X128028700Y-96197600D01*
G75*
G02*
X128103700Y-96272600I0J-75000D01*
G01*
X128103700Y-96422600D01*
G75*
G02*
X128028700Y-96497600I-75000J0D01*
G01*
X126628700Y-96497600D01*
G75*
G02*
X126553700Y-96422600I0J75000D01*
G01*
G37*
G36*
G01*
X126553700Y-96922600D02*
X126553700Y-96772600D01*
G75*
G02*
X126628700Y-96697600I75000J0D01*
G01*
X128028700Y-96697600D01*
G75*
G02*
X128103700Y-96772600I0J-75000D01*
G01*
X128103700Y-96922600D01*
G75*
G02*
X128028700Y-96997600I-75000J0D01*
G01*
X126628700Y-96997600D01*
G75*
G02*
X126553700Y-96922600I0J75000D01*
G01*
G37*
G36*
G01*
X126553700Y-97422600D02*
X126553700Y-97272600D01*
G75*
G02*
X126628700Y-97197600I75000J0D01*
G01*
X128028700Y-97197600D01*
G75*
G02*
X128103700Y-97272600I0J-75000D01*
G01*
X128103700Y-97422600D01*
G75*
G02*
X128028700Y-97497600I-75000J0D01*
G01*
X126628700Y-97497600D01*
G75*
G02*
X126553700Y-97422600I0J75000D01*
G01*
G37*
G36*
G01*
X126553700Y-97922600D02*
X126553700Y-97772600D01*
G75*
G02*
X126628700Y-97697600I75000J0D01*
G01*
X128028700Y-97697600D01*
G75*
G02*
X128103700Y-97772600I0J-75000D01*
G01*
X128103700Y-97922600D01*
G75*
G02*
X128028700Y-97997600I-75000J0D01*
G01*
X126628700Y-97997600D01*
G75*
G02*
X126553700Y-97922600I0J75000D01*
G01*
G37*
G36*
G01*
X126553700Y-98422600D02*
X126553700Y-98272600D01*
G75*
G02*
X126628700Y-98197600I75000J0D01*
G01*
X128028700Y-98197600D01*
G75*
G02*
X128103700Y-98272600I0J-75000D01*
G01*
X128103700Y-98422600D01*
G75*
G02*
X128028700Y-98497600I-75000J0D01*
G01*
X126628700Y-98497600D01*
G75*
G02*
X126553700Y-98422600I0J75000D01*
G01*
G37*
G36*
G01*
X126553700Y-98922600D02*
X126553700Y-98772600D01*
G75*
G02*
X126628700Y-98697600I75000J0D01*
G01*
X128028700Y-98697600D01*
G75*
G02*
X128103700Y-98772600I0J-75000D01*
G01*
X128103700Y-98922600D01*
G75*
G02*
X128028700Y-98997600I-75000J0D01*
G01*
X126628700Y-98997600D01*
G75*
G02*
X126553700Y-98922600I0J75000D01*
G01*
G37*
G36*
G01*
X126553700Y-99422600D02*
X126553700Y-99272600D01*
G75*
G02*
X126628700Y-99197600I75000J0D01*
G01*
X128028700Y-99197600D01*
G75*
G02*
X128103700Y-99272600I0J-75000D01*
G01*
X128103700Y-99422600D01*
G75*
G02*
X128028700Y-99497600I-75000J0D01*
G01*
X126628700Y-99497600D01*
G75*
G02*
X126553700Y-99422600I0J75000D01*
G01*
G37*
G36*
G01*
X126553700Y-99922600D02*
X126553700Y-99772600D01*
G75*
G02*
X126628700Y-99697600I75000J0D01*
G01*
X128028700Y-99697600D01*
G75*
G02*
X128103700Y-99772600I0J-75000D01*
G01*
X128103700Y-99922600D01*
G75*
G02*
X128028700Y-99997600I-75000J0D01*
G01*
X126628700Y-99997600D01*
G75*
G02*
X126553700Y-99922600I0J75000D01*
G01*
G37*
G36*
G01*
X126553700Y-100422600D02*
X126553700Y-100272600D01*
G75*
G02*
X126628700Y-100197600I75000J0D01*
G01*
X128028700Y-100197600D01*
G75*
G02*
X128103700Y-100272600I0J-75000D01*
G01*
X128103700Y-100422600D01*
G75*
G02*
X128028700Y-100497600I-75000J0D01*
G01*
X126628700Y-100497600D01*
G75*
G02*
X126553700Y-100422600I0J75000D01*
G01*
G37*
G36*
G01*
X126553700Y-100922600D02*
X126553700Y-100772600D01*
G75*
G02*
X126628700Y-100697600I75000J0D01*
G01*
X128028700Y-100697600D01*
G75*
G02*
X128103700Y-100772600I0J-75000D01*
G01*
X128103700Y-100922600D01*
G75*
G02*
X128028700Y-100997600I-75000J0D01*
G01*
X126628700Y-100997600D01*
G75*
G02*
X126553700Y-100922600I0J75000D01*
G01*
G37*
G36*
G01*
X125253700Y-103472600D02*
X125253700Y-102072600D01*
G75*
G02*
X125328700Y-101997600I75000J0D01*
G01*
X125478700Y-101997600D01*
G75*
G02*
X125553700Y-102072600I0J-75000D01*
G01*
X125553700Y-103472600D01*
G75*
G02*
X125478700Y-103547600I-75000J0D01*
G01*
X125328700Y-103547600D01*
G75*
G02*
X125253700Y-103472600I0J75000D01*
G01*
G37*
G36*
G01*
X124753700Y-103472600D02*
X124753700Y-102072600D01*
G75*
G02*
X124828700Y-101997600I75000J0D01*
G01*
X124978700Y-101997600D01*
G75*
G02*
X125053700Y-102072600I0J-75000D01*
G01*
X125053700Y-103472600D01*
G75*
G02*
X124978700Y-103547600I-75000J0D01*
G01*
X124828700Y-103547600D01*
G75*
G02*
X124753700Y-103472600I0J75000D01*
G01*
G37*
G36*
G01*
X124253700Y-103472600D02*
X124253700Y-102072600D01*
G75*
G02*
X124328700Y-101997600I75000J0D01*
G01*
X124478700Y-101997600D01*
G75*
G02*
X124553700Y-102072600I0J-75000D01*
G01*
X124553700Y-103472600D01*
G75*
G02*
X124478700Y-103547600I-75000J0D01*
G01*
X124328700Y-103547600D01*
G75*
G02*
X124253700Y-103472600I0J75000D01*
G01*
G37*
G36*
G01*
X123753700Y-103472600D02*
X123753700Y-102072600D01*
G75*
G02*
X123828700Y-101997600I75000J0D01*
G01*
X123978700Y-101997600D01*
G75*
G02*
X124053700Y-102072600I0J-75000D01*
G01*
X124053700Y-103472600D01*
G75*
G02*
X123978700Y-103547600I-75000J0D01*
G01*
X123828700Y-103547600D01*
G75*
G02*
X123753700Y-103472600I0J75000D01*
G01*
G37*
G36*
G01*
X123253700Y-103472600D02*
X123253700Y-102072600D01*
G75*
G02*
X123328700Y-101997600I75000J0D01*
G01*
X123478700Y-101997600D01*
G75*
G02*
X123553700Y-102072600I0J-75000D01*
G01*
X123553700Y-103472600D01*
G75*
G02*
X123478700Y-103547600I-75000J0D01*
G01*
X123328700Y-103547600D01*
G75*
G02*
X123253700Y-103472600I0J75000D01*
G01*
G37*
G36*
G01*
X122753700Y-103472600D02*
X122753700Y-102072600D01*
G75*
G02*
X122828700Y-101997600I75000J0D01*
G01*
X122978700Y-101997600D01*
G75*
G02*
X123053700Y-102072600I0J-75000D01*
G01*
X123053700Y-103472600D01*
G75*
G02*
X122978700Y-103547600I-75000J0D01*
G01*
X122828700Y-103547600D01*
G75*
G02*
X122753700Y-103472600I0J75000D01*
G01*
G37*
G36*
G01*
X122253700Y-103472600D02*
X122253700Y-102072600D01*
G75*
G02*
X122328700Y-101997600I75000J0D01*
G01*
X122478700Y-101997600D01*
G75*
G02*
X122553700Y-102072600I0J-75000D01*
G01*
X122553700Y-103472600D01*
G75*
G02*
X122478700Y-103547600I-75000J0D01*
G01*
X122328700Y-103547600D01*
G75*
G02*
X122253700Y-103472600I0J75000D01*
G01*
G37*
G36*
G01*
X121753700Y-103472600D02*
X121753700Y-102072600D01*
G75*
G02*
X121828700Y-101997600I75000J0D01*
G01*
X121978700Y-101997600D01*
G75*
G02*
X122053700Y-102072600I0J-75000D01*
G01*
X122053700Y-103472600D01*
G75*
G02*
X121978700Y-103547600I-75000J0D01*
G01*
X121828700Y-103547600D01*
G75*
G02*
X121753700Y-103472600I0J75000D01*
G01*
G37*
G36*
G01*
X121253700Y-103472600D02*
X121253700Y-102072600D01*
G75*
G02*
X121328700Y-101997600I75000J0D01*
G01*
X121478700Y-101997600D01*
G75*
G02*
X121553700Y-102072600I0J-75000D01*
G01*
X121553700Y-103472600D01*
G75*
G02*
X121478700Y-103547600I-75000J0D01*
G01*
X121328700Y-103547600D01*
G75*
G02*
X121253700Y-103472600I0J75000D01*
G01*
G37*
G36*
G01*
X120753700Y-103472600D02*
X120753700Y-102072600D01*
G75*
G02*
X120828700Y-101997600I75000J0D01*
G01*
X120978700Y-101997600D01*
G75*
G02*
X121053700Y-102072600I0J-75000D01*
G01*
X121053700Y-103472600D01*
G75*
G02*
X120978700Y-103547600I-75000J0D01*
G01*
X120828700Y-103547600D01*
G75*
G02*
X120753700Y-103472600I0J75000D01*
G01*
G37*
G36*
G01*
X120253700Y-103472600D02*
X120253700Y-102072600D01*
G75*
G02*
X120328700Y-101997600I75000J0D01*
G01*
X120478700Y-101997600D01*
G75*
G02*
X120553700Y-102072600I0J-75000D01*
G01*
X120553700Y-103472600D01*
G75*
G02*
X120478700Y-103547600I-75000J0D01*
G01*
X120328700Y-103547600D01*
G75*
G02*
X120253700Y-103472600I0J75000D01*
G01*
G37*
G36*
G01*
X119753700Y-103472600D02*
X119753700Y-102072600D01*
G75*
G02*
X119828700Y-101997600I75000J0D01*
G01*
X119978700Y-101997600D01*
G75*
G02*
X120053700Y-102072600I0J-75000D01*
G01*
X120053700Y-103472600D01*
G75*
G02*
X119978700Y-103547600I-75000J0D01*
G01*
X119828700Y-103547600D01*
G75*
G02*
X119753700Y-103472600I0J75000D01*
G01*
G37*
G36*
G01*
X119253700Y-103472600D02*
X119253700Y-102072600D01*
G75*
G02*
X119328700Y-101997600I75000J0D01*
G01*
X119478700Y-101997600D01*
G75*
G02*
X119553700Y-102072600I0J-75000D01*
G01*
X119553700Y-103472600D01*
G75*
G02*
X119478700Y-103547600I-75000J0D01*
G01*
X119328700Y-103547600D01*
G75*
G02*
X119253700Y-103472600I0J75000D01*
G01*
G37*
G36*
G01*
X118753700Y-103472600D02*
X118753700Y-102072600D01*
G75*
G02*
X118828700Y-101997600I75000J0D01*
G01*
X118978700Y-101997600D01*
G75*
G02*
X119053700Y-102072600I0J-75000D01*
G01*
X119053700Y-103472600D01*
G75*
G02*
X118978700Y-103547600I-75000J0D01*
G01*
X118828700Y-103547600D01*
G75*
G02*
X118753700Y-103472600I0J75000D01*
G01*
G37*
G36*
G01*
X118253700Y-103472600D02*
X118253700Y-102072600D01*
G75*
G02*
X118328700Y-101997600I75000J0D01*
G01*
X118478700Y-101997600D01*
G75*
G02*
X118553700Y-102072600I0J-75000D01*
G01*
X118553700Y-103472600D01*
G75*
G02*
X118478700Y-103547600I-75000J0D01*
G01*
X118328700Y-103547600D01*
G75*
G02*
X118253700Y-103472600I0J75000D01*
G01*
G37*
G36*
G01*
X117753700Y-103472600D02*
X117753700Y-102072600D01*
G75*
G02*
X117828700Y-101997600I75000J0D01*
G01*
X117978700Y-101997600D01*
G75*
G02*
X118053700Y-102072600I0J-75000D01*
G01*
X118053700Y-103472600D01*
G75*
G02*
X117978700Y-103547600I-75000J0D01*
G01*
X117828700Y-103547600D01*
G75*
G02*
X117753700Y-103472600I0J75000D01*
G01*
G37*
G36*
G01*
X115203700Y-100922600D02*
X115203700Y-100772600D01*
G75*
G02*
X115278700Y-100697600I75000J0D01*
G01*
X116678700Y-100697600D01*
G75*
G02*
X116753700Y-100772600I0J-75000D01*
G01*
X116753700Y-100922600D01*
G75*
G02*
X116678700Y-100997600I-75000J0D01*
G01*
X115278700Y-100997600D01*
G75*
G02*
X115203700Y-100922600I0J75000D01*
G01*
G37*
G36*
G01*
X115203700Y-100422600D02*
X115203700Y-100272600D01*
G75*
G02*
X115278700Y-100197600I75000J0D01*
G01*
X116678700Y-100197600D01*
G75*
G02*
X116753700Y-100272600I0J-75000D01*
G01*
X116753700Y-100422600D01*
G75*
G02*
X116678700Y-100497600I-75000J0D01*
G01*
X115278700Y-100497600D01*
G75*
G02*
X115203700Y-100422600I0J75000D01*
G01*
G37*
G36*
G01*
X115203700Y-99922600D02*
X115203700Y-99772600D01*
G75*
G02*
X115278700Y-99697600I75000J0D01*
G01*
X116678700Y-99697600D01*
G75*
G02*
X116753700Y-99772600I0J-75000D01*
G01*
X116753700Y-99922600D01*
G75*
G02*
X116678700Y-99997600I-75000J0D01*
G01*
X115278700Y-99997600D01*
G75*
G02*
X115203700Y-99922600I0J75000D01*
G01*
G37*
G36*
G01*
X115203700Y-99422600D02*
X115203700Y-99272600D01*
G75*
G02*
X115278700Y-99197600I75000J0D01*
G01*
X116678700Y-99197600D01*
G75*
G02*
X116753700Y-99272600I0J-75000D01*
G01*
X116753700Y-99422600D01*
G75*
G02*
X116678700Y-99497600I-75000J0D01*
G01*
X115278700Y-99497600D01*
G75*
G02*
X115203700Y-99422600I0J75000D01*
G01*
G37*
G36*
G01*
X115203700Y-98922600D02*
X115203700Y-98772600D01*
G75*
G02*
X115278700Y-98697600I75000J0D01*
G01*
X116678700Y-98697600D01*
G75*
G02*
X116753700Y-98772600I0J-75000D01*
G01*
X116753700Y-98922600D01*
G75*
G02*
X116678700Y-98997600I-75000J0D01*
G01*
X115278700Y-98997600D01*
G75*
G02*
X115203700Y-98922600I0J75000D01*
G01*
G37*
G36*
G01*
X115203700Y-98422600D02*
X115203700Y-98272600D01*
G75*
G02*
X115278700Y-98197600I75000J0D01*
G01*
X116678700Y-98197600D01*
G75*
G02*
X116753700Y-98272600I0J-75000D01*
G01*
X116753700Y-98422600D01*
G75*
G02*
X116678700Y-98497600I-75000J0D01*
G01*
X115278700Y-98497600D01*
G75*
G02*
X115203700Y-98422600I0J75000D01*
G01*
G37*
G36*
G01*
X115203700Y-97922600D02*
X115203700Y-97772600D01*
G75*
G02*
X115278700Y-97697600I75000J0D01*
G01*
X116678700Y-97697600D01*
G75*
G02*
X116753700Y-97772600I0J-75000D01*
G01*
X116753700Y-97922600D01*
G75*
G02*
X116678700Y-97997600I-75000J0D01*
G01*
X115278700Y-97997600D01*
G75*
G02*
X115203700Y-97922600I0J75000D01*
G01*
G37*
G36*
G01*
X115203700Y-97422600D02*
X115203700Y-97272600D01*
G75*
G02*
X115278700Y-97197600I75000J0D01*
G01*
X116678700Y-97197600D01*
G75*
G02*
X116753700Y-97272600I0J-75000D01*
G01*
X116753700Y-97422600D01*
G75*
G02*
X116678700Y-97497600I-75000J0D01*
G01*
X115278700Y-97497600D01*
G75*
G02*
X115203700Y-97422600I0J75000D01*
G01*
G37*
G36*
G01*
X115203700Y-96922600D02*
X115203700Y-96772600D01*
G75*
G02*
X115278700Y-96697600I75000J0D01*
G01*
X116678700Y-96697600D01*
G75*
G02*
X116753700Y-96772600I0J-75000D01*
G01*
X116753700Y-96922600D01*
G75*
G02*
X116678700Y-96997600I-75000J0D01*
G01*
X115278700Y-96997600D01*
G75*
G02*
X115203700Y-96922600I0J75000D01*
G01*
G37*
G36*
G01*
X115203700Y-96422600D02*
X115203700Y-96272600D01*
G75*
G02*
X115278700Y-96197600I75000J0D01*
G01*
X116678700Y-96197600D01*
G75*
G02*
X116753700Y-96272600I0J-75000D01*
G01*
X116753700Y-96422600D01*
G75*
G02*
X116678700Y-96497600I-75000J0D01*
G01*
X115278700Y-96497600D01*
G75*
G02*
X115203700Y-96422600I0J75000D01*
G01*
G37*
G36*
G01*
X115203700Y-95922600D02*
X115203700Y-95772600D01*
G75*
G02*
X115278700Y-95697600I75000J0D01*
G01*
X116678700Y-95697600D01*
G75*
G02*
X116753700Y-95772600I0J-75000D01*
G01*
X116753700Y-95922600D01*
G75*
G02*
X116678700Y-95997600I-75000J0D01*
G01*
X115278700Y-95997600D01*
G75*
G02*
X115203700Y-95922600I0J75000D01*
G01*
G37*
G36*
G01*
X115203700Y-95422600D02*
X115203700Y-95272600D01*
G75*
G02*
X115278700Y-95197600I75000J0D01*
G01*
X116678700Y-95197600D01*
G75*
G02*
X116753700Y-95272600I0J-75000D01*
G01*
X116753700Y-95422600D01*
G75*
G02*
X116678700Y-95497600I-75000J0D01*
G01*
X115278700Y-95497600D01*
G75*
G02*
X115203700Y-95422600I0J75000D01*
G01*
G37*
G36*
G01*
X115203700Y-94922600D02*
X115203700Y-94772600D01*
G75*
G02*
X115278700Y-94697600I75000J0D01*
G01*
X116678700Y-94697600D01*
G75*
G02*
X116753700Y-94772600I0J-75000D01*
G01*
X116753700Y-94922600D01*
G75*
G02*
X116678700Y-94997600I-75000J0D01*
G01*
X115278700Y-94997600D01*
G75*
G02*
X115203700Y-94922600I0J75000D01*
G01*
G37*
G36*
G01*
X115203700Y-94422600D02*
X115203700Y-94272600D01*
G75*
G02*
X115278700Y-94197600I75000J0D01*
G01*
X116678700Y-94197600D01*
G75*
G02*
X116753700Y-94272600I0J-75000D01*
G01*
X116753700Y-94422600D01*
G75*
G02*
X116678700Y-94497600I-75000J0D01*
G01*
X115278700Y-94497600D01*
G75*
G02*
X115203700Y-94422600I0J75000D01*
G01*
G37*
G36*
G01*
X115203700Y-93922600D02*
X115203700Y-93772600D01*
G75*
G02*
X115278700Y-93697600I75000J0D01*
G01*
X116678700Y-93697600D01*
G75*
G02*
X116753700Y-93772600I0J-75000D01*
G01*
X116753700Y-93922600D01*
G75*
G02*
X116678700Y-93997600I-75000J0D01*
G01*
X115278700Y-93997600D01*
G75*
G02*
X115203700Y-93922600I0J75000D01*
G01*
G37*
G36*
G01*
X115203700Y-93422600D02*
X115203700Y-93272600D01*
G75*
G02*
X115278700Y-93197600I75000J0D01*
G01*
X116678700Y-93197600D01*
G75*
G02*
X116753700Y-93272600I0J-75000D01*
G01*
X116753700Y-93422600D01*
G75*
G02*
X116678700Y-93497600I-75000J0D01*
G01*
X115278700Y-93497600D01*
G75*
G02*
X115203700Y-93422600I0J75000D01*
G01*
G37*
%TD*%
D10*
%TO.C,PORTC_2*%
X145470880Y-91765120D03*
D11*
X148010880Y-91765120D03*
X145470880Y-94305120D03*
X148010880Y-94305120D03*
X145470880Y-96845120D03*
X148010880Y-96845120D03*
X145470880Y-99385120D03*
X148010880Y-99385120D03*
%TD*%
%TO.C,C14*%
G36*
G01*
X109203700Y-100177600D02*
X109203700Y-100517600D01*
G75*
G02*
X109063700Y-100657600I-140000J0D01*
G01*
X108783700Y-100657600D01*
G75*
G02*
X108643700Y-100517600I0J140000D01*
G01*
X108643700Y-100177600D01*
G75*
G02*
X108783700Y-100037600I140000J0D01*
G01*
X109063700Y-100037600D01*
G75*
G02*
X109203700Y-100177600I0J-140000D01*
G01*
G37*
G36*
G01*
X110163700Y-100177600D02*
X110163700Y-100517600D01*
G75*
G02*
X110023700Y-100657600I-140000J0D01*
G01*
X109743700Y-100657600D01*
G75*
G02*
X109603700Y-100517600I0J140000D01*
G01*
X109603700Y-100177600D01*
G75*
G02*
X109743700Y-100037600I140000J0D01*
G01*
X110023700Y-100037600D01*
G75*
G02*
X110163700Y-100177600I0J-140000D01*
G01*
G37*
%TD*%
%TO.C,C1*%
G36*
G01*
X112221200Y-85198500D02*
X112721200Y-85198500D01*
G75*
G02*
X112946200Y-85423500I0J-225000D01*
G01*
X112946200Y-85873500D01*
G75*
G02*
X112721200Y-86098500I-225000J0D01*
G01*
X112221200Y-86098500D01*
G75*
G02*
X111996200Y-85873500I0J225000D01*
G01*
X111996200Y-85423500D01*
G75*
G02*
X112221200Y-85198500I225000J0D01*
G01*
G37*
G36*
G01*
X112221200Y-86748500D02*
X112721200Y-86748500D01*
G75*
G02*
X112946200Y-86973500I0J-225000D01*
G01*
X112946200Y-87423500D01*
G75*
G02*
X112721200Y-87648500I-225000J0D01*
G01*
X112221200Y-87648500D01*
G75*
G02*
X111996200Y-87423500I0J225000D01*
G01*
X111996200Y-86973500D01*
G75*
G02*
X112221200Y-86748500I225000J0D01*
G01*
G37*
%TD*%
%TO.C,C2*%
G36*
G01*
X116913700Y-90927600D02*
X116913700Y-91267600D01*
G75*
G02*
X116773700Y-91407600I-140000J0D01*
G01*
X116493700Y-91407600D01*
G75*
G02*
X116353700Y-91267600I0J140000D01*
G01*
X116353700Y-90927600D01*
G75*
G02*
X116493700Y-90787600I140000J0D01*
G01*
X116773700Y-90787600D01*
G75*
G02*
X116913700Y-90927600I0J-140000D01*
G01*
G37*
G36*
G01*
X115953700Y-90927600D02*
X115953700Y-91267600D01*
G75*
G02*
X115813700Y-91407600I-140000J0D01*
G01*
X115533700Y-91407600D01*
G75*
G02*
X115393700Y-91267600I0J140000D01*
G01*
X115393700Y-90927600D01*
G75*
G02*
X115533700Y-90787600I140000J0D01*
G01*
X115813700Y-90787600D01*
G75*
G02*
X115953700Y-90927600I0J-140000D01*
G01*
G37*
%TD*%
%TO.C,C3*%
G36*
G01*
X124910180Y-107015460D02*
X124910180Y-107355460D01*
G75*
G02*
X124770180Y-107495460I-140000J0D01*
G01*
X124490180Y-107495460D01*
G75*
G02*
X124350180Y-107355460I0J140000D01*
G01*
X124350180Y-107015460D01*
G75*
G02*
X124490180Y-106875460I140000J0D01*
G01*
X124770180Y-106875460D01*
G75*
G02*
X124910180Y-107015460I0J-140000D01*
G01*
G37*
G36*
G01*
X123950180Y-107015460D02*
X123950180Y-107355460D01*
G75*
G02*
X123810180Y-107495460I-140000J0D01*
G01*
X123530180Y-107495460D01*
G75*
G02*
X123390180Y-107355460I0J140000D01*
G01*
X123390180Y-107015460D01*
G75*
G02*
X123530180Y-106875460I140000J0D01*
G01*
X123810180Y-106875460D01*
G75*
G02*
X123950180Y-107015460I0J-140000D01*
G01*
G37*
%TD*%
%TO.C,C4*%
G36*
G01*
X115936420Y-104688820D02*
X115936420Y-105028820D01*
G75*
G02*
X115796420Y-105168820I-140000J0D01*
G01*
X115516420Y-105168820D01*
G75*
G02*
X115376420Y-105028820I0J140000D01*
G01*
X115376420Y-104688820D01*
G75*
G02*
X115516420Y-104548820I140000J0D01*
G01*
X115796420Y-104548820D01*
G75*
G02*
X115936420Y-104688820I0J-140000D01*
G01*
G37*
G36*
G01*
X116896420Y-104688820D02*
X116896420Y-105028820D01*
G75*
G02*
X116756420Y-105168820I-140000J0D01*
G01*
X116476420Y-105168820D01*
G75*
G02*
X116336420Y-105028820I0J140000D01*
G01*
X116336420Y-104688820D01*
G75*
G02*
X116476420Y-104548820I140000J0D01*
G01*
X116756420Y-104548820D01*
G75*
G02*
X116896420Y-104688820I0J-140000D01*
G01*
G37*
%TD*%
%TO.C,C5*%
G36*
G01*
X130441100Y-94061100D02*
X130441100Y-93721100D01*
G75*
G02*
X130581100Y-93581100I140000J0D01*
G01*
X130861100Y-93581100D01*
G75*
G02*
X131001100Y-93721100I0J-140000D01*
G01*
X131001100Y-94061100D01*
G75*
G02*
X130861100Y-94201100I-140000J0D01*
G01*
X130581100Y-94201100D01*
G75*
G02*
X130441100Y-94061100I0J140000D01*
G01*
G37*
G36*
G01*
X129481100Y-94061100D02*
X129481100Y-93721100D01*
G75*
G02*
X129621100Y-93581100I140000J0D01*
G01*
X129901100Y-93581100D01*
G75*
G02*
X130041100Y-93721100I0J-140000D01*
G01*
X130041100Y-94061100D01*
G75*
G02*
X129901100Y-94201100I-140000J0D01*
G01*
X129621100Y-94201100D01*
G75*
G02*
X129481100Y-94061100I0J140000D01*
G01*
G37*
%TD*%
%TO.C,C6*%
G36*
G01*
X116944740Y-106070580D02*
X116944740Y-106410580D01*
G75*
G02*
X116804740Y-106550580I-140000J0D01*
G01*
X116524740Y-106550580D01*
G75*
G02*
X116384740Y-106410580I0J140000D01*
G01*
X116384740Y-106070580D01*
G75*
G02*
X116524740Y-105930580I140000J0D01*
G01*
X116804740Y-105930580D01*
G75*
G02*
X116944740Y-106070580I0J-140000D01*
G01*
G37*
G36*
G01*
X115984740Y-106070580D02*
X115984740Y-106410580D01*
G75*
G02*
X115844740Y-106550580I-140000J0D01*
G01*
X115564740Y-106550580D01*
G75*
G02*
X115424740Y-106410580I0J140000D01*
G01*
X115424740Y-106070580D01*
G75*
G02*
X115564740Y-105930580I140000J0D01*
G01*
X115844740Y-105930580D01*
G75*
G02*
X115984740Y-106070580I0J-140000D01*
G01*
G37*
%TD*%
%TO.C,C7*%
G36*
G01*
X126393700Y-103267600D02*
X126393700Y-102927600D01*
G75*
G02*
X126533700Y-102787600I140000J0D01*
G01*
X126813700Y-102787600D01*
G75*
G02*
X126953700Y-102927600I0J-140000D01*
G01*
X126953700Y-103267600D01*
G75*
G02*
X126813700Y-103407600I-140000J0D01*
G01*
X126533700Y-103407600D01*
G75*
G02*
X126393700Y-103267600I0J140000D01*
G01*
G37*
G36*
G01*
X127353700Y-103267600D02*
X127353700Y-102927600D01*
G75*
G02*
X127493700Y-102787600I140000J0D01*
G01*
X127773700Y-102787600D01*
G75*
G02*
X127913700Y-102927600I0J-140000D01*
G01*
X127913700Y-103267600D01*
G75*
G02*
X127773700Y-103407600I-140000J0D01*
G01*
X127493700Y-103407600D01*
G75*
G02*
X127353700Y-103267600I0J140000D01*
G01*
G37*
%TD*%
%TO.C,C8*%
G36*
G01*
X127353700Y-104517600D02*
X127353700Y-104177600D01*
G75*
G02*
X127493700Y-104037600I140000J0D01*
G01*
X127773700Y-104037600D01*
G75*
G02*
X127913700Y-104177600I0J-140000D01*
G01*
X127913700Y-104517600D01*
G75*
G02*
X127773700Y-104657600I-140000J0D01*
G01*
X127493700Y-104657600D01*
G75*
G02*
X127353700Y-104517600I0J140000D01*
G01*
G37*
G36*
G01*
X126393700Y-104517600D02*
X126393700Y-104177600D01*
G75*
G02*
X126533700Y-104037600I140000J0D01*
G01*
X126813700Y-104037600D01*
G75*
G02*
X126953700Y-104177600I0J-140000D01*
G01*
X126953700Y-104517600D01*
G75*
G02*
X126813700Y-104657600I-140000J0D01*
G01*
X126533700Y-104657600D01*
G75*
G02*
X126393700Y-104517600I0J140000D01*
G01*
G37*
%TD*%
%TO.C,C9*%
G36*
G01*
X129930500Y-100792100D02*
X129930500Y-100452100D01*
G75*
G02*
X130070500Y-100312100I140000J0D01*
G01*
X130350500Y-100312100D01*
G75*
G02*
X130490500Y-100452100I0J-140000D01*
G01*
X130490500Y-100792100D01*
G75*
G02*
X130350500Y-100932100I-140000J0D01*
G01*
X130070500Y-100932100D01*
G75*
G02*
X129930500Y-100792100I0J140000D01*
G01*
G37*
G36*
G01*
X128970500Y-100792100D02*
X128970500Y-100452100D01*
G75*
G02*
X129110500Y-100312100I140000J0D01*
G01*
X129390500Y-100312100D01*
G75*
G02*
X129530500Y-100452100I0J-140000D01*
G01*
X129530500Y-100792100D01*
G75*
G02*
X129390500Y-100932100I-140000J0D01*
G01*
X129110500Y-100932100D01*
G75*
G02*
X128970500Y-100792100I0J140000D01*
G01*
G37*
%TD*%
%TO.C,C10*%
G36*
G01*
X129008600Y-101973200D02*
X129008600Y-101633200D01*
G75*
G02*
X129148600Y-101493200I140000J0D01*
G01*
X129428600Y-101493200D01*
G75*
G02*
X129568600Y-101633200I0J-140000D01*
G01*
X129568600Y-101973200D01*
G75*
G02*
X129428600Y-102113200I-140000J0D01*
G01*
X129148600Y-102113200D01*
G75*
G02*
X129008600Y-101973200I0J140000D01*
G01*
G37*
G36*
G01*
X129968600Y-101973200D02*
X129968600Y-101633200D01*
G75*
G02*
X130108600Y-101493200I140000J0D01*
G01*
X130388600Y-101493200D01*
G75*
G02*
X130528600Y-101633200I0J-140000D01*
G01*
X130528600Y-101973200D01*
G75*
G02*
X130388600Y-102113200I-140000J0D01*
G01*
X130108600Y-102113200D01*
G75*
G02*
X129968600Y-101973200I0J140000D01*
G01*
G37*
%TD*%
%TO.C,C11*%
G36*
G01*
X116633600Y-89268120D02*
X116633600Y-88928120D01*
G75*
G02*
X116773600Y-88788120I140000J0D01*
G01*
X117053600Y-88788120D01*
G75*
G02*
X117193600Y-88928120I0J-140000D01*
G01*
X117193600Y-89268120D01*
G75*
G02*
X117053600Y-89408120I-140000J0D01*
G01*
X116773600Y-89408120D01*
G75*
G02*
X116633600Y-89268120I0J140000D01*
G01*
G37*
G36*
G01*
X115673600Y-89268120D02*
X115673600Y-88928120D01*
G75*
G02*
X115813600Y-88788120I140000J0D01*
G01*
X116093600Y-88788120D01*
G75*
G02*
X116233600Y-88928120I0J-140000D01*
G01*
X116233600Y-89268120D01*
G75*
G02*
X116093600Y-89408120I-140000J0D01*
G01*
X115813600Y-89408120D01*
G75*
G02*
X115673600Y-89268120I0J140000D01*
G01*
G37*
%TD*%
%TO.C,C12*%
G36*
G01*
X115665920Y-87766980D02*
X115665920Y-87426980D01*
G75*
G02*
X115805920Y-87286980I140000J0D01*
G01*
X116085920Y-87286980D01*
G75*
G02*
X116225920Y-87426980I0J-140000D01*
G01*
X116225920Y-87766980D01*
G75*
G02*
X116085920Y-87906980I-140000J0D01*
G01*
X115805920Y-87906980D01*
G75*
G02*
X115665920Y-87766980I0J140000D01*
G01*
G37*
G36*
G01*
X116625920Y-87766980D02*
X116625920Y-87426980D01*
G75*
G02*
X116765920Y-87286980I140000J0D01*
G01*
X117045920Y-87286980D01*
G75*
G02*
X117185920Y-87426980I0J-140000D01*
G01*
X117185920Y-87766980D01*
G75*
G02*
X117045920Y-87906980I-140000J0D01*
G01*
X116765920Y-87906980D01*
G75*
G02*
X116625920Y-87766980I0J140000D01*
G01*
G37*
%TD*%
%TO.C,C13*%
G36*
G01*
X106233700Y-95837600D02*
X106573700Y-95837600D01*
G75*
G02*
X106713700Y-95977600I0J-140000D01*
G01*
X106713700Y-96257600D01*
G75*
G02*
X106573700Y-96397600I-140000J0D01*
G01*
X106233700Y-96397600D01*
G75*
G02*
X106093700Y-96257600I0J140000D01*
G01*
X106093700Y-95977600D01*
G75*
G02*
X106233700Y-95837600I140000J0D01*
G01*
G37*
G36*
G01*
X106233700Y-96797600D02*
X106573700Y-96797600D01*
G75*
G02*
X106713700Y-96937600I0J-140000D01*
G01*
X106713700Y-97217600D01*
G75*
G02*
X106573700Y-97357600I-140000J0D01*
G01*
X106233700Y-97357600D01*
G75*
G02*
X106093700Y-97217600I0J140000D01*
G01*
X106093700Y-96937600D01*
G75*
G02*
X106233700Y-96797600I140000J0D01*
G01*
G37*
%TD*%
%TO.C,C15*%
G36*
G01*
X107228700Y-110147600D02*
X106278700Y-110147600D01*
G75*
G02*
X106028700Y-109897600I0J250000D01*
G01*
X106028700Y-109397600D01*
G75*
G02*
X106278700Y-109147600I250000J0D01*
G01*
X107228700Y-109147600D01*
G75*
G02*
X107478700Y-109397600I0J-250000D01*
G01*
X107478700Y-109897600D01*
G75*
G02*
X107228700Y-110147600I-250000J0D01*
G01*
G37*
G36*
G01*
X107228700Y-112047600D02*
X106278700Y-112047600D01*
G75*
G02*
X106028700Y-111797600I0J250000D01*
G01*
X106028700Y-111297600D01*
G75*
G02*
X106278700Y-111047600I250000J0D01*
G01*
X107228700Y-111047600D01*
G75*
G02*
X107478700Y-111297600I0J-250000D01*
G01*
X107478700Y-111797600D01*
G75*
G02*
X107228700Y-112047600I-250000J0D01*
G01*
G37*
%TD*%
%TO.C,C16*%
G36*
G01*
X116353700Y-103517600D02*
X116353700Y-103177600D01*
G75*
G02*
X116493700Y-103037600I140000J0D01*
G01*
X116773700Y-103037600D01*
G75*
G02*
X116913700Y-103177600I0J-140000D01*
G01*
X116913700Y-103517600D01*
G75*
G02*
X116773700Y-103657600I-140000J0D01*
G01*
X116493700Y-103657600D01*
G75*
G02*
X116353700Y-103517600I0J140000D01*
G01*
G37*
G36*
G01*
X115393700Y-103517600D02*
X115393700Y-103177600D01*
G75*
G02*
X115533700Y-103037600I140000J0D01*
G01*
X115813700Y-103037600D01*
G75*
G02*
X115953700Y-103177600I0J-140000D01*
G01*
X115953700Y-103517600D01*
G75*
G02*
X115813700Y-103657600I-140000J0D01*
G01*
X115533700Y-103657600D01*
G75*
G02*
X115393700Y-103517600I0J140000D01*
G01*
G37*
%TD*%
%TO.C,C17*%
G36*
G01*
X113749000Y-101838100D02*
X114089000Y-101838100D01*
G75*
G02*
X114229000Y-101978100I0J-140000D01*
G01*
X114229000Y-102258100D01*
G75*
G02*
X114089000Y-102398100I-140000J0D01*
G01*
X113749000Y-102398100D01*
G75*
G02*
X113609000Y-102258100I0J140000D01*
G01*
X113609000Y-101978100D01*
G75*
G02*
X113749000Y-101838100I140000J0D01*
G01*
G37*
G36*
G01*
X113749000Y-100878100D02*
X114089000Y-100878100D01*
G75*
G02*
X114229000Y-101018100I0J-140000D01*
G01*
X114229000Y-101298100D01*
G75*
G02*
X114089000Y-101438100I-140000J0D01*
G01*
X113749000Y-101438100D01*
G75*
G02*
X113609000Y-101298100I0J140000D01*
G01*
X113609000Y-101018100D01*
G75*
G02*
X113749000Y-100878100I140000J0D01*
G01*
G37*
%TD*%
D12*
%TO.C,D1*%
X106069400Y-88684100D03*
X102769400Y-88684100D03*
%TD*%
%TO.C,F1*%
G36*
G01*
X97759700Y-117032090D02*
X97759700Y-116119590D01*
G75*
G02*
X98003450Y-115875840I243750J0D01*
G01*
X98490950Y-115875840D01*
G75*
G02*
X98734700Y-116119590I0J-243750D01*
G01*
X98734700Y-117032090D01*
G75*
G02*
X98490950Y-117275840I-243750J0D01*
G01*
X98003450Y-117275840D01*
G75*
G02*
X97759700Y-117032090I0J243750D01*
G01*
G37*
G36*
G01*
X99634700Y-117032090D02*
X99634700Y-116119590D01*
G75*
G02*
X99878450Y-115875840I243750J0D01*
G01*
X100365950Y-115875840D01*
G75*
G02*
X100609700Y-116119590I0J-243750D01*
G01*
X100609700Y-117032090D01*
G75*
G02*
X100365950Y-117275840I-243750J0D01*
G01*
X99878450Y-117275840D01*
G75*
G02*
X99634700Y-117032090I0J243750D01*
G01*
G37*
%TD*%
D13*
%TO.C,H1*%
X95653700Y-71097600D03*
%TD*%
%TO.C,H2*%
X147653700Y-71097600D03*
%TD*%
%TO.C,H3*%
X147653700Y-121097600D03*
%TD*%
D14*
%TO.C,J1*%
X147655280Y-84498180D03*
X143755280Y-84498180D03*
X147655280Y-83228180D03*
X143755280Y-83228180D03*
X147655280Y-81958180D03*
X143755280Y-81958180D03*
X147655280Y-80688180D03*
X143755280Y-80688180D03*
X147655280Y-79418180D03*
X143755280Y-79418180D03*
%TD*%
D11*
%TO.C,3.3 V*%
X127113700Y-75897600D03*
D10*
X129653700Y-75897600D03*
%TD*%
D11*
%TO.C,SPI*%
X124028200Y-118783100D03*
X121488200Y-118783100D03*
X118948200Y-118783100D03*
D10*
X116408200Y-118783100D03*
%TD*%
%TO.C,UART*%
X137653700Y-98897600D03*
D11*
X137653700Y-96357600D03*
%TD*%
D15*
%TO.C,J7*%
X105653700Y-72097600D03*
D16*
X105653700Y-78097600D03*
X110353700Y-75097600D03*
%TD*%
%TO.C,R1*%
G36*
G01*
X112207460Y-97751140D02*
X112577460Y-97751140D01*
G75*
G02*
X112712460Y-97886140I0J-135000D01*
G01*
X112712460Y-98156140D01*
G75*
G02*
X112577460Y-98291140I-135000J0D01*
G01*
X112207460Y-98291140D01*
G75*
G02*
X112072460Y-98156140I0J135000D01*
G01*
X112072460Y-97886140D01*
G75*
G02*
X112207460Y-97751140I135000J0D01*
G01*
G37*
G36*
G01*
X112207460Y-96731140D02*
X112577460Y-96731140D01*
G75*
G02*
X112712460Y-96866140I0J-135000D01*
G01*
X112712460Y-97136140D01*
G75*
G02*
X112577460Y-97271140I-135000J0D01*
G01*
X112207460Y-97271140D01*
G75*
G02*
X112072460Y-97136140I0J135000D01*
G01*
X112072460Y-96866140D01*
G75*
G02*
X112207460Y-96731140I135000J0D01*
G01*
G37*
%TD*%
%TO.C,R2*%
G36*
G01*
X129047460Y-80660660D02*
X129047460Y-81030660D01*
G75*
G02*
X128912460Y-81165660I-135000J0D01*
G01*
X128642460Y-81165660D01*
G75*
G02*
X128507460Y-81030660I0J135000D01*
G01*
X128507460Y-80660660D01*
G75*
G02*
X128642460Y-80525660I135000J0D01*
G01*
X128912460Y-80525660D01*
G75*
G02*
X129047460Y-80660660I0J-135000D01*
G01*
G37*
G36*
G01*
X128027460Y-80660660D02*
X128027460Y-81030660D01*
G75*
G02*
X127892460Y-81165660I-135000J0D01*
G01*
X127622460Y-81165660D01*
G75*
G02*
X127487460Y-81030660I0J135000D01*
G01*
X127487460Y-80660660D01*
G75*
G02*
X127622460Y-80525660I135000J0D01*
G01*
X127892460Y-80525660D01*
G75*
G02*
X128027460Y-80660660I0J-135000D01*
G01*
G37*
%TD*%
%TO.C,R3*%
G36*
G01*
X124502480Y-80752100D02*
X124502480Y-81122100D01*
G75*
G02*
X124367480Y-81257100I-135000J0D01*
G01*
X124097480Y-81257100D01*
G75*
G02*
X123962480Y-81122100I0J135000D01*
G01*
X123962480Y-80752100D01*
G75*
G02*
X124097480Y-80617100I135000J0D01*
G01*
X124367480Y-80617100D01*
G75*
G02*
X124502480Y-80752100I0J-135000D01*
G01*
G37*
G36*
G01*
X125522480Y-80752100D02*
X125522480Y-81122100D01*
G75*
G02*
X125387480Y-81257100I-135000J0D01*
G01*
X125117480Y-81257100D01*
G75*
G02*
X124982480Y-81122100I0J135000D01*
G01*
X124982480Y-80752100D01*
G75*
G02*
X125117480Y-80617100I135000J0D01*
G01*
X125387480Y-80617100D01*
G75*
G02*
X125522480Y-80752100I0J-135000D01*
G01*
G37*
%TD*%
%TO.C,R4*%
G36*
G01*
X113249740Y-90904480D02*
X113249740Y-91274480D01*
G75*
G02*
X113114740Y-91409480I-135000J0D01*
G01*
X112844740Y-91409480D01*
G75*
G02*
X112709740Y-91274480I0J135000D01*
G01*
X112709740Y-90904480D01*
G75*
G02*
X112844740Y-90769480I135000J0D01*
G01*
X113114740Y-90769480D01*
G75*
G02*
X113249740Y-90904480I0J-135000D01*
G01*
G37*
G36*
G01*
X114269740Y-90904480D02*
X114269740Y-91274480D01*
G75*
G02*
X114134740Y-91409480I-135000J0D01*
G01*
X113864740Y-91409480D01*
G75*
G02*
X113729740Y-91274480I0J135000D01*
G01*
X113729740Y-90904480D01*
G75*
G02*
X113864740Y-90769480I135000J0D01*
G01*
X114134740Y-90769480D01*
G75*
G02*
X114269740Y-90904480I0J-135000D01*
G01*
G37*
%TD*%
%TO.C,R5*%
G36*
G01*
X119353300Y-87822620D02*
X119353300Y-87452620D01*
G75*
G02*
X119488300Y-87317620I135000J0D01*
G01*
X119758300Y-87317620D01*
G75*
G02*
X119893300Y-87452620I0J-135000D01*
G01*
X119893300Y-87822620D01*
G75*
G02*
X119758300Y-87957620I-135000J0D01*
G01*
X119488300Y-87957620D01*
G75*
G02*
X119353300Y-87822620I0J135000D01*
G01*
G37*
G36*
G01*
X118333300Y-87822620D02*
X118333300Y-87452620D01*
G75*
G02*
X118468300Y-87317620I135000J0D01*
G01*
X118738300Y-87317620D01*
G75*
G02*
X118873300Y-87452620I0J-135000D01*
G01*
X118873300Y-87822620D01*
G75*
G02*
X118738300Y-87957620I-135000J0D01*
G01*
X118468300Y-87957620D01*
G75*
G02*
X118333300Y-87822620I0J135000D01*
G01*
G37*
%TD*%
%TO.C,R6*%
G36*
G01*
X123342180Y-106224920D02*
X123342180Y-105854920D01*
G75*
G02*
X123477180Y-105719920I135000J0D01*
G01*
X123747180Y-105719920D01*
G75*
G02*
X123882180Y-105854920I0J-135000D01*
G01*
X123882180Y-106224920D01*
G75*
G02*
X123747180Y-106359920I-135000J0D01*
G01*
X123477180Y-106359920D01*
G75*
G02*
X123342180Y-106224920I0J135000D01*
G01*
G37*
G36*
G01*
X124362180Y-106224920D02*
X124362180Y-105854920D01*
G75*
G02*
X124497180Y-105719920I135000J0D01*
G01*
X124767180Y-105719920D01*
G75*
G02*
X124902180Y-105854920I0J-135000D01*
G01*
X124902180Y-106224920D01*
G75*
G02*
X124767180Y-106359920I-135000J0D01*
G01*
X124497180Y-106359920D01*
G75*
G02*
X124362180Y-106224920I0J135000D01*
G01*
G37*
%TD*%
D17*
%TO.C,Y1*%
X110603700Y-93897600D03*
X110603700Y-98297600D03*
X108203700Y-98297600D03*
X108203700Y-93897600D03*
%TD*%
%TO.C,FB1*%
G36*
G01*
X109371000Y-105715050D02*
X109371000Y-104952550D01*
G75*
G02*
X109589750Y-104733800I218750J0D01*
G01*
X110027250Y-104733800D01*
G75*
G02*
X110246000Y-104952550I0J-218750D01*
G01*
X110246000Y-105715050D01*
G75*
G02*
X110027250Y-105933800I-218750J0D01*
G01*
X109589750Y-105933800D01*
G75*
G02*
X109371000Y-105715050I0J218750D01*
G01*
G37*
G36*
G01*
X111496000Y-105715050D02*
X111496000Y-104952550D01*
G75*
G02*
X111714750Y-104733800I218750J0D01*
G01*
X112152250Y-104733800D01*
G75*
G02*
X112371000Y-104952550I0J-218750D01*
G01*
X112371000Y-105715050D01*
G75*
G02*
X112152250Y-105933800I-218750J0D01*
G01*
X111714750Y-105933800D01*
G75*
G02*
X111496000Y-105715050I0J218750D01*
G01*
G37*
%TD*%
%TO.C,C18*%
G36*
G01*
X133040540Y-81358760D02*
X133040540Y-80408760D01*
G75*
G02*
X133290540Y-80158760I250000J0D01*
G01*
X133790540Y-80158760D01*
G75*
G02*
X134040540Y-80408760I0J-250000D01*
G01*
X134040540Y-81358760D01*
G75*
G02*
X133790540Y-81608760I-250000J0D01*
G01*
X133290540Y-81608760D01*
G75*
G02*
X133040540Y-81358760I0J250000D01*
G01*
G37*
G36*
G01*
X131140540Y-81358760D02*
X131140540Y-80408760D01*
G75*
G02*
X131390540Y-80158760I250000J0D01*
G01*
X131890540Y-80158760D01*
G75*
G02*
X132140540Y-80408760I0J-250000D01*
G01*
X132140540Y-81358760D01*
G75*
G02*
X131890540Y-81608760I-250000J0D01*
G01*
X131390540Y-81608760D01*
G75*
G02*
X131140540Y-81358760I0J250000D01*
G01*
G37*
%TD*%
D13*
%TO.C,H4*%
X95653700Y-121097600D03*
%TD*%
D10*
%TO.C,I2C*%
X118140480Y-75580240D03*
D11*
X120680480Y-75580240D03*
%TD*%
D18*
%TO.C,RESET*%
X137318700Y-107527600D03*
X130588700Y-110067600D03*
X137318700Y-110067600D03*
X130588700Y-107527600D03*
%TD*%
D19*
%TO.C,U2*%
X101703700Y-109997600D03*
D20*
X95403700Y-109997600D03*
X95403700Y-112297600D03*
X95403700Y-107697600D03*
%TD*%
D10*
%TO.C,VIN*%
X136153700Y-75097600D03*
D11*
X136153700Y-72557600D03*
X138693700Y-75097600D03*
X138693700Y-72557600D03*
%TD*%
%TO.C,PC_13*%
G36*
G01*
X112966200Y-108353850D02*
X112966200Y-107841350D01*
G75*
G02*
X113184950Y-107622600I218750J0D01*
G01*
X113622450Y-107622600D01*
G75*
G02*
X113841200Y-107841350I0J-218750D01*
G01*
X113841200Y-108353850D01*
G75*
G02*
X113622450Y-108572600I-218750J0D01*
G01*
X113184950Y-108572600D01*
G75*
G02*
X112966200Y-108353850I0J218750D01*
G01*
G37*
G36*
G01*
X111391200Y-108353850D02*
X111391200Y-107841350D01*
G75*
G02*
X111609950Y-107622600I218750J0D01*
G01*
X112047450Y-107622600D01*
G75*
G02*
X112266200Y-107841350I0J-218750D01*
G01*
X112266200Y-108353850D01*
G75*
G02*
X112047450Y-108572600I-218750J0D01*
G01*
X111609950Y-108572600D01*
G75*
G02*
X111391200Y-108353850I0J218750D01*
G01*
G37*
%TD*%
%TO.C,R7*%
G36*
G01*
X130708700Y-88222601D02*
X130708700Y-86972599D01*
G75*
G02*
X130958699Y-86722600I249999J0D01*
G01*
X131583701Y-86722600D01*
G75*
G02*
X131833700Y-86972599I0J-249999D01*
G01*
X131833700Y-88222601D01*
G75*
G02*
X131583701Y-88472600I-249999J0D01*
G01*
X130958699Y-88472600D01*
G75*
G02*
X130708700Y-88222601I0J249999D01*
G01*
G37*
G36*
G01*
X127783700Y-88222601D02*
X127783700Y-86972599D01*
G75*
G02*
X128033699Y-86722600I249999J0D01*
G01*
X128658701Y-86722600D01*
G75*
G02*
X128908700Y-86972599I0J-249999D01*
G01*
X128908700Y-88222601D01*
G75*
G02*
X128658701Y-88472600I-249999J0D01*
G01*
X128033699Y-88472600D01*
G75*
G02*
X127783700Y-88222601I0J249999D01*
G01*
G37*
%TD*%
%TO.C,R8*%
G36*
G01*
X112291200Y-110972599D02*
X112291200Y-112222601D01*
G75*
G02*
X112041201Y-112472600I-249999J0D01*
G01*
X111416199Y-112472600D01*
G75*
G02*
X111166200Y-112222601I0J249999D01*
G01*
X111166200Y-110972599D01*
G75*
G02*
X111416199Y-110722600I249999J0D01*
G01*
X112041201Y-110722600D01*
G75*
G02*
X112291200Y-110972599I0J-249999D01*
G01*
G37*
G36*
G01*
X115216200Y-110972599D02*
X115216200Y-112222601D01*
G75*
G02*
X114966201Y-112472600I-249999J0D01*
G01*
X114341199Y-112472600D01*
G75*
G02*
X114091200Y-112222601I0J249999D01*
G01*
X114091200Y-110972599D01*
G75*
G02*
X114341199Y-110722600I249999J0D01*
G01*
X114966201Y-110722600D01*
G75*
G02*
X115216200Y-110972599I0J-249999D01*
G01*
G37*
%TD*%
%TO.C,PORTC_1*%
X98493700Y-100817600D03*
X95953700Y-100817600D03*
X98493700Y-98277600D03*
X95953700Y-98277600D03*
X98493700Y-95737600D03*
X95953700Y-95737600D03*
X98493700Y-93197600D03*
D10*
X95953700Y-93197600D03*
%TD*%
M02*
