%TF.GenerationSoftware,KiCad,Pcbnew,(5.1.8)-1*%
%TF.CreationDate,2020-11-24T12:22:42+05:30*%
%TF.ProjectId,stm32f405_breakout,73746d33-3266-4343-9035-5f627265616b,rev?*%
%TF.SameCoordinates,Original*%
%TF.FileFunction,Copper,L4,Bot*%
%TF.FilePolarity,Positive*%
%FSLAX46Y46*%
G04 Gerber Fmt 4.6, Leading zero omitted, Abs format (unit mm)*
G04 Created by KiCad (PCBNEW (5.1.8)-1) date 2020-11-24 12:22:42*
%MOMM*%
%LPD*%
G01*
G04 APERTURE LIST*
%TA.AperFunction,ComponentPad*%
%ADD10R,1.700000X1.700000*%
%TD*%
%TA.AperFunction,ComponentPad*%
%ADD11O,1.700000X1.700000*%
%TD*%
%TA.AperFunction,ComponentPad*%
%ADD12R,2.600000X2.600000*%
%TD*%
%TA.AperFunction,ComponentPad*%
%ADD13C,2.600000*%
%TD*%
%TA.AperFunction,ViaPad*%
%ADD14C,1.000000*%
%TD*%
%TA.AperFunction,ViaPad*%
%ADD15C,0.800000*%
%TD*%
%TA.AperFunction,Conductor*%
%ADD16C,0.250000*%
%TD*%
%TA.AperFunction,Conductor*%
%ADD17C,0.300000*%
%TD*%
%TA.AperFunction,Conductor*%
%ADD18C,0.500000*%
%TD*%
%TA.AperFunction,Conductor*%
%ADD19C,0.254000*%
%TD*%
%TA.AperFunction,Conductor*%
%ADD20C,0.100000*%
%TD*%
G04 APERTURE END LIST*
D10*
%TO.P,PORTC_2,1*%
%TO.N,PC10*%
X145470880Y-91765120D03*
D11*
%TO.P,PORTC_2,2*%
%TO.N,PC9*%
X148010880Y-91765120D03*
%TO.P,PORTC_2,3*%
%TO.N,PC11*%
X145470880Y-94305120D03*
%TO.P,PORTC_2,4*%
%TO.N,PC12*%
X148010880Y-94305120D03*
%TO.P,PORTC_2,5*%
%TO.N,PC8*%
X145470880Y-96845120D03*
%TO.P,PORTC_2,6*%
%TO.N,PC6*%
X148010880Y-96845120D03*
%TO.P,PORTC_2,7*%
%TO.N,PC7*%
X145470880Y-99385120D03*
%TO.P,PORTC_2,8*%
%TO.N,PC5*%
X148010880Y-99385120D03*
%TD*%
%TO.P,3.3 V,2*%
%TO.N,GND*%
X127113700Y-75897600D03*
D10*
%TO.P,3.3 V,1*%
%TO.N,+3V3*%
X129653700Y-75897600D03*
%TD*%
D11*
%TO.P,SPI,4*%
%TO.N,SPI1_MOSI*%
X124028200Y-118783100D03*
%TO.P,SPI,3*%
%TO.N,SPI1_MISO*%
X121488200Y-118783100D03*
%TO.P,SPI,2*%
%TO.N,SPI1_SCK*%
X118948200Y-118783100D03*
D10*
%TO.P,SPI,1*%
%TO.N,SPI1_EN*%
X116408200Y-118783100D03*
%TD*%
%TO.P,UART,1*%
%TO.N,USART1_TX*%
X137653700Y-98897600D03*
D11*
%TO.P,UART,2*%
%TO.N,USART1_RX*%
X137653700Y-96357600D03*
%TD*%
D12*
%TO.P,J7,1*%
%TO.N,VCC*%
X105653700Y-72097600D03*
D13*
%TO.P,J7,2*%
%TO.N,GND*%
X105653700Y-78097600D03*
%TO.P,J7,3*%
%TO.N,N/C*%
X110353700Y-75097600D03*
%TD*%
D10*
%TO.P,I2C,1*%
%TO.N,I2C1_SCL*%
X118140480Y-75580240D03*
D11*
%TO.P,I2C,2*%
%TO.N,I2C1_SDA*%
X120680480Y-75580240D03*
%TD*%
D10*
%TO.P,VIN,1*%
%TO.N,VCC*%
X136153700Y-75097600D03*
D11*
%TO.P,VIN,2*%
X136153700Y-72557600D03*
%TO.P,VIN,3*%
%TO.N,GND*%
X138693700Y-75097600D03*
%TO.P,VIN,4*%
X138693700Y-72557600D03*
%TD*%
%TO.P,PORTC_1,8*%
%TO.N,PC3*%
X98493700Y-100817600D03*
%TO.P,PORTC_1,7*%
%TO.N,PC4*%
X95953700Y-100817600D03*
%TO.P,PORTC_1,6*%
%TO.N,PC2*%
X98493700Y-98277600D03*
%TO.P,PORTC_1,5*%
%TO.N,PC15*%
X95953700Y-98277600D03*
%TO.P,PORTC_1,4*%
%TO.N,PC1*%
X98493700Y-95737600D03*
%TO.P,PORTC_1,3*%
%TO.N,PC14*%
X95953700Y-95737600D03*
%TO.P,PORTC_1,2*%
%TO.N,PC0*%
X98493700Y-93197600D03*
D10*
%TO.P,PORTC_1,1*%
%TO.N,PC13*%
X95953700Y-93197600D03*
%TD*%
D14*
%TO.N,+3V3*%
X99568000Y-107480100D03*
X99568000Y-109397800D03*
X99568000Y-111607600D03*
D15*
X127787400Y-92303600D03*
X125234700Y-79743300D03*
X128739900Y-79590900D03*
X129032000Y-103187500D03*
X127533400Y-102044500D03*
X116738400Y-107416600D03*
X138404600Y-87020400D03*
X114757200Y-92303600D03*
X116598700Y-92316300D03*
D14*
%TO.N,GND*%
X93065600Y-107581700D03*
X97307400Y-105410000D03*
X97536000Y-107530900D03*
X94615000Y-105397300D03*
D15*
X108546900Y-109537500D03*
X115366800Y-90157300D03*
X133350000Y-87058500D03*
X132143500Y-93764100D03*
X118516400Y-89471500D03*
X110048040Y-87228680D03*
X107746800Y-100261420D03*
X110548420Y-92113100D03*
X111963200Y-102997000D03*
X114414300Y-104597200D03*
%TO.N,NRESET*%
X113728500Y-88480900D03*
X128282700Y-107505500D03*
X117627400Y-96443800D03*
X140322300Y-79476600D03*
%TO.N,PC0*%
X101930200Y-93281500D03*
%TO.N,PC2*%
X101968300Y-98094800D03*
%TO.N,PC1*%
X101904800Y-95592900D03*
%TO.N,PC3*%
X101930200Y-100965000D03*
%TO.N,PC4*%
X122199400Y-106019600D03*
%TO.N,PC5*%
X122153700Y-104347600D03*
%TO.N,PC6*%
X131902200Y-101523800D03*
%TO.N,PC7*%
X133070600Y-101574600D03*
%TO.N,PC8*%
X134302500Y-101612700D03*
%TO.N,PC9*%
X135458200Y-101587300D03*
%TO.N,PC10*%
X125552200Y-89496900D03*
%TO.N,PC11*%
X124403700Y-89347600D03*
%TO.N,PC12*%
X123403700Y-89347600D03*
%TO.N,PC13*%
X113153700Y-92347600D03*
%TO.N,PC14*%
X113153700Y-93597600D03*
%TO.N,PC15*%
X113153700Y-94597600D03*
%TD*%
D16*
%TO.N,NRESET*%
X117627400Y-100894302D02*
X117627400Y-96443800D01*
X121805699Y-105072601D02*
X117627400Y-100894302D01*
X125849801Y-105072601D02*
X121805699Y-105072601D01*
X128282700Y-107505500D02*
X125849801Y-105072601D01*
D17*
X117627400Y-94013898D02*
X117627400Y-96443800D01*
X132164698Y-79476600D02*
X117627400Y-94013898D01*
X140322300Y-79476600D02*
X132164698Y-79476600D01*
X117627400Y-91307898D02*
X117627400Y-96443800D01*
X114800402Y-88480900D02*
X117627400Y-91307898D01*
X113728500Y-88480900D02*
X114800402Y-88480900D01*
%TO.N,PC0*%
X98577600Y-93281500D02*
X98493700Y-93197600D01*
X101930200Y-93281500D02*
X98577600Y-93281500D01*
%TO.N,PC2*%
X98676500Y-98094800D02*
X98493700Y-98277600D01*
X101968300Y-98094800D02*
X98676500Y-98094800D01*
%TO.N,PC1*%
X98638400Y-95592900D02*
X98493700Y-95737600D01*
X101904800Y-95592900D02*
X98638400Y-95592900D01*
%TO.N,PC3*%
X98773701Y-101097601D02*
X98493700Y-100817600D01*
X98641100Y-100965000D02*
X98493700Y-100817600D01*
X101930200Y-100965000D02*
X98641100Y-100965000D01*
D18*
%TO.N,PC4*%
X101155700Y-106019600D02*
X95953700Y-100817600D01*
X122199400Y-106019600D02*
X101155700Y-106019600D01*
D17*
%TO.N,PC5*%
X143048400Y-104347600D02*
X122153700Y-104347600D01*
X148010880Y-99385120D02*
X143048400Y-104347600D01*
%TO.N,PC6*%
X131902200Y-101523800D02*
X131902200Y-103479600D01*
X131902200Y-103479600D02*
X131965700Y-103543100D01*
X146810879Y-99821123D02*
X146810879Y-98045121D01*
X143088902Y-103543100D02*
X146810879Y-99821123D01*
X146810879Y-98045121D02*
X148010880Y-96845120D01*
X131965700Y-103543100D02*
X143088902Y-103543100D01*
%TO.N,PC7*%
X133070600Y-101574600D02*
X133070600Y-102984300D01*
X133108700Y-103022400D02*
X142697200Y-103022400D01*
X133070600Y-102984300D02*
X133108700Y-103022400D01*
X145470880Y-100248720D02*
X145470880Y-99385120D01*
X142697200Y-103022400D02*
X145470880Y-100248720D01*
%TO.N,PC8*%
X134302500Y-101612700D02*
X134373598Y-101612700D01*
X139978699Y-102337301D02*
X145470880Y-96845120D01*
X135027101Y-102337301D02*
X139978699Y-102337301D01*
X134302500Y-101612700D02*
X135027101Y-102337301D01*
%TO.N,PC9*%
X138853701Y-100027601D02*
X137294002Y-101587300D01*
X138853701Y-98953799D02*
X138853701Y-100027601D01*
X144702381Y-93105119D02*
X138853701Y-98953799D01*
X137294002Y-101587300D02*
X135458200Y-101587300D01*
X146670881Y-93105119D02*
X144702381Y-93105119D01*
X148010880Y-91765120D02*
X146670881Y-93105119D01*
%TO.N,PC10*%
X143202660Y-89496900D02*
X125552200Y-89496900D01*
X145470880Y-91765120D02*
X143202660Y-89496900D01*
%TO.N,PC11*%
X125153701Y-88597599D02*
X124403700Y-89347600D01*
X149210881Y-91189119D02*
X146619361Y-88597599D01*
X149210881Y-92341121D02*
X149210881Y-91189119D01*
X148586881Y-92965121D02*
X149210881Y-92341121D01*
X146619361Y-88597599D02*
X125153701Y-88597599D01*
X147517999Y-92965121D02*
X148586881Y-92965121D01*
X146178000Y-94305120D02*
X147517999Y-92965121D01*
X145470880Y-94305120D02*
X146178000Y-94305120D01*
%TO.N,PC12*%
X123403700Y-89237598D02*
X123403700Y-89347600D01*
X124543709Y-88097589D02*
X123403700Y-89237598D01*
X146826471Y-88097589D02*
X124543709Y-88097589D01*
X149710891Y-90982009D02*
X146826471Y-88097589D01*
X149710891Y-92605109D02*
X149710891Y-90982009D01*
X148010880Y-94305120D02*
X149710891Y-92605109D01*
D16*
%TO.N,PC13*%
X113153700Y-92347600D02*
X113153700Y-90522300D01*
X113153700Y-90522300D02*
X96935800Y-90522300D01*
X95953700Y-91504400D02*
X95953700Y-93197600D01*
X96935800Y-90522300D02*
X95953700Y-91504400D01*
%TO.N,PC14*%
X109976899Y-89038599D02*
X109537500Y-89477998D01*
X112692201Y-89038599D02*
X109976899Y-89038599D01*
X113878701Y-90225099D02*
X112692201Y-89038599D01*
X113878701Y-92872599D02*
X113878701Y-90225099D01*
X113153700Y-93597600D02*
X113878701Y-92872599D01*
X94778699Y-94562599D02*
X95953700Y-95737600D01*
X94778699Y-92042991D02*
X94778699Y-94562599D01*
X97343692Y-89477998D02*
X94778699Y-92042991D01*
X109537500Y-89477998D02*
X97343692Y-89477998D01*
D17*
%TO.N,PC15*%
X97917699Y-94537599D02*
X97153701Y-95301597D01*
X97153701Y-97077599D02*
X95953700Y-98277600D01*
X97153701Y-95301597D02*
X97153701Y-97077599D01*
X99129702Y-94597600D02*
X99069701Y-94537599D01*
X99069701Y-94537599D02*
X97917699Y-94537599D01*
X113153700Y-94597600D02*
X99129702Y-94597600D01*
%TD*%
D19*
%TO.N,GND*%
X148209122Y-68292502D02*
X148743394Y-68453808D01*
X149236156Y-68715815D01*
X149668641Y-69068541D01*
X150024379Y-69498553D01*
X150289821Y-69989479D01*
X150454852Y-70522607D01*
X150518700Y-71130079D01*
X150518701Y-121042081D01*
X150458798Y-121653021D01*
X150297491Y-122187295D01*
X150035489Y-122680050D01*
X149682759Y-123112541D01*
X149252744Y-123468280D01*
X148761822Y-123733721D01*
X148228693Y-123898752D01*
X147621222Y-123962600D01*
X95709209Y-123962600D01*
X95098279Y-123902698D01*
X94564005Y-123741391D01*
X94071250Y-123479389D01*
X93638759Y-123126659D01*
X93283020Y-122696644D01*
X93017579Y-122205722D01*
X92852548Y-121672593D01*
X92788700Y-121065122D01*
X92788700Y-120911944D01*
X93768700Y-120911944D01*
X93768700Y-121283256D01*
X93841139Y-121647434D01*
X93983234Y-121990482D01*
X94189525Y-122299218D01*
X94452082Y-122561775D01*
X94760818Y-122768066D01*
X95103866Y-122910161D01*
X95468044Y-122982600D01*
X95839356Y-122982600D01*
X96203534Y-122910161D01*
X96546582Y-122768066D01*
X96855318Y-122561775D01*
X97117875Y-122299218D01*
X97324166Y-121990482D01*
X97466261Y-121647434D01*
X97538700Y-121283256D01*
X97538700Y-120911944D01*
X145768700Y-120911944D01*
X145768700Y-121283256D01*
X145841139Y-121647434D01*
X145983234Y-121990482D01*
X146189525Y-122299218D01*
X146452082Y-122561775D01*
X146760818Y-122768066D01*
X147103866Y-122910161D01*
X147468044Y-122982600D01*
X147839356Y-122982600D01*
X148203534Y-122910161D01*
X148546582Y-122768066D01*
X148855318Y-122561775D01*
X149117875Y-122299218D01*
X149324166Y-121990482D01*
X149466261Y-121647434D01*
X149538700Y-121283256D01*
X149538700Y-120911944D01*
X149466261Y-120547766D01*
X149324166Y-120204718D01*
X149117875Y-119895982D01*
X148855318Y-119633425D01*
X148546582Y-119427134D01*
X148203534Y-119285039D01*
X147839356Y-119212600D01*
X147468044Y-119212600D01*
X147103866Y-119285039D01*
X146760818Y-119427134D01*
X146452082Y-119633425D01*
X146189525Y-119895982D01*
X145983234Y-120204718D01*
X145841139Y-120547766D01*
X145768700Y-120911944D01*
X97538700Y-120911944D01*
X97466261Y-120547766D01*
X97324166Y-120204718D01*
X97117875Y-119895982D01*
X96855318Y-119633425D01*
X96546582Y-119427134D01*
X96203534Y-119285039D01*
X95839356Y-119212600D01*
X95468044Y-119212600D01*
X95103866Y-119285039D01*
X94760818Y-119427134D01*
X94452082Y-119633425D01*
X94189525Y-119895982D01*
X93983234Y-120204718D01*
X93841139Y-120547766D01*
X93768700Y-120911944D01*
X92788700Y-120911944D01*
X92788700Y-117933100D01*
X114920128Y-117933100D01*
X114920128Y-119633100D01*
X114932388Y-119757582D01*
X114968698Y-119877280D01*
X115027663Y-119987594D01*
X115107015Y-120084285D01*
X115203706Y-120163637D01*
X115314020Y-120222602D01*
X115433718Y-120258912D01*
X115558200Y-120271172D01*
X117258200Y-120271172D01*
X117382682Y-120258912D01*
X117502380Y-120222602D01*
X117612694Y-120163637D01*
X117709385Y-120084285D01*
X117788737Y-119987594D01*
X117847702Y-119877280D01*
X117869713Y-119804720D01*
X118001568Y-119936575D01*
X118244789Y-120099090D01*
X118515042Y-120211032D01*
X118801940Y-120268100D01*
X119094460Y-120268100D01*
X119381358Y-120211032D01*
X119651611Y-120099090D01*
X119894832Y-119936575D01*
X120101675Y-119729732D01*
X120218200Y-119555340D01*
X120334725Y-119729732D01*
X120541568Y-119936575D01*
X120784789Y-120099090D01*
X121055042Y-120211032D01*
X121341940Y-120268100D01*
X121634460Y-120268100D01*
X121921358Y-120211032D01*
X122191611Y-120099090D01*
X122434832Y-119936575D01*
X122641675Y-119729732D01*
X122758200Y-119555340D01*
X122874725Y-119729732D01*
X123081568Y-119936575D01*
X123324789Y-120099090D01*
X123595042Y-120211032D01*
X123881940Y-120268100D01*
X124174460Y-120268100D01*
X124461358Y-120211032D01*
X124731611Y-120099090D01*
X124974832Y-119936575D01*
X125181675Y-119729732D01*
X125344190Y-119486511D01*
X125456132Y-119216258D01*
X125513200Y-118929360D01*
X125513200Y-118636840D01*
X125456132Y-118349942D01*
X125344190Y-118079689D01*
X125181675Y-117836468D01*
X124974832Y-117629625D01*
X124731611Y-117467110D01*
X124461358Y-117355168D01*
X124174460Y-117298100D01*
X123881940Y-117298100D01*
X123595042Y-117355168D01*
X123324789Y-117467110D01*
X123081568Y-117629625D01*
X122874725Y-117836468D01*
X122758200Y-118010860D01*
X122641675Y-117836468D01*
X122434832Y-117629625D01*
X122191611Y-117467110D01*
X121921358Y-117355168D01*
X121634460Y-117298100D01*
X121341940Y-117298100D01*
X121055042Y-117355168D01*
X120784789Y-117467110D01*
X120541568Y-117629625D01*
X120334725Y-117836468D01*
X120218200Y-118010860D01*
X120101675Y-117836468D01*
X119894832Y-117629625D01*
X119651611Y-117467110D01*
X119381358Y-117355168D01*
X119094460Y-117298100D01*
X118801940Y-117298100D01*
X118515042Y-117355168D01*
X118244789Y-117467110D01*
X118001568Y-117629625D01*
X117869713Y-117761480D01*
X117847702Y-117688920D01*
X117788737Y-117578606D01*
X117709385Y-117481915D01*
X117612694Y-117402563D01*
X117502380Y-117343598D01*
X117382682Y-117307288D01*
X117258200Y-117295028D01*
X115558200Y-117295028D01*
X115433718Y-117307288D01*
X115314020Y-117343598D01*
X115203706Y-117402563D01*
X115107015Y-117481915D01*
X115027663Y-117578606D01*
X114968698Y-117688920D01*
X114932388Y-117808618D01*
X114920128Y-117933100D01*
X92788700Y-117933100D01*
X92788700Y-107368312D01*
X98433000Y-107368312D01*
X98433000Y-107591888D01*
X98476617Y-107811167D01*
X98562176Y-108017724D01*
X98686388Y-108203620D01*
X98844480Y-108361712D01*
X98960075Y-108438950D01*
X98844480Y-108516188D01*
X98686388Y-108674280D01*
X98562176Y-108860176D01*
X98476617Y-109066733D01*
X98433000Y-109286012D01*
X98433000Y-109509588D01*
X98476617Y-109728867D01*
X98562176Y-109935424D01*
X98686388Y-110121320D01*
X98844480Y-110279412D01*
X99030376Y-110403624D01*
X99236933Y-110489183D01*
X99304888Y-110502700D01*
X99236933Y-110516217D01*
X99030376Y-110601776D01*
X98844480Y-110725988D01*
X98686388Y-110884080D01*
X98562176Y-111069976D01*
X98476617Y-111276533D01*
X98433000Y-111495812D01*
X98433000Y-111719388D01*
X98476617Y-111938667D01*
X98562176Y-112145224D01*
X98686388Y-112331120D01*
X98844480Y-112489212D01*
X99030376Y-112613424D01*
X99236933Y-112698983D01*
X99456212Y-112742600D01*
X99679788Y-112742600D01*
X99899067Y-112698983D01*
X100105624Y-112613424D01*
X100291520Y-112489212D01*
X100449612Y-112331120D01*
X100573824Y-112145224D01*
X100659383Y-111938667D01*
X100703000Y-111719388D01*
X100703000Y-111495812D01*
X100659383Y-111276533D01*
X100573824Y-111069976D01*
X100449612Y-110884080D01*
X100291520Y-110725988D01*
X100105624Y-110601776D01*
X99899067Y-110516217D01*
X99831112Y-110502700D01*
X99899067Y-110489183D01*
X100105624Y-110403624D01*
X100291520Y-110279412D01*
X100449612Y-110121320D01*
X100573824Y-109935424D01*
X100659383Y-109728867D01*
X100703000Y-109509588D01*
X100703000Y-109286012D01*
X100659383Y-109066733D01*
X100573824Y-108860176D01*
X100449612Y-108674280D01*
X100291520Y-108516188D01*
X100175925Y-108438950D01*
X100291520Y-108361712D01*
X100449612Y-108203620D01*
X100573824Y-108017724D01*
X100659383Y-107811167D01*
X100703000Y-107591888D01*
X100703000Y-107368312D01*
X100659383Y-107149033D01*
X100573824Y-106942476D01*
X100449612Y-106756580D01*
X100291520Y-106598488D01*
X100105624Y-106474276D01*
X99899067Y-106388717D01*
X99679788Y-106345100D01*
X99456212Y-106345100D01*
X99236933Y-106388717D01*
X99030376Y-106474276D01*
X98844480Y-106598488D01*
X98686388Y-106756580D01*
X98562176Y-106942476D01*
X98476617Y-107149033D01*
X98433000Y-107368312D01*
X92788700Y-107368312D01*
X92788700Y-92042991D01*
X94015023Y-92042991D01*
X94018699Y-92080314D01*
X94018700Y-94525267D01*
X94015023Y-94562599D01*
X94018700Y-94599932D01*
X94027718Y-94691487D01*
X94029697Y-94711584D01*
X94073153Y-94854845D01*
X94143725Y-94986875D01*
X94214900Y-95073601D01*
X94238699Y-95102600D01*
X94267697Y-95126398D01*
X94512491Y-95371192D01*
X94468700Y-95591340D01*
X94468700Y-95883860D01*
X94525768Y-96170758D01*
X94637710Y-96441011D01*
X94800225Y-96684232D01*
X95007068Y-96891075D01*
X95181460Y-97007600D01*
X95007068Y-97124125D01*
X94800225Y-97330968D01*
X94637710Y-97574189D01*
X94525768Y-97844442D01*
X94468700Y-98131340D01*
X94468700Y-98423860D01*
X94525768Y-98710758D01*
X94637710Y-98981011D01*
X94800225Y-99224232D01*
X95007068Y-99431075D01*
X95181460Y-99547600D01*
X95007068Y-99664125D01*
X94800225Y-99870968D01*
X94637710Y-100114189D01*
X94525768Y-100384442D01*
X94468700Y-100671340D01*
X94468700Y-100963860D01*
X94525768Y-101250758D01*
X94637710Y-101521011D01*
X94800225Y-101764232D01*
X95007068Y-101971075D01*
X95250289Y-102133590D01*
X95520542Y-102245532D01*
X95807440Y-102302600D01*
X96099960Y-102302600D01*
X96172661Y-102288139D01*
X100499170Y-106614649D01*
X100526883Y-106648417D01*
X100560651Y-106676130D01*
X100560653Y-106676132D01*
X100591641Y-106701563D01*
X100661641Y-106759011D01*
X100815387Y-106841189D01*
X100931603Y-106876443D01*
X100982209Y-106891795D01*
X100997006Y-106893252D01*
X101112223Y-106904600D01*
X101112231Y-106904600D01*
X101155700Y-106908881D01*
X101199169Y-106904600D01*
X115835724Y-106904600D01*
X115821195Y-106926344D01*
X115743174Y-107114702D01*
X115703400Y-107314661D01*
X115703400Y-107518539D01*
X115743174Y-107718498D01*
X115821195Y-107906856D01*
X115934463Y-108076374D01*
X116078626Y-108220537D01*
X116248144Y-108333805D01*
X116436502Y-108411826D01*
X116636461Y-108451600D01*
X116840339Y-108451600D01*
X117040298Y-108411826D01*
X117228656Y-108333805D01*
X117398174Y-108220537D01*
X117542337Y-108076374D01*
X117655605Y-107906856D01*
X117733626Y-107718498D01*
X117773400Y-107518539D01*
X117773400Y-107314661D01*
X117733626Y-107114702D01*
X117655605Y-106926344D01*
X117641076Y-106904600D01*
X121660946Y-106904600D01*
X121709144Y-106936805D01*
X121897502Y-107014826D01*
X122097461Y-107054600D01*
X122301339Y-107054600D01*
X122501298Y-107014826D01*
X122689656Y-106936805D01*
X122859174Y-106823537D01*
X123003337Y-106679374D01*
X123116605Y-106509856D01*
X123194626Y-106321498D01*
X123234400Y-106121539D01*
X123234400Y-105917661D01*
X123217481Y-105832601D01*
X125535000Y-105832601D01*
X127247700Y-107545302D01*
X127247700Y-107607439D01*
X127287474Y-107807398D01*
X127365495Y-107995756D01*
X127478763Y-108165274D01*
X127622926Y-108309437D01*
X127792444Y-108422705D01*
X127980802Y-108500726D01*
X128180761Y-108540500D01*
X128384639Y-108540500D01*
X128584598Y-108500726D01*
X128772956Y-108422705D01*
X128942474Y-108309437D01*
X129086637Y-108165274D01*
X129199905Y-107995756D01*
X129277926Y-107807398D01*
X129317700Y-107607439D01*
X129317700Y-107403561D01*
X129277926Y-107203602D01*
X129199905Y-107015244D01*
X129086637Y-106845726D01*
X128942474Y-106701563D01*
X128772956Y-106588295D01*
X128584598Y-106510274D01*
X128384639Y-106470500D01*
X128322502Y-106470500D01*
X126984601Y-105132600D01*
X143009847Y-105132600D01*
X143048400Y-105136397D01*
X143086953Y-105132600D01*
X143086961Y-105132600D01*
X143202287Y-105121241D01*
X143350260Y-105076354D01*
X143486633Y-105003462D01*
X143606164Y-104905364D01*
X143630747Y-104875410D01*
X147673962Y-100832195D01*
X147864620Y-100870120D01*
X148157140Y-100870120D01*
X148444038Y-100813052D01*
X148714291Y-100701110D01*
X148957512Y-100538595D01*
X149164355Y-100331752D01*
X149326870Y-100088531D01*
X149438812Y-99818278D01*
X149495880Y-99531380D01*
X149495880Y-99238860D01*
X149438812Y-98951962D01*
X149326870Y-98681709D01*
X149164355Y-98438488D01*
X148957512Y-98231645D01*
X148783120Y-98115120D01*
X148957512Y-97998595D01*
X149164355Y-97791752D01*
X149326870Y-97548531D01*
X149438812Y-97278278D01*
X149495880Y-96991380D01*
X149495880Y-96698860D01*
X149438812Y-96411962D01*
X149326870Y-96141709D01*
X149164355Y-95898488D01*
X148957512Y-95691645D01*
X148783120Y-95575120D01*
X148957512Y-95458595D01*
X149164355Y-95251752D01*
X149326870Y-95008531D01*
X149438812Y-94738278D01*
X149495880Y-94451380D01*
X149495880Y-94158860D01*
X149457955Y-93968202D01*
X150238702Y-93187455D01*
X150268655Y-93162873D01*
X150366753Y-93043342D01*
X150439645Y-92906969D01*
X150451183Y-92868934D01*
X150484533Y-92758996D01*
X150495317Y-92649498D01*
X150495891Y-92643670D01*
X150495891Y-92643665D01*
X150499688Y-92605109D01*
X150495891Y-92566553D01*
X150495891Y-91020565D01*
X150499688Y-90982009D01*
X150495891Y-90943453D01*
X150495891Y-90943448D01*
X150488624Y-90869665D01*
X150484533Y-90828122D01*
X150439645Y-90680149D01*
X150424618Y-90652036D01*
X150366753Y-90543776D01*
X150268655Y-90424245D01*
X150238701Y-90399662D01*
X147408818Y-87569779D01*
X147384235Y-87539825D01*
X147264704Y-87441727D01*
X147128331Y-87368835D01*
X146980358Y-87323948D01*
X146865032Y-87312589D01*
X146865024Y-87312589D01*
X146826471Y-87308792D01*
X146787918Y-87312589D01*
X139401757Y-87312589D01*
X139439600Y-87122339D01*
X139439600Y-86918461D01*
X139399826Y-86718502D01*
X139321805Y-86530144D01*
X139208537Y-86360626D01*
X139064374Y-86216463D01*
X138894856Y-86103195D01*
X138706498Y-86025174D01*
X138506539Y-85985400D01*
X138302661Y-85985400D01*
X138102702Y-86025174D01*
X137914344Y-86103195D01*
X137744826Y-86216463D01*
X137600663Y-86360626D01*
X137487395Y-86530144D01*
X137409374Y-86718502D01*
X137369600Y-86918461D01*
X137369600Y-87122339D01*
X137407443Y-87312589D01*
X125438866Y-87312589D01*
X132489856Y-80261600D01*
X139643589Y-80261600D01*
X139662526Y-80280537D01*
X139832044Y-80393805D01*
X140020402Y-80471826D01*
X140220361Y-80511600D01*
X140424239Y-80511600D01*
X140624198Y-80471826D01*
X140812556Y-80393805D01*
X140982074Y-80280537D01*
X141126237Y-80136374D01*
X141239505Y-79966856D01*
X141317526Y-79778498D01*
X141357300Y-79578539D01*
X141357300Y-79374661D01*
X141317526Y-79174702D01*
X141239505Y-78986344D01*
X141126237Y-78816826D01*
X140982074Y-78672663D01*
X140812556Y-78559395D01*
X140624198Y-78481374D01*
X140424239Y-78441600D01*
X140220361Y-78441600D01*
X140020402Y-78481374D01*
X139832044Y-78559395D01*
X139662526Y-78672663D01*
X139643589Y-78691600D01*
X132203251Y-78691600D01*
X132164698Y-78687803D01*
X132126145Y-78691600D01*
X132126137Y-78691600D01*
X132010811Y-78702959D01*
X131862838Y-78747846D01*
X131726465Y-78820738D01*
X131666257Y-78870150D01*
X131636885Y-78894255D01*
X131636882Y-78894258D01*
X131606934Y-78918836D01*
X131582356Y-78948784D01*
X118412400Y-92118741D01*
X118412400Y-91346454D01*
X118416197Y-91307898D01*
X118412400Y-91269338D01*
X118412400Y-91269337D01*
X118404499Y-91189119D01*
X118401042Y-91154011D01*
X118356154Y-91006038D01*
X118340271Y-90976323D01*
X118283262Y-90869665D01*
X118225148Y-90798854D01*
X118209745Y-90780085D01*
X118209742Y-90780082D01*
X118185164Y-90750134D01*
X118155217Y-90725557D01*
X115382749Y-87953090D01*
X115358166Y-87923136D01*
X115238635Y-87825038D01*
X115102262Y-87752146D01*
X114954289Y-87707259D01*
X114838963Y-87695900D01*
X114838955Y-87695900D01*
X114800402Y-87692103D01*
X114761849Y-87695900D01*
X114407211Y-87695900D01*
X114388274Y-87676963D01*
X114218756Y-87563695D01*
X114030398Y-87485674D01*
X113830439Y-87445900D01*
X113626561Y-87445900D01*
X113426602Y-87485674D01*
X113238244Y-87563695D01*
X113068726Y-87676963D01*
X112924563Y-87821126D01*
X112811295Y-87990644D01*
X112733274Y-88179002D01*
X112713772Y-88277048D01*
X112692201Y-88274923D01*
X112654879Y-88278599D01*
X110014221Y-88278599D01*
X109976898Y-88274923D01*
X109939575Y-88278599D01*
X109939566Y-88278599D01*
X109827913Y-88289596D01*
X109684652Y-88333053D01*
X109552622Y-88403625D01*
X109510045Y-88438568D01*
X109436898Y-88498598D01*
X109413095Y-88527602D01*
X109222699Y-88717998D01*
X97381015Y-88717998D01*
X97343692Y-88714322D01*
X97306369Y-88717998D01*
X97306359Y-88717998D01*
X97194706Y-88728995D01*
X97051445Y-88772452D01*
X96919415Y-88843024D01*
X96862647Y-88889613D01*
X96803691Y-88937997D01*
X96779893Y-88966995D01*
X94267702Y-91479187D01*
X94238698Y-91502990D01*
X94205319Y-91543663D01*
X94143725Y-91618715D01*
X94108156Y-91685260D01*
X94073153Y-91750745D01*
X94029696Y-91894006D01*
X94018699Y-92005659D01*
X94018699Y-92005669D01*
X94015023Y-92042991D01*
X92788700Y-92042991D01*
X92788700Y-79446824D01*
X104484081Y-79446824D01*
X104616017Y-79741912D01*
X104956745Y-79912759D01*
X105324257Y-80013850D01*
X105704429Y-80041301D01*
X106082651Y-79994057D01*
X106444390Y-79873933D01*
X106691383Y-79741912D01*
X106736340Y-79641361D01*
X124199700Y-79641361D01*
X124199700Y-79845239D01*
X124239474Y-80045198D01*
X124317495Y-80233556D01*
X124430763Y-80403074D01*
X124574926Y-80547237D01*
X124744444Y-80660505D01*
X124932802Y-80738526D01*
X125132761Y-80778300D01*
X125336639Y-80778300D01*
X125536598Y-80738526D01*
X125724956Y-80660505D01*
X125894474Y-80547237D01*
X126038637Y-80403074D01*
X126151905Y-80233556D01*
X126229926Y-80045198D01*
X126269700Y-79845239D01*
X126269700Y-79641361D01*
X126239386Y-79488961D01*
X127704900Y-79488961D01*
X127704900Y-79692839D01*
X127744674Y-79892798D01*
X127822695Y-80081156D01*
X127935963Y-80250674D01*
X128080126Y-80394837D01*
X128249644Y-80508105D01*
X128438002Y-80586126D01*
X128637961Y-80625900D01*
X128841839Y-80625900D01*
X129041798Y-80586126D01*
X129230156Y-80508105D01*
X129399674Y-80394837D01*
X129543837Y-80250674D01*
X129657105Y-80081156D01*
X129735126Y-79892798D01*
X129774900Y-79692839D01*
X129774900Y-79488961D01*
X129735126Y-79289002D01*
X129657105Y-79100644D01*
X129543837Y-78931126D01*
X129399674Y-78786963D01*
X129230156Y-78673695D01*
X129041798Y-78595674D01*
X128841839Y-78555900D01*
X128637961Y-78555900D01*
X128438002Y-78595674D01*
X128249644Y-78673695D01*
X128080126Y-78786963D01*
X127935963Y-78931126D01*
X127822695Y-79100644D01*
X127744674Y-79289002D01*
X127704900Y-79488961D01*
X126239386Y-79488961D01*
X126229926Y-79441402D01*
X126151905Y-79253044D01*
X126038637Y-79083526D01*
X125894474Y-78939363D01*
X125724956Y-78826095D01*
X125536598Y-78748074D01*
X125336639Y-78708300D01*
X125132761Y-78708300D01*
X124932802Y-78748074D01*
X124744444Y-78826095D01*
X124574926Y-78939363D01*
X124430763Y-79083526D01*
X124317495Y-79253044D01*
X124239474Y-79441402D01*
X124199700Y-79641361D01*
X106736340Y-79641361D01*
X106823319Y-79446824D01*
X105653700Y-78277205D01*
X104484081Y-79446824D01*
X92788700Y-79446824D01*
X92788700Y-78148329D01*
X103709999Y-78148329D01*
X103757243Y-78526551D01*
X103877367Y-78888290D01*
X104009388Y-79135283D01*
X104304476Y-79267219D01*
X105474095Y-78097600D01*
X105833305Y-78097600D01*
X107002924Y-79267219D01*
X107298012Y-79135283D01*
X107468859Y-78794555D01*
X107569950Y-78427043D01*
X107597401Y-78046871D01*
X107550157Y-77668649D01*
X107430033Y-77306910D01*
X107298012Y-77059917D01*
X107002924Y-76927981D01*
X105833305Y-78097600D01*
X105474095Y-78097600D01*
X104304476Y-76927981D01*
X104009388Y-77059917D01*
X103838541Y-77400645D01*
X103737450Y-77768157D01*
X103709999Y-78148329D01*
X92788700Y-78148329D01*
X92788700Y-76748376D01*
X104484081Y-76748376D01*
X105653700Y-77917995D01*
X106823319Y-76748376D01*
X106691383Y-76453288D01*
X106350655Y-76282441D01*
X105983143Y-76181350D01*
X105602971Y-76153899D01*
X105224749Y-76201143D01*
X104863010Y-76321267D01*
X104616017Y-76453288D01*
X104484081Y-76748376D01*
X92788700Y-76748376D01*
X92788700Y-74907019D01*
X108418700Y-74907019D01*
X108418700Y-75288181D01*
X108493061Y-75662019D01*
X108638925Y-76014166D01*
X108850687Y-76331091D01*
X109120209Y-76600613D01*
X109437134Y-76812375D01*
X109789281Y-76958239D01*
X110163119Y-77032600D01*
X110544281Y-77032600D01*
X110918119Y-76958239D01*
X111270266Y-76812375D01*
X111587191Y-76600613D01*
X111856713Y-76331091D01*
X112068475Y-76014166D01*
X112214339Y-75662019D01*
X112288700Y-75288181D01*
X112288700Y-74907019D01*
X112253537Y-74730240D01*
X116652408Y-74730240D01*
X116652408Y-76430240D01*
X116664668Y-76554722D01*
X116700978Y-76674420D01*
X116759943Y-76784734D01*
X116839295Y-76881425D01*
X116935986Y-76960777D01*
X117046300Y-77019742D01*
X117165998Y-77056052D01*
X117290480Y-77068312D01*
X118990480Y-77068312D01*
X119114962Y-77056052D01*
X119234660Y-77019742D01*
X119344974Y-76960777D01*
X119441665Y-76881425D01*
X119521017Y-76784734D01*
X119579982Y-76674420D01*
X119601993Y-76601860D01*
X119733848Y-76733715D01*
X119977069Y-76896230D01*
X120247322Y-77008172D01*
X120534220Y-77065240D01*
X120826740Y-77065240D01*
X121113638Y-77008172D01*
X121383891Y-76896230D01*
X121627112Y-76733715D01*
X121833955Y-76526872D01*
X121996470Y-76283651D01*
X122008548Y-76254491D01*
X125672219Y-76254491D01*
X125769543Y-76528852D01*
X125918522Y-76778955D01*
X126113431Y-76995188D01*
X126346780Y-77169241D01*
X126609601Y-77294425D01*
X126756810Y-77339076D01*
X126986700Y-77217755D01*
X126986700Y-76024600D01*
X125792886Y-76024600D01*
X125672219Y-76254491D01*
X122008548Y-76254491D01*
X122108412Y-76013398D01*
X122165480Y-75726500D01*
X122165480Y-75540709D01*
X125672219Y-75540709D01*
X125792886Y-75770600D01*
X126986700Y-75770600D01*
X126986700Y-74577445D01*
X127240700Y-74577445D01*
X127240700Y-75770600D01*
X127260700Y-75770600D01*
X127260700Y-76024600D01*
X127240700Y-76024600D01*
X127240700Y-77217755D01*
X127470590Y-77339076D01*
X127617799Y-77294425D01*
X127880620Y-77169241D01*
X128113969Y-76995188D01*
X128189734Y-76911134D01*
X128214198Y-76991780D01*
X128273163Y-77102094D01*
X128352515Y-77198785D01*
X128449206Y-77278137D01*
X128559520Y-77337102D01*
X128679218Y-77373412D01*
X128803700Y-77385672D01*
X130503700Y-77385672D01*
X130628182Y-77373412D01*
X130747880Y-77337102D01*
X130858194Y-77278137D01*
X130954885Y-77198785D01*
X131034237Y-77102094D01*
X131093202Y-76991780D01*
X131129512Y-76872082D01*
X131141772Y-76747600D01*
X131141772Y-75047600D01*
X131129512Y-74923118D01*
X131093202Y-74803420D01*
X131034237Y-74693106D01*
X130954885Y-74596415D01*
X130858194Y-74517063D01*
X130747880Y-74458098D01*
X130628182Y-74421788D01*
X130503700Y-74409528D01*
X128803700Y-74409528D01*
X128679218Y-74421788D01*
X128559520Y-74458098D01*
X128449206Y-74517063D01*
X128352515Y-74596415D01*
X128273163Y-74693106D01*
X128214198Y-74803420D01*
X128189734Y-74884066D01*
X128113969Y-74800012D01*
X127880620Y-74625959D01*
X127617799Y-74500775D01*
X127470590Y-74456124D01*
X127240700Y-74577445D01*
X126986700Y-74577445D01*
X126756810Y-74456124D01*
X126609601Y-74500775D01*
X126346780Y-74625959D01*
X126113431Y-74800012D01*
X125918522Y-75016245D01*
X125769543Y-75266348D01*
X125672219Y-75540709D01*
X122165480Y-75540709D01*
X122165480Y-75433980D01*
X122108412Y-75147082D01*
X121996470Y-74876829D01*
X121833955Y-74633608D01*
X121627112Y-74426765D01*
X121383891Y-74264250D01*
X121343695Y-74247600D01*
X134665628Y-74247600D01*
X134665628Y-75947600D01*
X134677888Y-76072082D01*
X134714198Y-76191780D01*
X134773163Y-76302094D01*
X134852515Y-76398785D01*
X134949206Y-76478137D01*
X135059520Y-76537102D01*
X135179218Y-76573412D01*
X135303700Y-76585672D01*
X137003700Y-76585672D01*
X137128182Y-76573412D01*
X137247880Y-76537102D01*
X137358194Y-76478137D01*
X137454885Y-76398785D01*
X137534237Y-76302094D01*
X137593202Y-76191780D01*
X137617666Y-76111134D01*
X137693431Y-76195188D01*
X137926780Y-76369241D01*
X138189601Y-76494425D01*
X138336810Y-76539076D01*
X138566700Y-76417755D01*
X138566700Y-75224600D01*
X138820700Y-75224600D01*
X138820700Y-76417755D01*
X139050590Y-76539076D01*
X139197799Y-76494425D01*
X139460620Y-76369241D01*
X139693969Y-76195188D01*
X139888878Y-75978955D01*
X140037857Y-75728852D01*
X140135181Y-75454491D01*
X140014514Y-75224600D01*
X138820700Y-75224600D01*
X138566700Y-75224600D01*
X138546700Y-75224600D01*
X138546700Y-74970600D01*
X138566700Y-74970600D01*
X138566700Y-72684600D01*
X138820700Y-72684600D01*
X138820700Y-74970600D01*
X140014514Y-74970600D01*
X140135181Y-74740709D01*
X140037857Y-74466348D01*
X139888878Y-74216245D01*
X139693969Y-74000012D01*
X139462820Y-73827600D01*
X139693969Y-73655188D01*
X139888878Y-73438955D01*
X140037857Y-73188852D01*
X140135181Y-72914491D01*
X140014514Y-72684600D01*
X138820700Y-72684600D01*
X138566700Y-72684600D01*
X138546700Y-72684600D01*
X138546700Y-72430600D01*
X138566700Y-72430600D01*
X138566700Y-71237445D01*
X138820700Y-71237445D01*
X138820700Y-72430600D01*
X140014514Y-72430600D01*
X140135181Y-72200709D01*
X140037857Y-71926348D01*
X139888878Y-71676245D01*
X139693969Y-71460012D01*
X139460620Y-71285959D01*
X139197799Y-71160775D01*
X139050590Y-71116124D01*
X138820700Y-71237445D01*
X138566700Y-71237445D01*
X138336810Y-71116124D01*
X138189601Y-71160775D01*
X137926780Y-71285959D01*
X137693431Y-71460012D01*
X137498522Y-71676245D01*
X137428895Y-71793134D01*
X137307175Y-71610968D01*
X137100332Y-71404125D01*
X136857111Y-71241610D01*
X136586858Y-71129668D01*
X136299960Y-71072600D01*
X136007440Y-71072600D01*
X135720542Y-71129668D01*
X135450289Y-71241610D01*
X135207068Y-71404125D01*
X135000225Y-71610968D01*
X134837710Y-71854189D01*
X134725768Y-72124442D01*
X134668700Y-72411340D01*
X134668700Y-72703860D01*
X134725768Y-72990758D01*
X134837710Y-73261011D01*
X135000225Y-73504232D01*
X135132080Y-73636087D01*
X135059520Y-73658098D01*
X134949206Y-73717063D01*
X134852515Y-73796415D01*
X134773163Y-73893106D01*
X134714198Y-74003420D01*
X134677888Y-74123118D01*
X134665628Y-74247600D01*
X121343695Y-74247600D01*
X121113638Y-74152308D01*
X120826740Y-74095240D01*
X120534220Y-74095240D01*
X120247322Y-74152308D01*
X119977069Y-74264250D01*
X119733848Y-74426765D01*
X119601993Y-74558620D01*
X119579982Y-74486060D01*
X119521017Y-74375746D01*
X119441665Y-74279055D01*
X119344974Y-74199703D01*
X119234660Y-74140738D01*
X119114962Y-74104428D01*
X118990480Y-74092168D01*
X117290480Y-74092168D01*
X117165998Y-74104428D01*
X117046300Y-74140738D01*
X116935986Y-74199703D01*
X116839295Y-74279055D01*
X116759943Y-74375746D01*
X116700978Y-74486060D01*
X116664668Y-74605758D01*
X116652408Y-74730240D01*
X112253537Y-74730240D01*
X112214339Y-74533181D01*
X112068475Y-74181034D01*
X111856713Y-73864109D01*
X111587191Y-73594587D01*
X111270266Y-73382825D01*
X110918119Y-73236961D01*
X110544281Y-73162600D01*
X110163119Y-73162600D01*
X109789281Y-73236961D01*
X109437134Y-73382825D01*
X109120209Y-73594587D01*
X108850687Y-73864109D01*
X108638925Y-74181034D01*
X108493061Y-74533181D01*
X108418700Y-74907019D01*
X92788700Y-74907019D01*
X92788700Y-71153109D01*
X92812346Y-70911944D01*
X93768700Y-70911944D01*
X93768700Y-71283256D01*
X93841139Y-71647434D01*
X93983234Y-71990482D01*
X94189525Y-72299218D01*
X94452082Y-72561775D01*
X94760818Y-72768066D01*
X95103866Y-72910161D01*
X95468044Y-72982600D01*
X95839356Y-72982600D01*
X96203534Y-72910161D01*
X96546582Y-72768066D01*
X96855318Y-72561775D01*
X97117875Y-72299218D01*
X97324166Y-71990482D01*
X97466261Y-71647434D01*
X97538700Y-71283256D01*
X97538700Y-70911944D01*
X97515956Y-70797600D01*
X103715628Y-70797600D01*
X103715628Y-73397600D01*
X103727888Y-73522082D01*
X103764198Y-73641780D01*
X103823163Y-73752094D01*
X103902515Y-73848785D01*
X103999206Y-73928137D01*
X104109520Y-73987102D01*
X104229218Y-74023412D01*
X104353700Y-74035672D01*
X106953700Y-74035672D01*
X107078182Y-74023412D01*
X107197880Y-73987102D01*
X107308194Y-73928137D01*
X107404885Y-73848785D01*
X107484237Y-73752094D01*
X107543202Y-73641780D01*
X107579512Y-73522082D01*
X107591772Y-73397600D01*
X107591772Y-70911944D01*
X145768700Y-70911944D01*
X145768700Y-71283256D01*
X145841139Y-71647434D01*
X145983234Y-71990482D01*
X146189525Y-72299218D01*
X146452082Y-72561775D01*
X146760818Y-72768066D01*
X147103866Y-72910161D01*
X147468044Y-72982600D01*
X147839356Y-72982600D01*
X148203534Y-72910161D01*
X148546582Y-72768066D01*
X148855318Y-72561775D01*
X149117875Y-72299218D01*
X149324166Y-71990482D01*
X149466261Y-71647434D01*
X149538700Y-71283256D01*
X149538700Y-70911944D01*
X149466261Y-70547766D01*
X149324166Y-70204718D01*
X149117875Y-69895982D01*
X148855318Y-69633425D01*
X148546582Y-69427134D01*
X148203534Y-69285039D01*
X147839356Y-69212600D01*
X147468044Y-69212600D01*
X147103866Y-69285039D01*
X146760818Y-69427134D01*
X146452082Y-69633425D01*
X146189525Y-69895982D01*
X145983234Y-70204718D01*
X145841139Y-70547766D01*
X145768700Y-70911944D01*
X107591772Y-70911944D01*
X107591772Y-70797600D01*
X107579512Y-70673118D01*
X107543202Y-70553420D01*
X107484237Y-70443106D01*
X107404885Y-70346415D01*
X107308194Y-70267063D01*
X107197880Y-70208098D01*
X107078182Y-70171788D01*
X106953700Y-70159528D01*
X104353700Y-70159528D01*
X104229218Y-70171788D01*
X104109520Y-70208098D01*
X103999206Y-70267063D01*
X103902515Y-70346415D01*
X103823163Y-70443106D01*
X103764198Y-70553420D01*
X103727888Y-70673118D01*
X103715628Y-70797600D01*
X97515956Y-70797600D01*
X97466261Y-70547766D01*
X97324166Y-70204718D01*
X97117875Y-69895982D01*
X96855318Y-69633425D01*
X96546582Y-69427134D01*
X96203534Y-69285039D01*
X95839356Y-69212600D01*
X95468044Y-69212600D01*
X95103866Y-69285039D01*
X94760818Y-69427134D01*
X94452082Y-69633425D01*
X94189525Y-69895982D01*
X93983234Y-70204718D01*
X93841139Y-70547766D01*
X93768700Y-70911944D01*
X92812346Y-70911944D01*
X92848602Y-70542178D01*
X93009908Y-70007906D01*
X93271915Y-69515144D01*
X93624641Y-69082659D01*
X94054653Y-68726921D01*
X94545579Y-68461479D01*
X95078707Y-68296448D01*
X95686179Y-68232600D01*
X147598191Y-68232600D01*
X148209122Y-68292502D01*
%TA.AperFunction,Conductor*%
D20*
G36*
X148209122Y-68292502D02*
G01*
X148743394Y-68453808D01*
X149236156Y-68715815D01*
X149668641Y-69068541D01*
X150024379Y-69498553D01*
X150289821Y-69989479D01*
X150454852Y-70522607D01*
X150518700Y-71130079D01*
X150518701Y-121042081D01*
X150458798Y-121653021D01*
X150297491Y-122187295D01*
X150035489Y-122680050D01*
X149682759Y-123112541D01*
X149252744Y-123468280D01*
X148761822Y-123733721D01*
X148228693Y-123898752D01*
X147621222Y-123962600D01*
X95709209Y-123962600D01*
X95098279Y-123902698D01*
X94564005Y-123741391D01*
X94071250Y-123479389D01*
X93638759Y-123126659D01*
X93283020Y-122696644D01*
X93017579Y-122205722D01*
X92852548Y-121672593D01*
X92788700Y-121065122D01*
X92788700Y-120911944D01*
X93768700Y-120911944D01*
X93768700Y-121283256D01*
X93841139Y-121647434D01*
X93983234Y-121990482D01*
X94189525Y-122299218D01*
X94452082Y-122561775D01*
X94760818Y-122768066D01*
X95103866Y-122910161D01*
X95468044Y-122982600D01*
X95839356Y-122982600D01*
X96203534Y-122910161D01*
X96546582Y-122768066D01*
X96855318Y-122561775D01*
X97117875Y-122299218D01*
X97324166Y-121990482D01*
X97466261Y-121647434D01*
X97538700Y-121283256D01*
X97538700Y-120911944D01*
X145768700Y-120911944D01*
X145768700Y-121283256D01*
X145841139Y-121647434D01*
X145983234Y-121990482D01*
X146189525Y-122299218D01*
X146452082Y-122561775D01*
X146760818Y-122768066D01*
X147103866Y-122910161D01*
X147468044Y-122982600D01*
X147839356Y-122982600D01*
X148203534Y-122910161D01*
X148546582Y-122768066D01*
X148855318Y-122561775D01*
X149117875Y-122299218D01*
X149324166Y-121990482D01*
X149466261Y-121647434D01*
X149538700Y-121283256D01*
X149538700Y-120911944D01*
X149466261Y-120547766D01*
X149324166Y-120204718D01*
X149117875Y-119895982D01*
X148855318Y-119633425D01*
X148546582Y-119427134D01*
X148203534Y-119285039D01*
X147839356Y-119212600D01*
X147468044Y-119212600D01*
X147103866Y-119285039D01*
X146760818Y-119427134D01*
X146452082Y-119633425D01*
X146189525Y-119895982D01*
X145983234Y-120204718D01*
X145841139Y-120547766D01*
X145768700Y-120911944D01*
X97538700Y-120911944D01*
X97466261Y-120547766D01*
X97324166Y-120204718D01*
X97117875Y-119895982D01*
X96855318Y-119633425D01*
X96546582Y-119427134D01*
X96203534Y-119285039D01*
X95839356Y-119212600D01*
X95468044Y-119212600D01*
X95103866Y-119285039D01*
X94760818Y-119427134D01*
X94452082Y-119633425D01*
X94189525Y-119895982D01*
X93983234Y-120204718D01*
X93841139Y-120547766D01*
X93768700Y-120911944D01*
X92788700Y-120911944D01*
X92788700Y-117933100D01*
X114920128Y-117933100D01*
X114920128Y-119633100D01*
X114932388Y-119757582D01*
X114968698Y-119877280D01*
X115027663Y-119987594D01*
X115107015Y-120084285D01*
X115203706Y-120163637D01*
X115314020Y-120222602D01*
X115433718Y-120258912D01*
X115558200Y-120271172D01*
X117258200Y-120271172D01*
X117382682Y-120258912D01*
X117502380Y-120222602D01*
X117612694Y-120163637D01*
X117709385Y-120084285D01*
X117788737Y-119987594D01*
X117847702Y-119877280D01*
X117869713Y-119804720D01*
X118001568Y-119936575D01*
X118244789Y-120099090D01*
X118515042Y-120211032D01*
X118801940Y-120268100D01*
X119094460Y-120268100D01*
X119381358Y-120211032D01*
X119651611Y-120099090D01*
X119894832Y-119936575D01*
X120101675Y-119729732D01*
X120218200Y-119555340D01*
X120334725Y-119729732D01*
X120541568Y-119936575D01*
X120784789Y-120099090D01*
X121055042Y-120211032D01*
X121341940Y-120268100D01*
X121634460Y-120268100D01*
X121921358Y-120211032D01*
X122191611Y-120099090D01*
X122434832Y-119936575D01*
X122641675Y-119729732D01*
X122758200Y-119555340D01*
X122874725Y-119729732D01*
X123081568Y-119936575D01*
X123324789Y-120099090D01*
X123595042Y-120211032D01*
X123881940Y-120268100D01*
X124174460Y-120268100D01*
X124461358Y-120211032D01*
X124731611Y-120099090D01*
X124974832Y-119936575D01*
X125181675Y-119729732D01*
X125344190Y-119486511D01*
X125456132Y-119216258D01*
X125513200Y-118929360D01*
X125513200Y-118636840D01*
X125456132Y-118349942D01*
X125344190Y-118079689D01*
X125181675Y-117836468D01*
X124974832Y-117629625D01*
X124731611Y-117467110D01*
X124461358Y-117355168D01*
X124174460Y-117298100D01*
X123881940Y-117298100D01*
X123595042Y-117355168D01*
X123324789Y-117467110D01*
X123081568Y-117629625D01*
X122874725Y-117836468D01*
X122758200Y-118010860D01*
X122641675Y-117836468D01*
X122434832Y-117629625D01*
X122191611Y-117467110D01*
X121921358Y-117355168D01*
X121634460Y-117298100D01*
X121341940Y-117298100D01*
X121055042Y-117355168D01*
X120784789Y-117467110D01*
X120541568Y-117629625D01*
X120334725Y-117836468D01*
X120218200Y-118010860D01*
X120101675Y-117836468D01*
X119894832Y-117629625D01*
X119651611Y-117467110D01*
X119381358Y-117355168D01*
X119094460Y-117298100D01*
X118801940Y-117298100D01*
X118515042Y-117355168D01*
X118244789Y-117467110D01*
X118001568Y-117629625D01*
X117869713Y-117761480D01*
X117847702Y-117688920D01*
X117788737Y-117578606D01*
X117709385Y-117481915D01*
X117612694Y-117402563D01*
X117502380Y-117343598D01*
X117382682Y-117307288D01*
X117258200Y-117295028D01*
X115558200Y-117295028D01*
X115433718Y-117307288D01*
X115314020Y-117343598D01*
X115203706Y-117402563D01*
X115107015Y-117481915D01*
X115027663Y-117578606D01*
X114968698Y-117688920D01*
X114932388Y-117808618D01*
X114920128Y-117933100D01*
X92788700Y-117933100D01*
X92788700Y-107368312D01*
X98433000Y-107368312D01*
X98433000Y-107591888D01*
X98476617Y-107811167D01*
X98562176Y-108017724D01*
X98686388Y-108203620D01*
X98844480Y-108361712D01*
X98960075Y-108438950D01*
X98844480Y-108516188D01*
X98686388Y-108674280D01*
X98562176Y-108860176D01*
X98476617Y-109066733D01*
X98433000Y-109286012D01*
X98433000Y-109509588D01*
X98476617Y-109728867D01*
X98562176Y-109935424D01*
X98686388Y-110121320D01*
X98844480Y-110279412D01*
X99030376Y-110403624D01*
X99236933Y-110489183D01*
X99304888Y-110502700D01*
X99236933Y-110516217D01*
X99030376Y-110601776D01*
X98844480Y-110725988D01*
X98686388Y-110884080D01*
X98562176Y-111069976D01*
X98476617Y-111276533D01*
X98433000Y-111495812D01*
X98433000Y-111719388D01*
X98476617Y-111938667D01*
X98562176Y-112145224D01*
X98686388Y-112331120D01*
X98844480Y-112489212D01*
X99030376Y-112613424D01*
X99236933Y-112698983D01*
X99456212Y-112742600D01*
X99679788Y-112742600D01*
X99899067Y-112698983D01*
X100105624Y-112613424D01*
X100291520Y-112489212D01*
X100449612Y-112331120D01*
X100573824Y-112145224D01*
X100659383Y-111938667D01*
X100703000Y-111719388D01*
X100703000Y-111495812D01*
X100659383Y-111276533D01*
X100573824Y-111069976D01*
X100449612Y-110884080D01*
X100291520Y-110725988D01*
X100105624Y-110601776D01*
X99899067Y-110516217D01*
X99831112Y-110502700D01*
X99899067Y-110489183D01*
X100105624Y-110403624D01*
X100291520Y-110279412D01*
X100449612Y-110121320D01*
X100573824Y-109935424D01*
X100659383Y-109728867D01*
X100703000Y-109509588D01*
X100703000Y-109286012D01*
X100659383Y-109066733D01*
X100573824Y-108860176D01*
X100449612Y-108674280D01*
X100291520Y-108516188D01*
X100175925Y-108438950D01*
X100291520Y-108361712D01*
X100449612Y-108203620D01*
X100573824Y-108017724D01*
X100659383Y-107811167D01*
X100703000Y-107591888D01*
X100703000Y-107368312D01*
X100659383Y-107149033D01*
X100573824Y-106942476D01*
X100449612Y-106756580D01*
X100291520Y-106598488D01*
X100105624Y-106474276D01*
X99899067Y-106388717D01*
X99679788Y-106345100D01*
X99456212Y-106345100D01*
X99236933Y-106388717D01*
X99030376Y-106474276D01*
X98844480Y-106598488D01*
X98686388Y-106756580D01*
X98562176Y-106942476D01*
X98476617Y-107149033D01*
X98433000Y-107368312D01*
X92788700Y-107368312D01*
X92788700Y-92042991D01*
X94015023Y-92042991D01*
X94018699Y-92080314D01*
X94018700Y-94525267D01*
X94015023Y-94562599D01*
X94018700Y-94599932D01*
X94027718Y-94691487D01*
X94029697Y-94711584D01*
X94073153Y-94854845D01*
X94143725Y-94986875D01*
X94214900Y-95073601D01*
X94238699Y-95102600D01*
X94267697Y-95126398D01*
X94512491Y-95371192D01*
X94468700Y-95591340D01*
X94468700Y-95883860D01*
X94525768Y-96170758D01*
X94637710Y-96441011D01*
X94800225Y-96684232D01*
X95007068Y-96891075D01*
X95181460Y-97007600D01*
X95007068Y-97124125D01*
X94800225Y-97330968D01*
X94637710Y-97574189D01*
X94525768Y-97844442D01*
X94468700Y-98131340D01*
X94468700Y-98423860D01*
X94525768Y-98710758D01*
X94637710Y-98981011D01*
X94800225Y-99224232D01*
X95007068Y-99431075D01*
X95181460Y-99547600D01*
X95007068Y-99664125D01*
X94800225Y-99870968D01*
X94637710Y-100114189D01*
X94525768Y-100384442D01*
X94468700Y-100671340D01*
X94468700Y-100963860D01*
X94525768Y-101250758D01*
X94637710Y-101521011D01*
X94800225Y-101764232D01*
X95007068Y-101971075D01*
X95250289Y-102133590D01*
X95520542Y-102245532D01*
X95807440Y-102302600D01*
X96099960Y-102302600D01*
X96172661Y-102288139D01*
X100499170Y-106614649D01*
X100526883Y-106648417D01*
X100560651Y-106676130D01*
X100560653Y-106676132D01*
X100591641Y-106701563D01*
X100661641Y-106759011D01*
X100815387Y-106841189D01*
X100931603Y-106876443D01*
X100982209Y-106891795D01*
X100997006Y-106893252D01*
X101112223Y-106904600D01*
X101112231Y-106904600D01*
X101155700Y-106908881D01*
X101199169Y-106904600D01*
X115835724Y-106904600D01*
X115821195Y-106926344D01*
X115743174Y-107114702D01*
X115703400Y-107314661D01*
X115703400Y-107518539D01*
X115743174Y-107718498D01*
X115821195Y-107906856D01*
X115934463Y-108076374D01*
X116078626Y-108220537D01*
X116248144Y-108333805D01*
X116436502Y-108411826D01*
X116636461Y-108451600D01*
X116840339Y-108451600D01*
X117040298Y-108411826D01*
X117228656Y-108333805D01*
X117398174Y-108220537D01*
X117542337Y-108076374D01*
X117655605Y-107906856D01*
X117733626Y-107718498D01*
X117773400Y-107518539D01*
X117773400Y-107314661D01*
X117733626Y-107114702D01*
X117655605Y-106926344D01*
X117641076Y-106904600D01*
X121660946Y-106904600D01*
X121709144Y-106936805D01*
X121897502Y-107014826D01*
X122097461Y-107054600D01*
X122301339Y-107054600D01*
X122501298Y-107014826D01*
X122689656Y-106936805D01*
X122859174Y-106823537D01*
X123003337Y-106679374D01*
X123116605Y-106509856D01*
X123194626Y-106321498D01*
X123234400Y-106121539D01*
X123234400Y-105917661D01*
X123217481Y-105832601D01*
X125535000Y-105832601D01*
X127247700Y-107545302D01*
X127247700Y-107607439D01*
X127287474Y-107807398D01*
X127365495Y-107995756D01*
X127478763Y-108165274D01*
X127622926Y-108309437D01*
X127792444Y-108422705D01*
X127980802Y-108500726D01*
X128180761Y-108540500D01*
X128384639Y-108540500D01*
X128584598Y-108500726D01*
X128772956Y-108422705D01*
X128942474Y-108309437D01*
X129086637Y-108165274D01*
X129199905Y-107995756D01*
X129277926Y-107807398D01*
X129317700Y-107607439D01*
X129317700Y-107403561D01*
X129277926Y-107203602D01*
X129199905Y-107015244D01*
X129086637Y-106845726D01*
X128942474Y-106701563D01*
X128772956Y-106588295D01*
X128584598Y-106510274D01*
X128384639Y-106470500D01*
X128322502Y-106470500D01*
X126984601Y-105132600D01*
X143009847Y-105132600D01*
X143048400Y-105136397D01*
X143086953Y-105132600D01*
X143086961Y-105132600D01*
X143202287Y-105121241D01*
X143350260Y-105076354D01*
X143486633Y-105003462D01*
X143606164Y-104905364D01*
X143630747Y-104875410D01*
X147673962Y-100832195D01*
X147864620Y-100870120D01*
X148157140Y-100870120D01*
X148444038Y-100813052D01*
X148714291Y-100701110D01*
X148957512Y-100538595D01*
X149164355Y-100331752D01*
X149326870Y-100088531D01*
X149438812Y-99818278D01*
X149495880Y-99531380D01*
X149495880Y-99238860D01*
X149438812Y-98951962D01*
X149326870Y-98681709D01*
X149164355Y-98438488D01*
X148957512Y-98231645D01*
X148783120Y-98115120D01*
X148957512Y-97998595D01*
X149164355Y-97791752D01*
X149326870Y-97548531D01*
X149438812Y-97278278D01*
X149495880Y-96991380D01*
X149495880Y-96698860D01*
X149438812Y-96411962D01*
X149326870Y-96141709D01*
X149164355Y-95898488D01*
X148957512Y-95691645D01*
X148783120Y-95575120D01*
X148957512Y-95458595D01*
X149164355Y-95251752D01*
X149326870Y-95008531D01*
X149438812Y-94738278D01*
X149495880Y-94451380D01*
X149495880Y-94158860D01*
X149457955Y-93968202D01*
X150238702Y-93187455D01*
X150268655Y-93162873D01*
X150366753Y-93043342D01*
X150439645Y-92906969D01*
X150451183Y-92868934D01*
X150484533Y-92758996D01*
X150495317Y-92649498D01*
X150495891Y-92643670D01*
X150495891Y-92643665D01*
X150499688Y-92605109D01*
X150495891Y-92566553D01*
X150495891Y-91020565D01*
X150499688Y-90982009D01*
X150495891Y-90943453D01*
X150495891Y-90943448D01*
X150488624Y-90869665D01*
X150484533Y-90828122D01*
X150439645Y-90680149D01*
X150424618Y-90652036D01*
X150366753Y-90543776D01*
X150268655Y-90424245D01*
X150238701Y-90399662D01*
X147408818Y-87569779D01*
X147384235Y-87539825D01*
X147264704Y-87441727D01*
X147128331Y-87368835D01*
X146980358Y-87323948D01*
X146865032Y-87312589D01*
X146865024Y-87312589D01*
X146826471Y-87308792D01*
X146787918Y-87312589D01*
X139401757Y-87312589D01*
X139439600Y-87122339D01*
X139439600Y-86918461D01*
X139399826Y-86718502D01*
X139321805Y-86530144D01*
X139208537Y-86360626D01*
X139064374Y-86216463D01*
X138894856Y-86103195D01*
X138706498Y-86025174D01*
X138506539Y-85985400D01*
X138302661Y-85985400D01*
X138102702Y-86025174D01*
X137914344Y-86103195D01*
X137744826Y-86216463D01*
X137600663Y-86360626D01*
X137487395Y-86530144D01*
X137409374Y-86718502D01*
X137369600Y-86918461D01*
X137369600Y-87122339D01*
X137407443Y-87312589D01*
X125438866Y-87312589D01*
X132489856Y-80261600D01*
X139643589Y-80261600D01*
X139662526Y-80280537D01*
X139832044Y-80393805D01*
X140020402Y-80471826D01*
X140220361Y-80511600D01*
X140424239Y-80511600D01*
X140624198Y-80471826D01*
X140812556Y-80393805D01*
X140982074Y-80280537D01*
X141126237Y-80136374D01*
X141239505Y-79966856D01*
X141317526Y-79778498D01*
X141357300Y-79578539D01*
X141357300Y-79374661D01*
X141317526Y-79174702D01*
X141239505Y-78986344D01*
X141126237Y-78816826D01*
X140982074Y-78672663D01*
X140812556Y-78559395D01*
X140624198Y-78481374D01*
X140424239Y-78441600D01*
X140220361Y-78441600D01*
X140020402Y-78481374D01*
X139832044Y-78559395D01*
X139662526Y-78672663D01*
X139643589Y-78691600D01*
X132203251Y-78691600D01*
X132164698Y-78687803D01*
X132126145Y-78691600D01*
X132126137Y-78691600D01*
X132010811Y-78702959D01*
X131862838Y-78747846D01*
X131726465Y-78820738D01*
X131666257Y-78870150D01*
X131636885Y-78894255D01*
X131636882Y-78894258D01*
X131606934Y-78918836D01*
X131582356Y-78948784D01*
X118412400Y-92118741D01*
X118412400Y-91346454D01*
X118416197Y-91307898D01*
X118412400Y-91269338D01*
X118412400Y-91269337D01*
X118404499Y-91189119D01*
X118401042Y-91154011D01*
X118356154Y-91006038D01*
X118340271Y-90976323D01*
X118283262Y-90869665D01*
X118225148Y-90798854D01*
X118209745Y-90780085D01*
X118209742Y-90780082D01*
X118185164Y-90750134D01*
X118155217Y-90725557D01*
X115382749Y-87953090D01*
X115358166Y-87923136D01*
X115238635Y-87825038D01*
X115102262Y-87752146D01*
X114954289Y-87707259D01*
X114838963Y-87695900D01*
X114838955Y-87695900D01*
X114800402Y-87692103D01*
X114761849Y-87695900D01*
X114407211Y-87695900D01*
X114388274Y-87676963D01*
X114218756Y-87563695D01*
X114030398Y-87485674D01*
X113830439Y-87445900D01*
X113626561Y-87445900D01*
X113426602Y-87485674D01*
X113238244Y-87563695D01*
X113068726Y-87676963D01*
X112924563Y-87821126D01*
X112811295Y-87990644D01*
X112733274Y-88179002D01*
X112713772Y-88277048D01*
X112692201Y-88274923D01*
X112654879Y-88278599D01*
X110014221Y-88278599D01*
X109976898Y-88274923D01*
X109939575Y-88278599D01*
X109939566Y-88278599D01*
X109827913Y-88289596D01*
X109684652Y-88333053D01*
X109552622Y-88403625D01*
X109510045Y-88438568D01*
X109436898Y-88498598D01*
X109413095Y-88527602D01*
X109222699Y-88717998D01*
X97381015Y-88717998D01*
X97343692Y-88714322D01*
X97306369Y-88717998D01*
X97306359Y-88717998D01*
X97194706Y-88728995D01*
X97051445Y-88772452D01*
X96919415Y-88843024D01*
X96862647Y-88889613D01*
X96803691Y-88937997D01*
X96779893Y-88966995D01*
X94267702Y-91479187D01*
X94238698Y-91502990D01*
X94205319Y-91543663D01*
X94143725Y-91618715D01*
X94108156Y-91685260D01*
X94073153Y-91750745D01*
X94029696Y-91894006D01*
X94018699Y-92005659D01*
X94018699Y-92005669D01*
X94015023Y-92042991D01*
X92788700Y-92042991D01*
X92788700Y-79446824D01*
X104484081Y-79446824D01*
X104616017Y-79741912D01*
X104956745Y-79912759D01*
X105324257Y-80013850D01*
X105704429Y-80041301D01*
X106082651Y-79994057D01*
X106444390Y-79873933D01*
X106691383Y-79741912D01*
X106736340Y-79641361D01*
X124199700Y-79641361D01*
X124199700Y-79845239D01*
X124239474Y-80045198D01*
X124317495Y-80233556D01*
X124430763Y-80403074D01*
X124574926Y-80547237D01*
X124744444Y-80660505D01*
X124932802Y-80738526D01*
X125132761Y-80778300D01*
X125336639Y-80778300D01*
X125536598Y-80738526D01*
X125724956Y-80660505D01*
X125894474Y-80547237D01*
X126038637Y-80403074D01*
X126151905Y-80233556D01*
X126229926Y-80045198D01*
X126269700Y-79845239D01*
X126269700Y-79641361D01*
X126239386Y-79488961D01*
X127704900Y-79488961D01*
X127704900Y-79692839D01*
X127744674Y-79892798D01*
X127822695Y-80081156D01*
X127935963Y-80250674D01*
X128080126Y-80394837D01*
X128249644Y-80508105D01*
X128438002Y-80586126D01*
X128637961Y-80625900D01*
X128841839Y-80625900D01*
X129041798Y-80586126D01*
X129230156Y-80508105D01*
X129399674Y-80394837D01*
X129543837Y-80250674D01*
X129657105Y-80081156D01*
X129735126Y-79892798D01*
X129774900Y-79692839D01*
X129774900Y-79488961D01*
X129735126Y-79289002D01*
X129657105Y-79100644D01*
X129543837Y-78931126D01*
X129399674Y-78786963D01*
X129230156Y-78673695D01*
X129041798Y-78595674D01*
X128841839Y-78555900D01*
X128637961Y-78555900D01*
X128438002Y-78595674D01*
X128249644Y-78673695D01*
X128080126Y-78786963D01*
X127935963Y-78931126D01*
X127822695Y-79100644D01*
X127744674Y-79289002D01*
X127704900Y-79488961D01*
X126239386Y-79488961D01*
X126229926Y-79441402D01*
X126151905Y-79253044D01*
X126038637Y-79083526D01*
X125894474Y-78939363D01*
X125724956Y-78826095D01*
X125536598Y-78748074D01*
X125336639Y-78708300D01*
X125132761Y-78708300D01*
X124932802Y-78748074D01*
X124744444Y-78826095D01*
X124574926Y-78939363D01*
X124430763Y-79083526D01*
X124317495Y-79253044D01*
X124239474Y-79441402D01*
X124199700Y-79641361D01*
X106736340Y-79641361D01*
X106823319Y-79446824D01*
X105653700Y-78277205D01*
X104484081Y-79446824D01*
X92788700Y-79446824D01*
X92788700Y-78148329D01*
X103709999Y-78148329D01*
X103757243Y-78526551D01*
X103877367Y-78888290D01*
X104009388Y-79135283D01*
X104304476Y-79267219D01*
X105474095Y-78097600D01*
X105833305Y-78097600D01*
X107002924Y-79267219D01*
X107298012Y-79135283D01*
X107468859Y-78794555D01*
X107569950Y-78427043D01*
X107597401Y-78046871D01*
X107550157Y-77668649D01*
X107430033Y-77306910D01*
X107298012Y-77059917D01*
X107002924Y-76927981D01*
X105833305Y-78097600D01*
X105474095Y-78097600D01*
X104304476Y-76927981D01*
X104009388Y-77059917D01*
X103838541Y-77400645D01*
X103737450Y-77768157D01*
X103709999Y-78148329D01*
X92788700Y-78148329D01*
X92788700Y-76748376D01*
X104484081Y-76748376D01*
X105653700Y-77917995D01*
X106823319Y-76748376D01*
X106691383Y-76453288D01*
X106350655Y-76282441D01*
X105983143Y-76181350D01*
X105602971Y-76153899D01*
X105224749Y-76201143D01*
X104863010Y-76321267D01*
X104616017Y-76453288D01*
X104484081Y-76748376D01*
X92788700Y-76748376D01*
X92788700Y-74907019D01*
X108418700Y-74907019D01*
X108418700Y-75288181D01*
X108493061Y-75662019D01*
X108638925Y-76014166D01*
X108850687Y-76331091D01*
X109120209Y-76600613D01*
X109437134Y-76812375D01*
X109789281Y-76958239D01*
X110163119Y-77032600D01*
X110544281Y-77032600D01*
X110918119Y-76958239D01*
X111270266Y-76812375D01*
X111587191Y-76600613D01*
X111856713Y-76331091D01*
X112068475Y-76014166D01*
X112214339Y-75662019D01*
X112288700Y-75288181D01*
X112288700Y-74907019D01*
X112253537Y-74730240D01*
X116652408Y-74730240D01*
X116652408Y-76430240D01*
X116664668Y-76554722D01*
X116700978Y-76674420D01*
X116759943Y-76784734D01*
X116839295Y-76881425D01*
X116935986Y-76960777D01*
X117046300Y-77019742D01*
X117165998Y-77056052D01*
X117290480Y-77068312D01*
X118990480Y-77068312D01*
X119114962Y-77056052D01*
X119234660Y-77019742D01*
X119344974Y-76960777D01*
X119441665Y-76881425D01*
X119521017Y-76784734D01*
X119579982Y-76674420D01*
X119601993Y-76601860D01*
X119733848Y-76733715D01*
X119977069Y-76896230D01*
X120247322Y-77008172D01*
X120534220Y-77065240D01*
X120826740Y-77065240D01*
X121113638Y-77008172D01*
X121383891Y-76896230D01*
X121627112Y-76733715D01*
X121833955Y-76526872D01*
X121996470Y-76283651D01*
X122008548Y-76254491D01*
X125672219Y-76254491D01*
X125769543Y-76528852D01*
X125918522Y-76778955D01*
X126113431Y-76995188D01*
X126346780Y-77169241D01*
X126609601Y-77294425D01*
X126756810Y-77339076D01*
X126986700Y-77217755D01*
X126986700Y-76024600D01*
X125792886Y-76024600D01*
X125672219Y-76254491D01*
X122008548Y-76254491D01*
X122108412Y-76013398D01*
X122165480Y-75726500D01*
X122165480Y-75540709D01*
X125672219Y-75540709D01*
X125792886Y-75770600D01*
X126986700Y-75770600D01*
X126986700Y-74577445D01*
X127240700Y-74577445D01*
X127240700Y-75770600D01*
X127260700Y-75770600D01*
X127260700Y-76024600D01*
X127240700Y-76024600D01*
X127240700Y-77217755D01*
X127470590Y-77339076D01*
X127617799Y-77294425D01*
X127880620Y-77169241D01*
X128113969Y-76995188D01*
X128189734Y-76911134D01*
X128214198Y-76991780D01*
X128273163Y-77102094D01*
X128352515Y-77198785D01*
X128449206Y-77278137D01*
X128559520Y-77337102D01*
X128679218Y-77373412D01*
X128803700Y-77385672D01*
X130503700Y-77385672D01*
X130628182Y-77373412D01*
X130747880Y-77337102D01*
X130858194Y-77278137D01*
X130954885Y-77198785D01*
X131034237Y-77102094D01*
X131093202Y-76991780D01*
X131129512Y-76872082D01*
X131141772Y-76747600D01*
X131141772Y-75047600D01*
X131129512Y-74923118D01*
X131093202Y-74803420D01*
X131034237Y-74693106D01*
X130954885Y-74596415D01*
X130858194Y-74517063D01*
X130747880Y-74458098D01*
X130628182Y-74421788D01*
X130503700Y-74409528D01*
X128803700Y-74409528D01*
X128679218Y-74421788D01*
X128559520Y-74458098D01*
X128449206Y-74517063D01*
X128352515Y-74596415D01*
X128273163Y-74693106D01*
X128214198Y-74803420D01*
X128189734Y-74884066D01*
X128113969Y-74800012D01*
X127880620Y-74625959D01*
X127617799Y-74500775D01*
X127470590Y-74456124D01*
X127240700Y-74577445D01*
X126986700Y-74577445D01*
X126756810Y-74456124D01*
X126609601Y-74500775D01*
X126346780Y-74625959D01*
X126113431Y-74800012D01*
X125918522Y-75016245D01*
X125769543Y-75266348D01*
X125672219Y-75540709D01*
X122165480Y-75540709D01*
X122165480Y-75433980D01*
X122108412Y-75147082D01*
X121996470Y-74876829D01*
X121833955Y-74633608D01*
X121627112Y-74426765D01*
X121383891Y-74264250D01*
X121343695Y-74247600D01*
X134665628Y-74247600D01*
X134665628Y-75947600D01*
X134677888Y-76072082D01*
X134714198Y-76191780D01*
X134773163Y-76302094D01*
X134852515Y-76398785D01*
X134949206Y-76478137D01*
X135059520Y-76537102D01*
X135179218Y-76573412D01*
X135303700Y-76585672D01*
X137003700Y-76585672D01*
X137128182Y-76573412D01*
X137247880Y-76537102D01*
X137358194Y-76478137D01*
X137454885Y-76398785D01*
X137534237Y-76302094D01*
X137593202Y-76191780D01*
X137617666Y-76111134D01*
X137693431Y-76195188D01*
X137926780Y-76369241D01*
X138189601Y-76494425D01*
X138336810Y-76539076D01*
X138566700Y-76417755D01*
X138566700Y-75224600D01*
X138820700Y-75224600D01*
X138820700Y-76417755D01*
X139050590Y-76539076D01*
X139197799Y-76494425D01*
X139460620Y-76369241D01*
X139693969Y-76195188D01*
X139888878Y-75978955D01*
X140037857Y-75728852D01*
X140135181Y-75454491D01*
X140014514Y-75224600D01*
X138820700Y-75224600D01*
X138566700Y-75224600D01*
X138546700Y-75224600D01*
X138546700Y-74970600D01*
X138566700Y-74970600D01*
X138566700Y-72684600D01*
X138820700Y-72684600D01*
X138820700Y-74970600D01*
X140014514Y-74970600D01*
X140135181Y-74740709D01*
X140037857Y-74466348D01*
X139888878Y-74216245D01*
X139693969Y-74000012D01*
X139462820Y-73827600D01*
X139693969Y-73655188D01*
X139888878Y-73438955D01*
X140037857Y-73188852D01*
X140135181Y-72914491D01*
X140014514Y-72684600D01*
X138820700Y-72684600D01*
X138566700Y-72684600D01*
X138546700Y-72684600D01*
X138546700Y-72430600D01*
X138566700Y-72430600D01*
X138566700Y-71237445D01*
X138820700Y-71237445D01*
X138820700Y-72430600D01*
X140014514Y-72430600D01*
X140135181Y-72200709D01*
X140037857Y-71926348D01*
X139888878Y-71676245D01*
X139693969Y-71460012D01*
X139460620Y-71285959D01*
X139197799Y-71160775D01*
X139050590Y-71116124D01*
X138820700Y-71237445D01*
X138566700Y-71237445D01*
X138336810Y-71116124D01*
X138189601Y-71160775D01*
X137926780Y-71285959D01*
X137693431Y-71460012D01*
X137498522Y-71676245D01*
X137428895Y-71793134D01*
X137307175Y-71610968D01*
X137100332Y-71404125D01*
X136857111Y-71241610D01*
X136586858Y-71129668D01*
X136299960Y-71072600D01*
X136007440Y-71072600D01*
X135720542Y-71129668D01*
X135450289Y-71241610D01*
X135207068Y-71404125D01*
X135000225Y-71610968D01*
X134837710Y-71854189D01*
X134725768Y-72124442D01*
X134668700Y-72411340D01*
X134668700Y-72703860D01*
X134725768Y-72990758D01*
X134837710Y-73261011D01*
X135000225Y-73504232D01*
X135132080Y-73636087D01*
X135059520Y-73658098D01*
X134949206Y-73717063D01*
X134852515Y-73796415D01*
X134773163Y-73893106D01*
X134714198Y-74003420D01*
X134677888Y-74123118D01*
X134665628Y-74247600D01*
X121343695Y-74247600D01*
X121113638Y-74152308D01*
X120826740Y-74095240D01*
X120534220Y-74095240D01*
X120247322Y-74152308D01*
X119977069Y-74264250D01*
X119733848Y-74426765D01*
X119601993Y-74558620D01*
X119579982Y-74486060D01*
X119521017Y-74375746D01*
X119441665Y-74279055D01*
X119344974Y-74199703D01*
X119234660Y-74140738D01*
X119114962Y-74104428D01*
X118990480Y-74092168D01*
X117290480Y-74092168D01*
X117165998Y-74104428D01*
X117046300Y-74140738D01*
X116935986Y-74199703D01*
X116839295Y-74279055D01*
X116759943Y-74375746D01*
X116700978Y-74486060D01*
X116664668Y-74605758D01*
X116652408Y-74730240D01*
X112253537Y-74730240D01*
X112214339Y-74533181D01*
X112068475Y-74181034D01*
X111856713Y-73864109D01*
X111587191Y-73594587D01*
X111270266Y-73382825D01*
X110918119Y-73236961D01*
X110544281Y-73162600D01*
X110163119Y-73162600D01*
X109789281Y-73236961D01*
X109437134Y-73382825D01*
X109120209Y-73594587D01*
X108850687Y-73864109D01*
X108638925Y-74181034D01*
X108493061Y-74533181D01*
X108418700Y-74907019D01*
X92788700Y-74907019D01*
X92788700Y-71153109D01*
X92812346Y-70911944D01*
X93768700Y-70911944D01*
X93768700Y-71283256D01*
X93841139Y-71647434D01*
X93983234Y-71990482D01*
X94189525Y-72299218D01*
X94452082Y-72561775D01*
X94760818Y-72768066D01*
X95103866Y-72910161D01*
X95468044Y-72982600D01*
X95839356Y-72982600D01*
X96203534Y-72910161D01*
X96546582Y-72768066D01*
X96855318Y-72561775D01*
X97117875Y-72299218D01*
X97324166Y-71990482D01*
X97466261Y-71647434D01*
X97538700Y-71283256D01*
X97538700Y-70911944D01*
X97515956Y-70797600D01*
X103715628Y-70797600D01*
X103715628Y-73397600D01*
X103727888Y-73522082D01*
X103764198Y-73641780D01*
X103823163Y-73752094D01*
X103902515Y-73848785D01*
X103999206Y-73928137D01*
X104109520Y-73987102D01*
X104229218Y-74023412D01*
X104353700Y-74035672D01*
X106953700Y-74035672D01*
X107078182Y-74023412D01*
X107197880Y-73987102D01*
X107308194Y-73928137D01*
X107404885Y-73848785D01*
X107484237Y-73752094D01*
X107543202Y-73641780D01*
X107579512Y-73522082D01*
X107591772Y-73397600D01*
X107591772Y-70911944D01*
X145768700Y-70911944D01*
X145768700Y-71283256D01*
X145841139Y-71647434D01*
X145983234Y-71990482D01*
X146189525Y-72299218D01*
X146452082Y-72561775D01*
X146760818Y-72768066D01*
X147103866Y-72910161D01*
X147468044Y-72982600D01*
X147839356Y-72982600D01*
X148203534Y-72910161D01*
X148546582Y-72768066D01*
X148855318Y-72561775D01*
X149117875Y-72299218D01*
X149324166Y-71990482D01*
X149466261Y-71647434D01*
X149538700Y-71283256D01*
X149538700Y-70911944D01*
X149466261Y-70547766D01*
X149324166Y-70204718D01*
X149117875Y-69895982D01*
X148855318Y-69633425D01*
X148546582Y-69427134D01*
X148203534Y-69285039D01*
X147839356Y-69212600D01*
X147468044Y-69212600D01*
X147103866Y-69285039D01*
X146760818Y-69427134D01*
X146452082Y-69633425D01*
X146189525Y-69895982D01*
X145983234Y-70204718D01*
X145841139Y-70547766D01*
X145768700Y-70911944D01*
X107591772Y-70911944D01*
X107591772Y-70797600D01*
X107579512Y-70673118D01*
X107543202Y-70553420D01*
X107484237Y-70443106D01*
X107404885Y-70346415D01*
X107308194Y-70267063D01*
X107197880Y-70208098D01*
X107078182Y-70171788D01*
X106953700Y-70159528D01*
X104353700Y-70159528D01*
X104229218Y-70171788D01*
X104109520Y-70208098D01*
X103999206Y-70267063D01*
X103902515Y-70346415D01*
X103823163Y-70443106D01*
X103764198Y-70553420D01*
X103727888Y-70673118D01*
X103715628Y-70797600D01*
X97515956Y-70797600D01*
X97466261Y-70547766D01*
X97324166Y-70204718D01*
X97117875Y-69895982D01*
X96855318Y-69633425D01*
X96546582Y-69427134D01*
X96203534Y-69285039D01*
X95839356Y-69212600D01*
X95468044Y-69212600D01*
X95103866Y-69285039D01*
X94760818Y-69427134D01*
X94452082Y-69633425D01*
X94189525Y-69895982D01*
X93983234Y-70204718D01*
X93841139Y-70547766D01*
X93768700Y-70911944D01*
X92812346Y-70911944D01*
X92848602Y-70542178D01*
X93009908Y-70007906D01*
X93271915Y-69515144D01*
X93624641Y-69082659D01*
X94054653Y-68726921D01*
X94545579Y-68461479D01*
X95078707Y-68296448D01*
X95686179Y-68232600D01*
X147598191Y-68232600D01*
X148209122Y-68292502D01*
G37*
%TD.AperFunction*%
D19*
X104455970Y-98756580D02*
X104458410Y-98781356D01*
X104465637Y-98805181D01*
X104477373Y-98827137D01*
X104493167Y-98846383D01*
X104512413Y-98862177D01*
X104534369Y-98873913D01*
X104558194Y-98881140D01*
X104582970Y-98883580D01*
X105703759Y-98883580D01*
X105648749Y-102070668D01*
X105650761Y-102095483D01*
X105657576Y-102119429D01*
X105668931Y-102141585D01*
X105684391Y-102161099D01*
X105703361Y-102177223D01*
X105725112Y-102189336D01*
X105748808Y-102196974D01*
X105775730Y-102199860D01*
X112525730Y-102199860D01*
X112550506Y-102197420D01*
X112574331Y-102190193D01*
X112596287Y-102178457D01*
X112615533Y-102162663D01*
X112631327Y-102143417D01*
X112643063Y-102121461D01*
X112650290Y-102097636D01*
X112652691Y-102075997D01*
X112706870Y-99883580D01*
X114082970Y-99883580D01*
X114107746Y-99881140D01*
X114131571Y-99873913D01*
X114153527Y-99862177D01*
X114172773Y-99846383D01*
X114188567Y-99827137D01*
X114200303Y-99805181D01*
X114207530Y-99781356D01*
X114209970Y-99756580D01*
X114209970Y-98133580D01*
X114832970Y-98133580D01*
X114857746Y-98131140D01*
X114881571Y-98123913D01*
X114903527Y-98112177D01*
X114922773Y-98096383D01*
X114938567Y-98077137D01*
X114950303Y-98055181D01*
X114957530Y-98031356D01*
X114959519Y-97995884D01*
X114848682Y-96684562D01*
X116611014Y-96639320D01*
X116632174Y-96745698D01*
X116710195Y-96934056D01*
X116823463Y-97103574D01*
X116867401Y-97147512D01*
X116867400Y-100856979D01*
X116863724Y-100894302D01*
X116867400Y-100931624D01*
X116867400Y-100931634D01*
X116878397Y-101043287D01*
X116910485Y-101149068D01*
X116921854Y-101186548D01*
X116992426Y-101318578D01*
X117032271Y-101367128D01*
X117087399Y-101434303D01*
X117116403Y-101458106D01*
X120792896Y-105134600D01*
X101522279Y-105134600D01*
X98681930Y-102294252D01*
X98926858Y-102245532D01*
X99197111Y-102133590D01*
X99440332Y-101971075D01*
X99647175Y-101764232D01*
X99656685Y-101750000D01*
X101251489Y-101750000D01*
X101270426Y-101768937D01*
X101439944Y-101882205D01*
X101628302Y-101960226D01*
X101828261Y-102000000D01*
X102032139Y-102000000D01*
X102232098Y-101960226D01*
X102420456Y-101882205D01*
X102589974Y-101768937D01*
X102734137Y-101624774D01*
X102847405Y-101455256D01*
X102925426Y-101266898D01*
X102965200Y-101066939D01*
X102965200Y-100863061D01*
X102925426Y-100663102D01*
X102847405Y-100474744D01*
X102734137Y-100305226D01*
X102589974Y-100161063D01*
X102420456Y-100047795D01*
X102232098Y-99969774D01*
X102032139Y-99930000D01*
X101828261Y-99930000D01*
X101628302Y-99969774D01*
X101439944Y-100047795D01*
X101270426Y-100161063D01*
X101251489Y-100180000D01*
X99836950Y-100180000D01*
X99809690Y-100114189D01*
X99647175Y-99870968D01*
X99440332Y-99664125D01*
X99265940Y-99547600D01*
X99440332Y-99431075D01*
X99647175Y-99224232D01*
X99809690Y-98981011D01*
X99851613Y-98879800D01*
X101289589Y-98879800D01*
X101308526Y-98898737D01*
X101478044Y-99012005D01*
X101666402Y-99090026D01*
X101866361Y-99129800D01*
X102070239Y-99129800D01*
X102270198Y-99090026D01*
X102458556Y-99012005D01*
X102628074Y-98898737D01*
X102772237Y-98754574D01*
X102885505Y-98585056D01*
X102963526Y-98396698D01*
X103003300Y-98196739D01*
X103003300Y-97992861D01*
X102963526Y-97792902D01*
X102885505Y-97604544D01*
X102772237Y-97435026D01*
X102628074Y-97290863D01*
X102458556Y-97177595D01*
X102270198Y-97099574D01*
X102070239Y-97059800D01*
X101866361Y-97059800D01*
X101666402Y-97099574D01*
X101478044Y-97177595D01*
X101308526Y-97290863D01*
X101289589Y-97309800D01*
X99626007Y-97309800D01*
X99440332Y-97124125D01*
X99265940Y-97007600D01*
X99440332Y-96891075D01*
X99647175Y-96684232D01*
X99809690Y-96441011D01*
X99835831Y-96377900D01*
X101226089Y-96377900D01*
X101245026Y-96396837D01*
X101414544Y-96510105D01*
X101602902Y-96588126D01*
X101802861Y-96627900D01*
X102006739Y-96627900D01*
X102206698Y-96588126D01*
X102395056Y-96510105D01*
X102564574Y-96396837D01*
X102708737Y-96252674D01*
X102822005Y-96083156D01*
X102900026Y-95894798D01*
X102939800Y-95694839D01*
X102939800Y-95490961D01*
X102918246Y-95382600D01*
X104455970Y-95382600D01*
X104455970Y-98756580D01*
%TA.AperFunction,Conductor*%
D20*
G36*
X104455970Y-98756580D02*
G01*
X104458410Y-98781356D01*
X104465637Y-98805181D01*
X104477373Y-98827137D01*
X104493167Y-98846383D01*
X104512413Y-98862177D01*
X104534369Y-98873913D01*
X104558194Y-98881140D01*
X104582970Y-98883580D01*
X105703759Y-98883580D01*
X105648749Y-102070668D01*
X105650761Y-102095483D01*
X105657576Y-102119429D01*
X105668931Y-102141585D01*
X105684391Y-102161099D01*
X105703361Y-102177223D01*
X105725112Y-102189336D01*
X105748808Y-102196974D01*
X105775730Y-102199860D01*
X112525730Y-102199860D01*
X112550506Y-102197420D01*
X112574331Y-102190193D01*
X112596287Y-102178457D01*
X112615533Y-102162663D01*
X112631327Y-102143417D01*
X112643063Y-102121461D01*
X112650290Y-102097636D01*
X112652691Y-102075997D01*
X112706870Y-99883580D01*
X114082970Y-99883580D01*
X114107746Y-99881140D01*
X114131571Y-99873913D01*
X114153527Y-99862177D01*
X114172773Y-99846383D01*
X114188567Y-99827137D01*
X114200303Y-99805181D01*
X114207530Y-99781356D01*
X114209970Y-99756580D01*
X114209970Y-98133580D01*
X114832970Y-98133580D01*
X114857746Y-98131140D01*
X114881571Y-98123913D01*
X114903527Y-98112177D01*
X114922773Y-98096383D01*
X114938567Y-98077137D01*
X114950303Y-98055181D01*
X114957530Y-98031356D01*
X114959519Y-97995884D01*
X114848682Y-96684562D01*
X116611014Y-96639320D01*
X116632174Y-96745698D01*
X116710195Y-96934056D01*
X116823463Y-97103574D01*
X116867401Y-97147512D01*
X116867400Y-100856979D01*
X116863724Y-100894302D01*
X116867400Y-100931624D01*
X116867400Y-100931634D01*
X116878397Y-101043287D01*
X116910485Y-101149068D01*
X116921854Y-101186548D01*
X116992426Y-101318578D01*
X117032271Y-101367128D01*
X117087399Y-101434303D01*
X117116403Y-101458106D01*
X120792896Y-105134600D01*
X101522279Y-105134600D01*
X98681930Y-102294252D01*
X98926858Y-102245532D01*
X99197111Y-102133590D01*
X99440332Y-101971075D01*
X99647175Y-101764232D01*
X99656685Y-101750000D01*
X101251489Y-101750000D01*
X101270426Y-101768937D01*
X101439944Y-101882205D01*
X101628302Y-101960226D01*
X101828261Y-102000000D01*
X102032139Y-102000000D01*
X102232098Y-101960226D01*
X102420456Y-101882205D01*
X102589974Y-101768937D01*
X102734137Y-101624774D01*
X102847405Y-101455256D01*
X102925426Y-101266898D01*
X102965200Y-101066939D01*
X102965200Y-100863061D01*
X102925426Y-100663102D01*
X102847405Y-100474744D01*
X102734137Y-100305226D01*
X102589974Y-100161063D01*
X102420456Y-100047795D01*
X102232098Y-99969774D01*
X102032139Y-99930000D01*
X101828261Y-99930000D01*
X101628302Y-99969774D01*
X101439944Y-100047795D01*
X101270426Y-100161063D01*
X101251489Y-100180000D01*
X99836950Y-100180000D01*
X99809690Y-100114189D01*
X99647175Y-99870968D01*
X99440332Y-99664125D01*
X99265940Y-99547600D01*
X99440332Y-99431075D01*
X99647175Y-99224232D01*
X99809690Y-98981011D01*
X99851613Y-98879800D01*
X101289589Y-98879800D01*
X101308526Y-98898737D01*
X101478044Y-99012005D01*
X101666402Y-99090026D01*
X101866361Y-99129800D01*
X102070239Y-99129800D01*
X102270198Y-99090026D01*
X102458556Y-99012005D01*
X102628074Y-98898737D01*
X102772237Y-98754574D01*
X102885505Y-98585056D01*
X102963526Y-98396698D01*
X103003300Y-98196739D01*
X103003300Y-97992861D01*
X102963526Y-97792902D01*
X102885505Y-97604544D01*
X102772237Y-97435026D01*
X102628074Y-97290863D01*
X102458556Y-97177595D01*
X102270198Y-97099574D01*
X102070239Y-97059800D01*
X101866361Y-97059800D01*
X101666402Y-97099574D01*
X101478044Y-97177595D01*
X101308526Y-97290863D01*
X101289589Y-97309800D01*
X99626007Y-97309800D01*
X99440332Y-97124125D01*
X99265940Y-97007600D01*
X99440332Y-96891075D01*
X99647175Y-96684232D01*
X99809690Y-96441011D01*
X99835831Y-96377900D01*
X101226089Y-96377900D01*
X101245026Y-96396837D01*
X101414544Y-96510105D01*
X101602902Y-96588126D01*
X101802861Y-96627900D01*
X102006739Y-96627900D01*
X102206698Y-96588126D01*
X102395056Y-96510105D01*
X102564574Y-96396837D01*
X102708737Y-96252674D01*
X102822005Y-96083156D01*
X102900026Y-95894798D01*
X102939800Y-95694839D01*
X102939800Y-95490961D01*
X102918246Y-95382600D01*
X104455970Y-95382600D01*
X104455970Y-98756580D01*
G37*
%TD.AperFunction*%
D19*
X122743926Y-90151537D02*
X122913444Y-90264805D01*
X123101802Y-90342826D01*
X123301761Y-90382600D01*
X123505639Y-90382600D01*
X123705598Y-90342826D01*
X123893956Y-90264805D01*
X123903700Y-90258294D01*
X123913444Y-90264805D01*
X124101802Y-90342826D01*
X124301761Y-90382600D01*
X124505639Y-90382600D01*
X124705598Y-90342826D01*
X124867396Y-90275807D01*
X124892426Y-90300837D01*
X125061944Y-90414105D01*
X125250302Y-90492126D01*
X125450261Y-90531900D01*
X125654139Y-90531900D01*
X125854098Y-90492126D01*
X126042456Y-90414105D01*
X126211974Y-90300837D01*
X126230911Y-90281900D01*
X142877503Y-90281900D01*
X143982808Y-91387206D01*
X143982808Y-92615120D01*
X143991721Y-92705622D01*
X139020714Y-97676629D01*
X138954885Y-97596415D01*
X138858194Y-97517063D01*
X138747880Y-97458098D01*
X138675320Y-97436087D01*
X138807175Y-97304232D01*
X138969690Y-97061011D01*
X139081632Y-96790758D01*
X139138700Y-96503860D01*
X139138700Y-96211340D01*
X139081632Y-95924442D01*
X138969690Y-95654189D01*
X138807175Y-95410968D01*
X138600332Y-95204125D01*
X138357111Y-95041610D01*
X138086858Y-94929668D01*
X137799960Y-94872600D01*
X137507440Y-94872600D01*
X137220542Y-94929668D01*
X136950289Y-95041610D01*
X136707068Y-95204125D01*
X136500225Y-95410968D01*
X136337710Y-95654189D01*
X136225768Y-95924442D01*
X136168700Y-96211340D01*
X136168700Y-96503860D01*
X136225768Y-96790758D01*
X136337710Y-97061011D01*
X136500225Y-97304232D01*
X136632080Y-97436087D01*
X136559520Y-97458098D01*
X136449206Y-97517063D01*
X136352515Y-97596415D01*
X136273163Y-97693106D01*
X136214198Y-97803420D01*
X136177888Y-97923118D01*
X136165628Y-98047600D01*
X136165628Y-99747600D01*
X136177888Y-99872082D01*
X136214198Y-99991780D01*
X136273163Y-100102094D01*
X136352515Y-100198785D01*
X136449206Y-100278137D01*
X136559520Y-100337102D01*
X136679218Y-100373412D01*
X136803700Y-100385672D01*
X137385473Y-100385672D01*
X136968845Y-100802300D01*
X136136911Y-100802300D01*
X136117974Y-100783363D01*
X135948456Y-100670095D01*
X135760098Y-100592074D01*
X135560139Y-100552300D01*
X135356261Y-100552300D01*
X135156302Y-100592074D01*
X134967944Y-100670095D01*
X134861343Y-100741323D01*
X134792756Y-100695495D01*
X134604398Y-100617474D01*
X134404439Y-100577700D01*
X134200561Y-100577700D01*
X134000602Y-100617474D01*
X133812244Y-100695495D01*
X133715060Y-100760431D01*
X133560856Y-100657395D01*
X133372498Y-100579374D01*
X133172539Y-100539600D01*
X132968661Y-100539600D01*
X132768702Y-100579374D01*
X132580344Y-100657395D01*
X132524414Y-100694766D01*
X132392456Y-100606595D01*
X132204098Y-100528574D01*
X132004139Y-100488800D01*
X131800261Y-100488800D01*
X131600302Y-100528574D01*
X131411944Y-100606595D01*
X131242426Y-100719863D01*
X131098263Y-100864026D01*
X130984995Y-101033544D01*
X130906974Y-101221902D01*
X130867200Y-101421861D01*
X130867200Y-101625739D01*
X130906974Y-101825698D01*
X130984995Y-102014056D01*
X131098263Y-102183574D01*
X131117200Y-102202511D01*
X131117201Y-103441038D01*
X131113403Y-103479600D01*
X131121578Y-103562600D01*
X129996905Y-103562600D01*
X130027226Y-103489398D01*
X130067000Y-103289439D01*
X130067000Y-103085561D01*
X130027226Y-102885602D01*
X129949205Y-102697244D01*
X129835937Y-102527726D01*
X129691774Y-102383563D01*
X129522256Y-102270295D01*
X129333898Y-102192274D01*
X129133939Y-102152500D01*
X128930061Y-102152500D01*
X128730102Y-102192274D01*
X128543945Y-102269383D01*
X128568400Y-102146439D01*
X128568400Y-101942561D01*
X128528626Y-101742602D01*
X128450605Y-101554244D01*
X128337337Y-101384726D01*
X128193174Y-101240563D01*
X128023656Y-101127295D01*
X127835298Y-101049274D01*
X127635339Y-101009500D01*
X127431461Y-101009500D01*
X127231502Y-101049274D01*
X127043144Y-101127295D01*
X126873626Y-101240563D01*
X126729463Y-101384726D01*
X126616195Y-101554244D01*
X126538174Y-101742602D01*
X126498400Y-101942561D01*
X126498400Y-102146439D01*
X126538174Y-102346398D01*
X126616195Y-102534756D01*
X126729463Y-102704274D01*
X126873626Y-102848437D01*
X127043144Y-102961705D01*
X127231502Y-103039726D01*
X127431461Y-103079500D01*
X127635339Y-103079500D01*
X127835298Y-103039726D01*
X128021455Y-102962617D01*
X127997000Y-103085561D01*
X127997000Y-103289439D01*
X128036774Y-103489398D01*
X128067095Y-103562600D01*
X122832411Y-103562600D01*
X122813474Y-103543663D01*
X122643956Y-103430395D01*
X122455598Y-103352374D01*
X122255639Y-103312600D01*
X122051761Y-103312600D01*
X121851802Y-103352374D01*
X121663444Y-103430395D01*
X121493926Y-103543663D01*
X121422744Y-103614845D01*
X118387400Y-100579501D01*
X118387400Y-97147511D01*
X118431337Y-97103574D01*
X118544605Y-96934056D01*
X118622626Y-96745698D01*
X118662400Y-96545739D01*
X118662400Y-96341861D01*
X118622626Y-96141902D01*
X118544605Y-95953544D01*
X118431337Y-95784026D01*
X118412400Y-95765089D01*
X118412400Y-94339055D01*
X120549794Y-92201661D01*
X126752400Y-92201661D01*
X126752400Y-92405539D01*
X126792174Y-92605498D01*
X126870195Y-92793856D01*
X126983463Y-92963374D01*
X127127626Y-93107537D01*
X127297144Y-93220805D01*
X127485502Y-93298826D01*
X127685461Y-93338600D01*
X127889339Y-93338600D01*
X128089298Y-93298826D01*
X128277656Y-93220805D01*
X128447174Y-93107537D01*
X128591337Y-92963374D01*
X128704605Y-92793856D01*
X128782626Y-92605498D01*
X128822400Y-92405539D01*
X128822400Y-92201661D01*
X128782626Y-92001702D01*
X128704605Y-91813344D01*
X128591337Y-91643826D01*
X128447174Y-91499663D01*
X128277656Y-91386395D01*
X128089298Y-91308374D01*
X127889339Y-91268600D01*
X127685461Y-91268600D01*
X127485502Y-91308374D01*
X127297144Y-91386395D01*
X127127626Y-91499663D01*
X126983463Y-91643826D01*
X126870195Y-91813344D01*
X126792174Y-92001702D01*
X126752400Y-92201661D01*
X120549794Y-92201661D01*
X122671922Y-90079533D01*
X122743926Y-90151537D01*
%TA.AperFunction,Conductor*%
D20*
G36*
X122743926Y-90151537D02*
G01*
X122913444Y-90264805D01*
X123101802Y-90342826D01*
X123301761Y-90382600D01*
X123505639Y-90382600D01*
X123705598Y-90342826D01*
X123893956Y-90264805D01*
X123903700Y-90258294D01*
X123913444Y-90264805D01*
X124101802Y-90342826D01*
X124301761Y-90382600D01*
X124505639Y-90382600D01*
X124705598Y-90342826D01*
X124867396Y-90275807D01*
X124892426Y-90300837D01*
X125061944Y-90414105D01*
X125250302Y-90492126D01*
X125450261Y-90531900D01*
X125654139Y-90531900D01*
X125854098Y-90492126D01*
X126042456Y-90414105D01*
X126211974Y-90300837D01*
X126230911Y-90281900D01*
X142877503Y-90281900D01*
X143982808Y-91387206D01*
X143982808Y-92615120D01*
X143991721Y-92705622D01*
X139020714Y-97676629D01*
X138954885Y-97596415D01*
X138858194Y-97517063D01*
X138747880Y-97458098D01*
X138675320Y-97436087D01*
X138807175Y-97304232D01*
X138969690Y-97061011D01*
X139081632Y-96790758D01*
X139138700Y-96503860D01*
X139138700Y-96211340D01*
X139081632Y-95924442D01*
X138969690Y-95654189D01*
X138807175Y-95410968D01*
X138600332Y-95204125D01*
X138357111Y-95041610D01*
X138086858Y-94929668D01*
X137799960Y-94872600D01*
X137507440Y-94872600D01*
X137220542Y-94929668D01*
X136950289Y-95041610D01*
X136707068Y-95204125D01*
X136500225Y-95410968D01*
X136337710Y-95654189D01*
X136225768Y-95924442D01*
X136168700Y-96211340D01*
X136168700Y-96503860D01*
X136225768Y-96790758D01*
X136337710Y-97061011D01*
X136500225Y-97304232D01*
X136632080Y-97436087D01*
X136559520Y-97458098D01*
X136449206Y-97517063D01*
X136352515Y-97596415D01*
X136273163Y-97693106D01*
X136214198Y-97803420D01*
X136177888Y-97923118D01*
X136165628Y-98047600D01*
X136165628Y-99747600D01*
X136177888Y-99872082D01*
X136214198Y-99991780D01*
X136273163Y-100102094D01*
X136352515Y-100198785D01*
X136449206Y-100278137D01*
X136559520Y-100337102D01*
X136679218Y-100373412D01*
X136803700Y-100385672D01*
X137385473Y-100385672D01*
X136968845Y-100802300D01*
X136136911Y-100802300D01*
X136117974Y-100783363D01*
X135948456Y-100670095D01*
X135760098Y-100592074D01*
X135560139Y-100552300D01*
X135356261Y-100552300D01*
X135156302Y-100592074D01*
X134967944Y-100670095D01*
X134861343Y-100741323D01*
X134792756Y-100695495D01*
X134604398Y-100617474D01*
X134404439Y-100577700D01*
X134200561Y-100577700D01*
X134000602Y-100617474D01*
X133812244Y-100695495D01*
X133715060Y-100760431D01*
X133560856Y-100657395D01*
X133372498Y-100579374D01*
X133172539Y-100539600D01*
X132968661Y-100539600D01*
X132768702Y-100579374D01*
X132580344Y-100657395D01*
X132524414Y-100694766D01*
X132392456Y-100606595D01*
X132204098Y-100528574D01*
X132004139Y-100488800D01*
X131800261Y-100488800D01*
X131600302Y-100528574D01*
X131411944Y-100606595D01*
X131242426Y-100719863D01*
X131098263Y-100864026D01*
X130984995Y-101033544D01*
X130906974Y-101221902D01*
X130867200Y-101421861D01*
X130867200Y-101625739D01*
X130906974Y-101825698D01*
X130984995Y-102014056D01*
X131098263Y-102183574D01*
X131117200Y-102202511D01*
X131117201Y-103441038D01*
X131113403Y-103479600D01*
X131121578Y-103562600D01*
X129996905Y-103562600D01*
X130027226Y-103489398D01*
X130067000Y-103289439D01*
X130067000Y-103085561D01*
X130027226Y-102885602D01*
X129949205Y-102697244D01*
X129835937Y-102527726D01*
X129691774Y-102383563D01*
X129522256Y-102270295D01*
X129333898Y-102192274D01*
X129133939Y-102152500D01*
X128930061Y-102152500D01*
X128730102Y-102192274D01*
X128543945Y-102269383D01*
X128568400Y-102146439D01*
X128568400Y-101942561D01*
X128528626Y-101742602D01*
X128450605Y-101554244D01*
X128337337Y-101384726D01*
X128193174Y-101240563D01*
X128023656Y-101127295D01*
X127835298Y-101049274D01*
X127635339Y-101009500D01*
X127431461Y-101009500D01*
X127231502Y-101049274D01*
X127043144Y-101127295D01*
X126873626Y-101240563D01*
X126729463Y-101384726D01*
X126616195Y-101554244D01*
X126538174Y-101742602D01*
X126498400Y-101942561D01*
X126498400Y-102146439D01*
X126538174Y-102346398D01*
X126616195Y-102534756D01*
X126729463Y-102704274D01*
X126873626Y-102848437D01*
X127043144Y-102961705D01*
X127231502Y-103039726D01*
X127431461Y-103079500D01*
X127635339Y-103079500D01*
X127835298Y-103039726D01*
X128021455Y-102962617D01*
X127997000Y-103085561D01*
X127997000Y-103289439D01*
X128036774Y-103489398D01*
X128067095Y-103562600D01*
X122832411Y-103562600D01*
X122813474Y-103543663D01*
X122643956Y-103430395D01*
X122455598Y-103352374D01*
X122255639Y-103312600D01*
X122051761Y-103312600D01*
X121851802Y-103352374D01*
X121663444Y-103430395D01*
X121493926Y-103543663D01*
X121422744Y-103614845D01*
X118387400Y-100579501D01*
X118387400Y-97147511D01*
X118431337Y-97103574D01*
X118544605Y-96934056D01*
X118622626Y-96745698D01*
X118662400Y-96545739D01*
X118662400Y-96341861D01*
X118622626Y-96141902D01*
X118544605Y-95953544D01*
X118431337Y-95784026D01*
X118412400Y-95765089D01*
X118412400Y-94339055D01*
X120549794Y-92201661D01*
X126752400Y-92201661D01*
X126752400Y-92405539D01*
X126792174Y-92605498D01*
X126870195Y-92793856D01*
X126983463Y-92963374D01*
X127127626Y-93107537D01*
X127297144Y-93220805D01*
X127485502Y-93298826D01*
X127685461Y-93338600D01*
X127889339Y-93338600D01*
X128089298Y-93298826D01*
X128277656Y-93220805D01*
X128447174Y-93107537D01*
X128591337Y-92963374D01*
X128704605Y-92793856D01*
X128782626Y-92605498D01*
X128822400Y-92405539D01*
X128822400Y-92201661D01*
X128782626Y-92001702D01*
X128704605Y-91813344D01*
X128591337Y-91643826D01*
X128447174Y-91499663D01*
X128277656Y-91386395D01*
X128089298Y-91308374D01*
X127889339Y-91268600D01*
X127685461Y-91268600D01*
X127485502Y-91308374D01*
X127297144Y-91386395D01*
X127127626Y-91499663D01*
X126983463Y-91643826D01*
X126870195Y-91813344D01*
X126792174Y-92001702D01*
X126752400Y-92201661D01*
X120549794Y-92201661D01*
X122671922Y-90079533D01*
X122743926Y-90151537D01*
G37*
%TD.AperFunction*%
D19*
X116491659Y-91282315D02*
X116296802Y-91321074D01*
X116108444Y-91399095D01*
X115938926Y-91512363D01*
X115794763Y-91656526D01*
X115681495Y-91826044D01*
X115680580Y-91828252D01*
X115674405Y-91813344D01*
X115561137Y-91643826D01*
X115416974Y-91499663D01*
X115247456Y-91386395D01*
X115059098Y-91308374D01*
X114859139Y-91268600D01*
X114655261Y-91268600D01*
X114638701Y-91271894D01*
X114638701Y-90262421D01*
X114642377Y-90225098D01*
X114638701Y-90187775D01*
X114638701Y-90187766D01*
X114627704Y-90076113D01*
X114584247Y-89932852D01*
X114513675Y-89800823D01*
X114488580Y-89770245D01*
X114442500Y-89714095D01*
X114442496Y-89714091D01*
X114418702Y-89685098D01*
X114389709Y-89661304D01*
X114153528Y-89425124D01*
X114218756Y-89398105D01*
X114388274Y-89284837D01*
X114407211Y-89265900D01*
X114475245Y-89265900D01*
X116491659Y-91282315D01*
%TA.AperFunction,Conductor*%
D20*
G36*
X116491659Y-91282315D02*
G01*
X116296802Y-91321074D01*
X116108444Y-91399095D01*
X115938926Y-91512363D01*
X115794763Y-91656526D01*
X115681495Y-91826044D01*
X115680580Y-91828252D01*
X115674405Y-91813344D01*
X115561137Y-91643826D01*
X115416974Y-91499663D01*
X115247456Y-91386395D01*
X115059098Y-91308374D01*
X114859139Y-91268600D01*
X114655261Y-91268600D01*
X114638701Y-91271894D01*
X114638701Y-90262421D01*
X114642377Y-90225098D01*
X114638701Y-90187775D01*
X114638701Y-90187766D01*
X114627704Y-90076113D01*
X114584247Y-89932852D01*
X114513675Y-89800823D01*
X114488580Y-89770245D01*
X114442500Y-89714095D01*
X114442496Y-89714091D01*
X114418702Y-89685098D01*
X114389709Y-89661304D01*
X114153528Y-89425124D01*
X114218756Y-89398105D01*
X114388274Y-89284837D01*
X114407211Y-89265900D01*
X114475245Y-89265900D01*
X116491659Y-91282315D01*
G37*
%TD.AperFunction*%
%TD*%
M02*
