%TF.GenerationSoftware,KiCad,Pcbnew,(5.1.8)-1*%
%TF.CreationDate,2020-11-24T12:22:42+05:30*%
%TF.ProjectId,stm32f405_breakout,73746d33-3266-4343-9035-5f627265616b,rev?*%
%TF.SameCoordinates,Original*%
%TF.FileFunction,Copper,L3,Inr*%
%TF.FilePolarity,Positive*%
%FSLAX46Y46*%
G04 Gerber Fmt 4.6, Leading zero omitted, Abs format (unit mm)*
G04 Created by KiCad (PCBNEW (5.1.8)-1) date 2020-11-24 12:22:42*
%MOMM*%
%LPD*%
G01*
G04 APERTURE LIST*
%TA.AperFunction,ComponentPad*%
%ADD10R,1.700000X1.700000*%
%TD*%
%TA.AperFunction,ComponentPad*%
%ADD11O,1.700000X1.700000*%
%TD*%
%TA.AperFunction,ComponentPad*%
%ADD12R,2.600000X2.600000*%
%TD*%
%TA.AperFunction,ComponentPad*%
%ADD13C,2.600000*%
%TD*%
%TA.AperFunction,ViaPad*%
%ADD14C,1.000000*%
%TD*%
%TA.AperFunction,ViaPad*%
%ADD15C,0.800000*%
%TD*%
%TA.AperFunction,Conductor*%
%ADD16C,0.254000*%
%TD*%
%TA.AperFunction,Conductor*%
%ADD17C,0.100000*%
%TD*%
G04 APERTURE END LIST*
D10*
%TO.N,PC10*%
%TO.C,PORTC_2*%
X145470880Y-91765120D03*
D11*
%TO.N,PC9*%
X148010880Y-91765120D03*
%TO.N,PC11*%
X145470880Y-94305120D03*
%TO.N,PC12*%
X148010880Y-94305120D03*
%TO.N,PC8*%
X145470880Y-96845120D03*
%TO.N,PC6*%
X148010880Y-96845120D03*
%TO.N,PC7*%
X145470880Y-99385120D03*
%TO.N,PC5*%
X148010880Y-99385120D03*
%TD*%
%TO.N,GND*%
%TO.C,3.3 V*%
X127113700Y-75897600D03*
D10*
%TO.N,+3V3*%
X129653700Y-75897600D03*
%TD*%
D11*
%TO.N,SPI1_MOSI*%
%TO.C,SPI*%
X124028200Y-118783100D03*
%TO.N,SPI1_MISO*%
X121488200Y-118783100D03*
%TO.N,SPI1_SCK*%
X118948200Y-118783100D03*
D10*
%TO.N,SPI1_EN*%
X116408200Y-118783100D03*
%TD*%
%TO.N,USART1_TX*%
%TO.C,UART*%
X137653700Y-98897600D03*
D11*
%TO.N,USART1_RX*%
X137653700Y-96357600D03*
%TD*%
D12*
%TO.N,VCC*%
%TO.C,J7*%
X105653700Y-72097600D03*
D13*
%TO.N,GND*%
X105653700Y-78097600D03*
%TO.N,N/C*%
X110353700Y-75097600D03*
%TD*%
D10*
%TO.N,I2C1_SCL*%
%TO.C,I2C*%
X118140480Y-75580240D03*
D11*
%TO.N,I2C1_SDA*%
X120680480Y-75580240D03*
%TD*%
D10*
%TO.N,VCC*%
%TO.C,VIN*%
X136153700Y-75097600D03*
D11*
X136153700Y-72557600D03*
%TO.N,GND*%
X138693700Y-75097600D03*
X138693700Y-72557600D03*
%TD*%
%TO.N,PC3*%
%TO.C,PORTC_1*%
X98493700Y-100817600D03*
%TO.N,PC4*%
X95953700Y-100817600D03*
%TO.N,PC2*%
X98493700Y-98277600D03*
%TO.N,PC15*%
X95953700Y-98277600D03*
%TO.N,PC1*%
X98493700Y-95737600D03*
%TO.N,PC14*%
X95953700Y-95737600D03*
%TO.N,PC0*%
X98493700Y-93197600D03*
D10*
%TO.N,PC13*%
X95953700Y-93197600D03*
%TD*%
D14*
%TO.N,+3V3*%
X99568000Y-107480100D03*
X99568000Y-109397800D03*
X99568000Y-111607600D03*
D15*
X127787400Y-92303600D03*
X125234700Y-79743300D03*
X128739900Y-79590900D03*
X129032000Y-103187500D03*
X127533400Y-102044500D03*
X116738400Y-107416600D03*
X138404600Y-87020400D03*
X114757200Y-92303600D03*
X116598700Y-92316300D03*
D14*
%TO.N,GND*%
X93065600Y-107581700D03*
X97307400Y-105410000D03*
X97536000Y-107530900D03*
X94615000Y-105397300D03*
D15*
X108546900Y-109537500D03*
X115366800Y-90157300D03*
X133350000Y-87058500D03*
X132143500Y-93764100D03*
X118516400Y-89471500D03*
X110048040Y-87228680D03*
X107746800Y-100261420D03*
X110548420Y-92113100D03*
X111963200Y-102997000D03*
X114414300Y-104597200D03*
%TO.N,NRESET*%
X113728500Y-88480900D03*
X128282700Y-107505500D03*
X117627400Y-96443800D03*
X140322300Y-79476600D03*
%TO.N,PC0*%
X101930200Y-93281500D03*
%TO.N,PC2*%
X101968300Y-98094800D03*
%TO.N,PC1*%
X101904800Y-95592900D03*
%TO.N,PC3*%
X101930200Y-100965000D03*
%TO.N,PC4*%
X122199400Y-106019600D03*
%TO.N,PC5*%
X122153700Y-104347600D03*
%TO.N,PC6*%
X131902200Y-101523800D03*
%TO.N,PC7*%
X133070600Y-101574600D03*
%TO.N,PC8*%
X134302500Y-101612700D03*
%TO.N,PC9*%
X135458200Y-101587300D03*
%TO.N,PC10*%
X125552200Y-89496900D03*
%TO.N,PC11*%
X124403700Y-89347600D03*
%TO.N,PC12*%
X123403700Y-89347600D03*
%TO.N,PC13*%
X113153700Y-92347600D03*
%TO.N,PC14*%
X113153700Y-93597600D03*
%TO.N,PC15*%
X113153700Y-94597600D03*
%TD*%
D16*
%TO.N,+3V3*%
X148209122Y-68292502D02*
X148743394Y-68453808D01*
X149236156Y-68715815D01*
X149668641Y-69068541D01*
X150024379Y-69498553D01*
X150289821Y-69989479D01*
X150454852Y-70522607D01*
X150518700Y-71130079D01*
X150518701Y-121042081D01*
X150458798Y-121653021D01*
X150297491Y-122187295D01*
X150035489Y-122680050D01*
X149682759Y-123112541D01*
X149252744Y-123468280D01*
X148761822Y-123733721D01*
X148228693Y-123898752D01*
X147621222Y-123962600D01*
X95709209Y-123962600D01*
X95098279Y-123902698D01*
X94564005Y-123741391D01*
X94071250Y-123479389D01*
X93638759Y-123126659D01*
X93283020Y-122696644D01*
X93017579Y-122205722D01*
X92852548Y-121672593D01*
X92788700Y-121065122D01*
X92788700Y-120911944D01*
X93768700Y-120911944D01*
X93768700Y-121283256D01*
X93841139Y-121647434D01*
X93983234Y-121990482D01*
X94189525Y-122299218D01*
X94452082Y-122561775D01*
X94760818Y-122768066D01*
X95103866Y-122910161D01*
X95468044Y-122982600D01*
X95839356Y-122982600D01*
X96203534Y-122910161D01*
X96546582Y-122768066D01*
X96855318Y-122561775D01*
X97117875Y-122299218D01*
X97324166Y-121990482D01*
X97466261Y-121647434D01*
X97538700Y-121283256D01*
X97538700Y-120911944D01*
X145768700Y-120911944D01*
X145768700Y-121283256D01*
X145841139Y-121647434D01*
X145983234Y-121990482D01*
X146189525Y-122299218D01*
X146452082Y-122561775D01*
X146760818Y-122768066D01*
X147103866Y-122910161D01*
X147468044Y-122982600D01*
X147839356Y-122982600D01*
X148203534Y-122910161D01*
X148546582Y-122768066D01*
X148855318Y-122561775D01*
X149117875Y-122299218D01*
X149324166Y-121990482D01*
X149466261Y-121647434D01*
X149538700Y-121283256D01*
X149538700Y-120911944D01*
X149466261Y-120547766D01*
X149324166Y-120204718D01*
X149117875Y-119895982D01*
X148855318Y-119633425D01*
X148546582Y-119427134D01*
X148203534Y-119285039D01*
X147839356Y-119212600D01*
X147468044Y-119212600D01*
X147103866Y-119285039D01*
X146760818Y-119427134D01*
X146452082Y-119633425D01*
X146189525Y-119895982D01*
X145983234Y-120204718D01*
X145841139Y-120547766D01*
X145768700Y-120911944D01*
X97538700Y-120911944D01*
X97466261Y-120547766D01*
X97324166Y-120204718D01*
X97117875Y-119895982D01*
X96855318Y-119633425D01*
X96546582Y-119427134D01*
X96203534Y-119285039D01*
X95839356Y-119212600D01*
X95468044Y-119212600D01*
X95103866Y-119285039D01*
X94760818Y-119427134D01*
X94452082Y-119633425D01*
X94189525Y-119895982D01*
X93983234Y-120204718D01*
X93841139Y-120547766D01*
X93768700Y-120911944D01*
X92788700Y-120911944D01*
X92788700Y-117933100D01*
X114920128Y-117933100D01*
X114920128Y-119633100D01*
X114932388Y-119757582D01*
X114968698Y-119877280D01*
X115027663Y-119987594D01*
X115107015Y-120084285D01*
X115203706Y-120163637D01*
X115314020Y-120222602D01*
X115433718Y-120258912D01*
X115558200Y-120271172D01*
X117258200Y-120271172D01*
X117382682Y-120258912D01*
X117502380Y-120222602D01*
X117612694Y-120163637D01*
X117709385Y-120084285D01*
X117788737Y-119987594D01*
X117847702Y-119877280D01*
X117869713Y-119804720D01*
X118001568Y-119936575D01*
X118244789Y-120099090D01*
X118515042Y-120211032D01*
X118801940Y-120268100D01*
X119094460Y-120268100D01*
X119381358Y-120211032D01*
X119651611Y-120099090D01*
X119894832Y-119936575D01*
X120101675Y-119729732D01*
X120218200Y-119555340D01*
X120334725Y-119729732D01*
X120541568Y-119936575D01*
X120784789Y-120099090D01*
X121055042Y-120211032D01*
X121341940Y-120268100D01*
X121634460Y-120268100D01*
X121921358Y-120211032D01*
X122191611Y-120099090D01*
X122434832Y-119936575D01*
X122641675Y-119729732D01*
X122758200Y-119555340D01*
X122874725Y-119729732D01*
X123081568Y-119936575D01*
X123324789Y-120099090D01*
X123595042Y-120211032D01*
X123881940Y-120268100D01*
X124174460Y-120268100D01*
X124461358Y-120211032D01*
X124731611Y-120099090D01*
X124974832Y-119936575D01*
X125181675Y-119729732D01*
X125344190Y-119486511D01*
X125456132Y-119216258D01*
X125513200Y-118929360D01*
X125513200Y-118636840D01*
X125456132Y-118349942D01*
X125344190Y-118079689D01*
X125181675Y-117836468D01*
X124974832Y-117629625D01*
X124731611Y-117467110D01*
X124461358Y-117355168D01*
X124174460Y-117298100D01*
X123881940Y-117298100D01*
X123595042Y-117355168D01*
X123324789Y-117467110D01*
X123081568Y-117629625D01*
X122874725Y-117836468D01*
X122758200Y-118010860D01*
X122641675Y-117836468D01*
X122434832Y-117629625D01*
X122191611Y-117467110D01*
X121921358Y-117355168D01*
X121634460Y-117298100D01*
X121341940Y-117298100D01*
X121055042Y-117355168D01*
X120784789Y-117467110D01*
X120541568Y-117629625D01*
X120334725Y-117836468D01*
X120218200Y-118010860D01*
X120101675Y-117836468D01*
X119894832Y-117629625D01*
X119651611Y-117467110D01*
X119381358Y-117355168D01*
X119094460Y-117298100D01*
X118801940Y-117298100D01*
X118515042Y-117355168D01*
X118244789Y-117467110D01*
X118001568Y-117629625D01*
X117869713Y-117761480D01*
X117847702Y-117688920D01*
X117788737Y-117578606D01*
X117709385Y-117481915D01*
X117612694Y-117402563D01*
X117502380Y-117343598D01*
X117382682Y-117307288D01*
X117258200Y-117295028D01*
X115558200Y-117295028D01*
X115433718Y-117307288D01*
X115314020Y-117343598D01*
X115203706Y-117402563D01*
X115107015Y-117481915D01*
X115027663Y-117578606D01*
X114968698Y-117688920D01*
X114932388Y-117808618D01*
X114920128Y-117933100D01*
X92788700Y-117933100D01*
X92788700Y-109435561D01*
X107511900Y-109435561D01*
X107511900Y-109639439D01*
X107551674Y-109839398D01*
X107629695Y-110027756D01*
X107742963Y-110197274D01*
X107887126Y-110341437D01*
X108056644Y-110454705D01*
X108245002Y-110532726D01*
X108444961Y-110572500D01*
X108648839Y-110572500D01*
X108848798Y-110532726D01*
X109037156Y-110454705D01*
X109206674Y-110341437D01*
X109350837Y-110197274D01*
X109464105Y-110027756D01*
X109542126Y-109839398D01*
X109581900Y-109639439D01*
X109581900Y-109435561D01*
X109542126Y-109235602D01*
X109464105Y-109047244D01*
X109350837Y-108877726D01*
X109206674Y-108733563D01*
X109037156Y-108620295D01*
X108848798Y-108542274D01*
X108648839Y-108502500D01*
X108444961Y-108502500D01*
X108245002Y-108542274D01*
X108056644Y-108620295D01*
X107887126Y-108733563D01*
X107742963Y-108877726D01*
X107629695Y-109047244D01*
X107551674Y-109235602D01*
X107511900Y-109435561D01*
X92788700Y-109435561D01*
X92788700Y-108683857D01*
X92953812Y-108716700D01*
X93177388Y-108716700D01*
X93396667Y-108673083D01*
X93603224Y-108587524D01*
X93789120Y-108463312D01*
X93947212Y-108305220D01*
X94071424Y-108119324D01*
X94156983Y-107912767D01*
X94200600Y-107693488D01*
X94200600Y-107469912D01*
X94156983Y-107250633D01*
X94071424Y-107044076D01*
X93947212Y-106858180D01*
X93789120Y-106700088D01*
X93603224Y-106575876D01*
X93396667Y-106490317D01*
X93177388Y-106446700D01*
X92953812Y-106446700D01*
X92788700Y-106479543D01*
X92788700Y-105285512D01*
X93480000Y-105285512D01*
X93480000Y-105509088D01*
X93523617Y-105728367D01*
X93609176Y-105934924D01*
X93733388Y-106120820D01*
X93891480Y-106278912D01*
X94077376Y-106403124D01*
X94283933Y-106488683D01*
X94503212Y-106532300D01*
X94726788Y-106532300D01*
X94946067Y-106488683D01*
X95152624Y-106403124D01*
X95338520Y-106278912D01*
X95496612Y-106120820D01*
X95620824Y-105934924D01*
X95706383Y-105728367D01*
X95750000Y-105509088D01*
X95750000Y-105298212D01*
X96172400Y-105298212D01*
X96172400Y-105521788D01*
X96216017Y-105741067D01*
X96301576Y-105947624D01*
X96425788Y-106133520D01*
X96583880Y-106291612D01*
X96769776Y-106415824D01*
X96976333Y-106501383D01*
X97029868Y-106512032D01*
X96998376Y-106525076D01*
X96812480Y-106649288D01*
X96654388Y-106807380D01*
X96530176Y-106993276D01*
X96444617Y-107199833D01*
X96401000Y-107419112D01*
X96401000Y-107642688D01*
X96444617Y-107861967D01*
X96530176Y-108068524D01*
X96654388Y-108254420D01*
X96812480Y-108412512D01*
X96998376Y-108536724D01*
X97204933Y-108622283D01*
X97424212Y-108665900D01*
X97647788Y-108665900D01*
X97867067Y-108622283D01*
X98073624Y-108536724D01*
X98259520Y-108412512D01*
X98417612Y-108254420D01*
X98541824Y-108068524D01*
X98627383Y-107861967D01*
X98671000Y-107642688D01*
X98671000Y-107419112D01*
X98667907Y-107403561D01*
X127247700Y-107403561D01*
X127247700Y-107607439D01*
X127287474Y-107807398D01*
X127365495Y-107995756D01*
X127478763Y-108165274D01*
X127622926Y-108309437D01*
X127792444Y-108422705D01*
X127980802Y-108500726D01*
X128180761Y-108540500D01*
X128384639Y-108540500D01*
X128584598Y-108500726D01*
X128772956Y-108422705D01*
X128942474Y-108309437D01*
X129086637Y-108165274D01*
X129199905Y-107995756D01*
X129277926Y-107807398D01*
X129317700Y-107607439D01*
X129317700Y-107403561D01*
X129277926Y-107203602D01*
X129199905Y-107015244D01*
X129086637Y-106845726D01*
X128942474Y-106701563D01*
X128772956Y-106588295D01*
X128584598Y-106510274D01*
X128384639Y-106470500D01*
X128180761Y-106470500D01*
X127980802Y-106510274D01*
X127792444Y-106588295D01*
X127622926Y-106701563D01*
X127478763Y-106845726D01*
X127365495Y-107015244D01*
X127287474Y-107203602D01*
X127247700Y-107403561D01*
X98667907Y-107403561D01*
X98627383Y-107199833D01*
X98541824Y-106993276D01*
X98417612Y-106807380D01*
X98259520Y-106649288D01*
X98073624Y-106525076D01*
X97867067Y-106439517D01*
X97813532Y-106428868D01*
X97845024Y-106415824D01*
X98030920Y-106291612D01*
X98189012Y-106133520D01*
X98313224Y-105947624D01*
X98398783Y-105741067D01*
X98442400Y-105521788D01*
X98442400Y-105298212D01*
X98398783Y-105078933D01*
X98313224Y-104872376D01*
X98189012Y-104686480D01*
X98030920Y-104528388D01*
X97981343Y-104495261D01*
X113379300Y-104495261D01*
X113379300Y-104699139D01*
X113419074Y-104899098D01*
X113497095Y-105087456D01*
X113610363Y-105256974D01*
X113754526Y-105401137D01*
X113924044Y-105514405D01*
X114112402Y-105592426D01*
X114312361Y-105632200D01*
X114516239Y-105632200D01*
X114716198Y-105592426D01*
X114904556Y-105514405D01*
X115074074Y-105401137D01*
X115218237Y-105256974D01*
X115331505Y-105087456D01*
X115409526Y-104899098D01*
X115449300Y-104699139D01*
X115449300Y-104495261D01*
X115409526Y-104295302D01*
X115388964Y-104245661D01*
X121118700Y-104245661D01*
X121118700Y-104449539D01*
X121158474Y-104649498D01*
X121236495Y-104837856D01*
X121349763Y-105007374D01*
X121493926Y-105151537D01*
X121564762Y-105198868D01*
X121539626Y-105215663D01*
X121395463Y-105359826D01*
X121282195Y-105529344D01*
X121204174Y-105717702D01*
X121164400Y-105917661D01*
X121164400Y-106121539D01*
X121204174Y-106321498D01*
X121282195Y-106509856D01*
X121395463Y-106679374D01*
X121539626Y-106823537D01*
X121709144Y-106936805D01*
X121897502Y-107014826D01*
X122097461Y-107054600D01*
X122301339Y-107054600D01*
X122501298Y-107014826D01*
X122689656Y-106936805D01*
X122859174Y-106823537D01*
X123003337Y-106679374D01*
X123116605Y-106509856D01*
X123194626Y-106321498D01*
X123234400Y-106121539D01*
X123234400Y-105917661D01*
X123194626Y-105717702D01*
X123116605Y-105529344D01*
X123003337Y-105359826D01*
X122859174Y-105215663D01*
X122788338Y-105168332D01*
X122813474Y-105151537D01*
X122957637Y-105007374D01*
X123070905Y-104837856D01*
X123148926Y-104649498D01*
X123188700Y-104449539D01*
X123188700Y-104245661D01*
X123148926Y-104045702D01*
X123070905Y-103857344D01*
X122957637Y-103687826D01*
X122813474Y-103543663D01*
X122643956Y-103430395D01*
X122455598Y-103352374D01*
X122255639Y-103312600D01*
X122051761Y-103312600D01*
X121851802Y-103352374D01*
X121663444Y-103430395D01*
X121493926Y-103543663D01*
X121349763Y-103687826D01*
X121236495Y-103857344D01*
X121158474Y-104045702D01*
X121118700Y-104245661D01*
X115388964Y-104245661D01*
X115331505Y-104106944D01*
X115218237Y-103937426D01*
X115074074Y-103793263D01*
X114904556Y-103679995D01*
X114716198Y-103601974D01*
X114516239Y-103562200D01*
X114312361Y-103562200D01*
X114112402Y-103601974D01*
X113924044Y-103679995D01*
X113754526Y-103793263D01*
X113610363Y-103937426D01*
X113497095Y-104106944D01*
X113419074Y-104295302D01*
X113379300Y-104495261D01*
X97981343Y-104495261D01*
X97845024Y-104404176D01*
X97638467Y-104318617D01*
X97419188Y-104275000D01*
X97195612Y-104275000D01*
X96976333Y-104318617D01*
X96769776Y-104404176D01*
X96583880Y-104528388D01*
X96425788Y-104686480D01*
X96301576Y-104872376D01*
X96216017Y-105078933D01*
X96172400Y-105298212D01*
X95750000Y-105298212D01*
X95750000Y-105285512D01*
X95706383Y-105066233D01*
X95620824Y-104859676D01*
X95496612Y-104673780D01*
X95338520Y-104515688D01*
X95152624Y-104391476D01*
X94946067Y-104305917D01*
X94726788Y-104262300D01*
X94503212Y-104262300D01*
X94283933Y-104305917D01*
X94077376Y-104391476D01*
X93891480Y-104515688D01*
X93733388Y-104673780D01*
X93609176Y-104859676D01*
X93523617Y-105066233D01*
X93480000Y-105285512D01*
X92788700Y-105285512D01*
X92788700Y-92347600D01*
X94465628Y-92347600D01*
X94465628Y-94047600D01*
X94477888Y-94172082D01*
X94514198Y-94291780D01*
X94573163Y-94402094D01*
X94652515Y-94498785D01*
X94749206Y-94578137D01*
X94859520Y-94637102D01*
X94932080Y-94659113D01*
X94800225Y-94790968D01*
X94637710Y-95034189D01*
X94525768Y-95304442D01*
X94468700Y-95591340D01*
X94468700Y-95883860D01*
X94525768Y-96170758D01*
X94637710Y-96441011D01*
X94800225Y-96684232D01*
X95007068Y-96891075D01*
X95181460Y-97007600D01*
X95007068Y-97124125D01*
X94800225Y-97330968D01*
X94637710Y-97574189D01*
X94525768Y-97844442D01*
X94468700Y-98131340D01*
X94468700Y-98423860D01*
X94525768Y-98710758D01*
X94637710Y-98981011D01*
X94800225Y-99224232D01*
X95007068Y-99431075D01*
X95181460Y-99547600D01*
X95007068Y-99664125D01*
X94800225Y-99870968D01*
X94637710Y-100114189D01*
X94525768Y-100384442D01*
X94468700Y-100671340D01*
X94468700Y-100963860D01*
X94525768Y-101250758D01*
X94637710Y-101521011D01*
X94800225Y-101764232D01*
X95007068Y-101971075D01*
X95250289Y-102133590D01*
X95520542Y-102245532D01*
X95807440Y-102302600D01*
X96099960Y-102302600D01*
X96386858Y-102245532D01*
X96657111Y-102133590D01*
X96900332Y-101971075D01*
X97107175Y-101764232D01*
X97223700Y-101589840D01*
X97340225Y-101764232D01*
X97547068Y-101971075D01*
X97790289Y-102133590D01*
X98060542Y-102245532D01*
X98347440Y-102302600D01*
X98639960Y-102302600D01*
X98926858Y-102245532D01*
X99197111Y-102133590D01*
X99440332Y-101971075D01*
X99647175Y-101764232D01*
X99809690Y-101521011D01*
X99921632Y-101250758D01*
X99978700Y-100963860D01*
X99978700Y-100863061D01*
X100895200Y-100863061D01*
X100895200Y-101066939D01*
X100934974Y-101266898D01*
X101012995Y-101455256D01*
X101126263Y-101624774D01*
X101270426Y-101768937D01*
X101439944Y-101882205D01*
X101628302Y-101960226D01*
X101828261Y-102000000D01*
X102032139Y-102000000D01*
X102232098Y-101960226D01*
X102420456Y-101882205D01*
X102589974Y-101768937D01*
X102734137Y-101624774D01*
X102847405Y-101455256D01*
X102925426Y-101266898D01*
X102965200Y-101066939D01*
X102965200Y-100863061D01*
X102925426Y-100663102D01*
X102847405Y-100474744D01*
X102734137Y-100305226D01*
X102589974Y-100161063D01*
X102420456Y-100047795D01*
X102232098Y-99969774D01*
X102032139Y-99930000D01*
X101828261Y-99930000D01*
X101628302Y-99969774D01*
X101439944Y-100047795D01*
X101270426Y-100161063D01*
X101126263Y-100305226D01*
X101012995Y-100474744D01*
X100934974Y-100663102D01*
X100895200Y-100863061D01*
X99978700Y-100863061D01*
X99978700Y-100671340D01*
X99921632Y-100384442D01*
X99809690Y-100114189D01*
X99647175Y-99870968D01*
X99440332Y-99664125D01*
X99265940Y-99547600D01*
X99440332Y-99431075D01*
X99647175Y-99224232D01*
X99809690Y-98981011D01*
X99921632Y-98710758D01*
X99978700Y-98423860D01*
X99978700Y-98131340D01*
X99951155Y-97992861D01*
X100933300Y-97992861D01*
X100933300Y-98196739D01*
X100973074Y-98396698D01*
X101051095Y-98585056D01*
X101164363Y-98754574D01*
X101308526Y-98898737D01*
X101478044Y-99012005D01*
X101666402Y-99090026D01*
X101866361Y-99129800D01*
X102070239Y-99129800D01*
X102270198Y-99090026D01*
X102458556Y-99012005D01*
X102628074Y-98898737D01*
X102772237Y-98754574D01*
X102885505Y-98585056D01*
X102963526Y-98396698D01*
X103003300Y-98196739D01*
X103003300Y-97992861D01*
X102963526Y-97792902D01*
X102885505Y-97604544D01*
X102772237Y-97435026D01*
X102628074Y-97290863D01*
X102458556Y-97177595D01*
X102270198Y-97099574D01*
X102070239Y-97059800D01*
X101866361Y-97059800D01*
X101666402Y-97099574D01*
X101478044Y-97177595D01*
X101308526Y-97290863D01*
X101164363Y-97435026D01*
X101051095Y-97604544D01*
X100973074Y-97792902D01*
X100933300Y-97992861D01*
X99951155Y-97992861D01*
X99921632Y-97844442D01*
X99809690Y-97574189D01*
X99647175Y-97330968D01*
X99440332Y-97124125D01*
X99265940Y-97007600D01*
X99440332Y-96891075D01*
X99647175Y-96684232D01*
X99809690Y-96441011D01*
X99921632Y-96170758D01*
X99978700Y-95883860D01*
X99978700Y-95591340D01*
X99958734Y-95490961D01*
X100869800Y-95490961D01*
X100869800Y-95694839D01*
X100909574Y-95894798D01*
X100987595Y-96083156D01*
X101100863Y-96252674D01*
X101245026Y-96396837D01*
X101414544Y-96510105D01*
X101602902Y-96588126D01*
X101802861Y-96627900D01*
X102006739Y-96627900D01*
X102206698Y-96588126D01*
X102395056Y-96510105D01*
X102564574Y-96396837D01*
X102708737Y-96252674D01*
X102822005Y-96083156D01*
X102900026Y-95894798D01*
X102939800Y-95694839D01*
X102939800Y-95490961D01*
X102900026Y-95291002D01*
X102822005Y-95102644D01*
X102708737Y-94933126D01*
X102564574Y-94788963D01*
X102395056Y-94675695D01*
X102206698Y-94597674D01*
X102006739Y-94557900D01*
X101802861Y-94557900D01*
X101602902Y-94597674D01*
X101414544Y-94675695D01*
X101245026Y-94788963D01*
X101100863Y-94933126D01*
X100987595Y-95102644D01*
X100909574Y-95291002D01*
X100869800Y-95490961D01*
X99958734Y-95490961D01*
X99921632Y-95304442D01*
X99809690Y-95034189D01*
X99647175Y-94790968D01*
X99440332Y-94584125D01*
X99265940Y-94467600D01*
X99440332Y-94351075D01*
X99647175Y-94144232D01*
X99809690Y-93901011D01*
X99921632Y-93630758D01*
X99978700Y-93343860D01*
X99978700Y-93179561D01*
X100895200Y-93179561D01*
X100895200Y-93383439D01*
X100934974Y-93583398D01*
X101012995Y-93771756D01*
X101126263Y-93941274D01*
X101270426Y-94085437D01*
X101439944Y-94198705D01*
X101628302Y-94276726D01*
X101828261Y-94316500D01*
X102032139Y-94316500D01*
X102232098Y-94276726D01*
X102420456Y-94198705D01*
X102589974Y-94085437D01*
X102734137Y-93941274D01*
X102784467Y-93865949D01*
X104558507Y-93865949D01*
X104558507Y-98865949D01*
X104560947Y-98890725D01*
X104568174Y-98914550D01*
X104579910Y-98936506D01*
X104595704Y-98955752D01*
X104614950Y-98971546D01*
X104636906Y-98983282D01*
X104660731Y-98990509D01*
X104685507Y-98992949D01*
X105806296Y-98992949D01*
X105751286Y-102180037D01*
X105753298Y-102204852D01*
X105760113Y-102228798D01*
X105771468Y-102250954D01*
X105786928Y-102270468D01*
X105805898Y-102286592D01*
X105827649Y-102298705D01*
X105851345Y-102306343D01*
X105878267Y-102309229D01*
X111187260Y-102309229D01*
X111159263Y-102337226D01*
X111045995Y-102506744D01*
X110967974Y-102695102D01*
X110928200Y-102895061D01*
X110928200Y-103098939D01*
X110967974Y-103298898D01*
X111045995Y-103487256D01*
X111159263Y-103656774D01*
X111303426Y-103800937D01*
X111472944Y-103914205D01*
X111661302Y-103992226D01*
X111861261Y-104032000D01*
X112065139Y-104032000D01*
X112265098Y-103992226D01*
X112453456Y-103914205D01*
X112622974Y-103800937D01*
X112767137Y-103656774D01*
X112880405Y-103487256D01*
X112958426Y-103298898D01*
X112998200Y-103098939D01*
X112998200Y-102895061D01*
X112958426Y-102695102D01*
X112880405Y-102506744D01*
X112767137Y-102337226D01*
X112709212Y-102279301D01*
X112718070Y-102272032D01*
X112733864Y-102252786D01*
X112745600Y-102230830D01*
X112752827Y-102207005D01*
X112755228Y-102185366D01*
X112774095Y-101421861D01*
X130867200Y-101421861D01*
X130867200Y-101625739D01*
X130906974Y-101825698D01*
X130984995Y-102014056D01*
X131098263Y-102183574D01*
X131242426Y-102327737D01*
X131411944Y-102441005D01*
X131600302Y-102519026D01*
X131800261Y-102558800D01*
X132004139Y-102558800D01*
X132204098Y-102519026D01*
X132392456Y-102441005D01*
X132448386Y-102403634D01*
X132580344Y-102491805D01*
X132768702Y-102569826D01*
X132968661Y-102609600D01*
X133172539Y-102609600D01*
X133372498Y-102569826D01*
X133560856Y-102491805D01*
X133658040Y-102426869D01*
X133812244Y-102529905D01*
X134000602Y-102607926D01*
X134200561Y-102647700D01*
X134404439Y-102647700D01*
X134604398Y-102607926D01*
X134792756Y-102529905D01*
X134899357Y-102458677D01*
X134967944Y-102504505D01*
X135156302Y-102582526D01*
X135356261Y-102622300D01*
X135560139Y-102622300D01*
X135760098Y-102582526D01*
X135948456Y-102504505D01*
X136117974Y-102391237D01*
X136262137Y-102247074D01*
X136375405Y-102077556D01*
X136453426Y-101889198D01*
X136493200Y-101689239D01*
X136493200Y-101485361D01*
X136453426Y-101285402D01*
X136375405Y-101097044D01*
X136262137Y-100927526D01*
X136117974Y-100783363D01*
X135948456Y-100670095D01*
X135760098Y-100592074D01*
X135560139Y-100552300D01*
X135356261Y-100552300D01*
X135156302Y-100592074D01*
X134967944Y-100670095D01*
X134861343Y-100741323D01*
X134792756Y-100695495D01*
X134604398Y-100617474D01*
X134404439Y-100577700D01*
X134200561Y-100577700D01*
X134000602Y-100617474D01*
X133812244Y-100695495D01*
X133715060Y-100760431D01*
X133560856Y-100657395D01*
X133372498Y-100579374D01*
X133172539Y-100539600D01*
X132968661Y-100539600D01*
X132768702Y-100579374D01*
X132580344Y-100657395D01*
X132524414Y-100694766D01*
X132392456Y-100606595D01*
X132204098Y-100528574D01*
X132004139Y-100488800D01*
X131800261Y-100488800D01*
X131600302Y-100528574D01*
X131411944Y-100606595D01*
X131242426Y-100719863D01*
X131098263Y-100864026D01*
X130984995Y-101033544D01*
X130906974Y-101221902D01*
X130867200Y-101421861D01*
X112774095Y-101421861D01*
X112809407Y-99992949D01*
X114185507Y-99992949D01*
X114210283Y-99990509D01*
X114234108Y-99983282D01*
X114256064Y-99971546D01*
X114275310Y-99955752D01*
X114291104Y-99936506D01*
X114302840Y-99914550D01*
X114310067Y-99890725D01*
X114312507Y-99865949D01*
X114312507Y-98242949D01*
X114935507Y-98242949D01*
X114960283Y-98240509D01*
X114984108Y-98233282D01*
X115006064Y-98221546D01*
X115025310Y-98205752D01*
X115041104Y-98186506D01*
X115052840Y-98164550D01*
X115060067Y-98140725D01*
X115062056Y-98105253D01*
X115057183Y-98047600D01*
X136165628Y-98047600D01*
X136165628Y-99747600D01*
X136177888Y-99872082D01*
X136214198Y-99991780D01*
X136273163Y-100102094D01*
X136352515Y-100198785D01*
X136449206Y-100278137D01*
X136559520Y-100337102D01*
X136679218Y-100373412D01*
X136803700Y-100385672D01*
X138503700Y-100385672D01*
X138628182Y-100373412D01*
X138747880Y-100337102D01*
X138858194Y-100278137D01*
X138954885Y-100198785D01*
X139034237Y-100102094D01*
X139093202Y-99991780D01*
X139129512Y-99872082D01*
X139141772Y-99747600D01*
X139141772Y-98047600D01*
X139129512Y-97923118D01*
X139093202Y-97803420D01*
X139034237Y-97693106D01*
X138954885Y-97596415D01*
X138858194Y-97517063D01*
X138747880Y-97458098D01*
X138675320Y-97436087D01*
X138807175Y-97304232D01*
X138969690Y-97061011D01*
X139081632Y-96790758D01*
X139138700Y-96503860D01*
X139138700Y-96211340D01*
X139081632Y-95924442D01*
X138969690Y-95654189D01*
X138807175Y-95410968D01*
X138600332Y-95204125D01*
X138357111Y-95041610D01*
X138086858Y-94929668D01*
X137799960Y-94872600D01*
X137507440Y-94872600D01*
X137220542Y-94929668D01*
X136950289Y-95041610D01*
X136707068Y-95204125D01*
X136500225Y-95410968D01*
X136337710Y-95654189D01*
X136225768Y-95924442D01*
X136168700Y-96211340D01*
X136168700Y-96503860D01*
X136225768Y-96790758D01*
X136337710Y-97061011D01*
X136500225Y-97304232D01*
X136632080Y-97436087D01*
X136559520Y-97458098D01*
X136449206Y-97517063D01*
X136352515Y-97596415D01*
X136273163Y-97693106D01*
X136214198Y-97803420D01*
X136177888Y-97923118D01*
X136165628Y-98047600D01*
X115057183Y-98047600D01*
X114951219Y-96793931D01*
X116634256Y-96750724D01*
X116710195Y-96934056D01*
X116823463Y-97103574D01*
X116967626Y-97247737D01*
X117137144Y-97361005D01*
X117325502Y-97439026D01*
X117525461Y-97478800D01*
X117729339Y-97478800D01*
X117929298Y-97439026D01*
X118117656Y-97361005D01*
X118287174Y-97247737D01*
X118431337Y-97103574D01*
X118544605Y-96934056D01*
X118622626Y-96745698D01*
X118662400Y-96545739D01*
X118662400Y-96341861D01*
X118622626Y-96141902D01*
X118544605Y-95953544D01*
X118431337Y-95784026D01*
X118287174Y-95639863D01*
X118117656Y-95526595D01*
X117929298Y-95448574D01*
X117729339Y-95408800D01*
X117525461Y-95408800D01*
X117325502Y-95448574D01*
X117137144Y-95526595D01*
X117062507Y-95576466D01*
X117062507Y-94115949D01*
X117060067Y-94091173D01*
X117052840Y-94067348D01*
X117041104Y-94045392D01*
X117025310Y-94026146D01*
X117006064Y-94010352D01*
X116984108Y-93998616D01*
X116960283Y-93991389D01*
X116936837Y-93988956D01*
X114124076Y-93959491D01*
X114148926Y-93899498D01*
X114188700Y-93699539D01*
X114188700Y-93662161D01*
X131108500Y-93662161D01*
X131108500Y-93866039D01*
X131148274Y-94065998D01*
X131226295Y-94254356D01*
X131339563Y-94423874D01*
X131483726Y-94568037D01*
X131653244Y-94681305D01*
X131841602Y-94759326D01*
X132041561Y-94799100D01*
X132245439Y-94799100D01*
X132445398Y-94759326D01*
X132633756Y-94681305D01*
X132803274Y-94568037D01*
X132947437Y-94423874D01*
X133060705Y-94254356D01*
X133138726Y-94065998D01*
X133178500Y-93866039D01*
X133178500Y-93662161D01*
X133138726Y-93462202D01*
X133060705Y-93273844D01*
X132947437Y-93104326D01*
X132803274Y-92960163D01*
X132633756Y-92846895D01*
X132445398Y-92768874D01*
X132245439Y-92729100D01*
X132041561Y-92729100D01*
X131841602Y-92768874D01*
X131653244Y-92846895D01*
X131483726Y-92960163D01*
X131339563Y-93104326D01*
X131226295Y-93273844D01*
X131148274Y-93462202D01*
X131108500Y-93662161D01*
X114188700Y-93662161D01*
X114188700Y-93495661D01*
X114148926Y-93295702D01*
X114070905Y-93107344D01*
X113980872Y-92972600D01*
X114070905Y-92837856D01*
X114148926Y-92649498D01*
X114188700Y-92449539D01*
X114188700Y-92245661D01*
X114148926Y-92045702D01*
X114070905Y-91857344D01*
X113957637Y-91687826D01*
X113813474Y-91543663D01*
X113643956Y-91430395D01*
X113455598Y-91352374D01*
X113255639Y-91312600D01*
X113051761Y-91312600D01*
X112851802Y-91352374D01*
X112775085Y-91384151D01*
X112785678Y-90502765D01*
X112783535Y-90477961D01*
X112776595Y-90454052D01*
X112765124Y-90431956D01*
X112749562Y-90412522D01*
X112730508Y-90396498D01*
X112708694Y-90384499D01*
X112684959Y-90376986D01*
X112657858Y-90374242D01*
X105727578Y-90419492D01*
X105702818Y-90422094D01*
X105679041Y-90429476D01*
X105657162Y-90441355D01*
X105638020Y-90457275D01*
X105622352Y-90476623D01*
X105610759Y-90498655D01*
X105603688Y-90522526D01*
X105601418Y-90544848D01*
X105560138Y-93738949D01*
X104685507Y-93738949D01*
X104660731Y-93741389D01*
X104636906Y-93748616D01*
X104614950Y-93760352D01*
X104595704Y-93776146D01*
X104579910Y-93795392D01*
X104568174Y-93817348D01*
X104560947Y-93841173D01*
X104558507Y-93865949D01*
X102784467Y-93865949D01*
X102847405Y-93771756D01*
X102925426Y-93583398D01*
X102965200Y-93383439D01*
X102965200Y-93179561D01*
X102925426Y-92979602D01*
X102847405Y-92791244D01*
X102734137Y-92621726D01*
X102589974Y-92477563D01*
X102420456Y-92364295D01*
X102232098Y-92286274D01*
X102032139Y-92246500D01*
X101828261Y-92246500D01*
X101628302Y-92286274D01*
X101439944Y-92364295D01*
X101270426Y-92477563D01*
X101126263Y-92621726D01*
X101012995Y-92791244D01*
X100934974Y-92979602D01*
X100895200Y-93179561D01*
X99978700Y-93179561D01*
X99978700Y-93051340D01*
X99921632Y-92764442D01*
X99809690Y-92494189D01*
X99647175Y-92250968D01*
X99440332Y-92044125D01*
X99197111Y-91881610D01*
X98926858Y-91769668D01*
X98639960Y-91712600D01*
X98347440Y-91712600D01*
X98060542Y-91769668D01*
X97790289Y-91881610D01*
X97547068Y-92044125D01*
X97415213Y-92175980D01*
X97393202Y-92103420D01*
X97334237Y-91993106D01*
X97254885Y-91896415D01*
X97158194Y-91817063D01*
X97047880Y-91758098D01*
X96928182Y-91721788D01*
X96803700Y-91709528D01*
X95103700Y-91709528D01*
X94979218Y-91721788D01*
X94859520Y-91758098D01*
X94749206Y-91817063D01*
X94652515Y-91896415D01*
X94573163Y-91993106D01*
X94514198Y-92103420D01*
X94477888Y-92223118D01*
X94465628Y-92347600D01*
X92788700Y-92347600D01*
X92788700Y-90055361D01*
X114331800Y-90055361D01*
X114331800Y-90259239D01*
X114371574Y-90459198D01*
X114449595Y-90647556D01*
X114562863Y-90817074D01*
X114707026Y-90961237D01*
X114876544Y-91074505D01*
X115064902Y-91152526D01*
X115264861Y-91192300D01*
X115468739Y-91192300D01*
X115668698Y-91152526D01*
X115857056Y-91074505D01*
X116026574Y-90961237D01*
X116072691Y-90915120D01*
X143982808Y-90915120D01*
X143982808Y-92615120D01*
X143995068Y-92739602D01*
X144031378Y-92859300D01*
X144090343Y-92969614D01*
X144169695Y-93066305D01*
X144266386Y-93145657D01*
X144376700Y-93204622D01*
X144449260Y-93226633D01*
X144317405Y-93358488D01*
X144154890Y-93601709D01*
X144042948Y-93871962D01*
X143985880Y-94158860D01*
X143985880Y-94451380D01*
X144042948Y-94738278D01*
X144154890Y-95008531D01*
X144317405Y-95251752D01*
X144524248Y-95458595D01*
X144698640Y-95575120D01*
X144524248Y-95691645D01*
X144317405Y-95898488D01*
X144154890Y-96141709D01*
X144042948Y-96411962D01*
X143985880Y-96698860D01*
X143985880Y-96991380D01*
X144042948Y-97278278D01*
X144154890Y-97548531D01*
X144317405Y-97791752D01*
X144524248Y-97998595D01*
X144698640Y-98115120D01*
X144524248Y-98231645D01*
X144317405Y-98438488D01*
X144154890Y-98681709D01*
X144042948Y-98951962D01*
X143985880Y-99238860D01*
X143985880Y-99531380D01*
X144042948Y-99818278D01*
X144154890Y-100088531D01*
X144317405Y-100331752D01*
X144524248Y-100538595D01*
X144767469Y-100701110D01*
X145037722Y-100813052D01*
X145324620Y-100870120D01*
X145617140Y-100870120D01*
X145904038Y-100813052D01*
X146174291Y-100701110D01*
X146417512Y-100538595D01*
X146624355Y-100331752D01*
X146740880Y-100157360D01*
X146857405Y-100331752D01*
X147064248Y-100538595D01*
X147307469Y-100701110D01*
X147577722Y-100813052D01*
X147864620Y-100870120D01*
X148157140Y-100870120D01*
X148444038Y-100813052D01*
X148714291Y-100701110D01*
X148957512Y-100538595D01*
X149164355Y-100331752D01*
X149326870Y-100088531D01*
X149438812Y-99818278D01*
X149495880Y-99531380D01*
X149495880Y-99238860D01*
X149438812Y-98951962D01*
X149326870Y-98681709D01*
X149164355Y-98438488D01*
X148957512Y-98231645D01*
X148783120Y-98115120D01*
X148957512Y-97998595D01*
X149164355Y-97791752D01*
X149326870Y-97548531D01*
X149438812Y-97278278D01*
X149495880Y-96991380D01*
X149495880Y-96698860D01*
X149438812Y-96411962D01*
X149326870Y-96141709D01*
X149164355Y-95898488D01*
X148957512Y-95691645D01*
X148783120Y-95575120D01*
X148957512Y-95458595D01*
X149164355Y-95251752D01*
X149326870Y-95008531D01*
X149438812Y-94738278D01*
X149495880Y-94451380D01*
X149495880Y-94158860D01*
X149438812Y-93871962D01*
X149326870Y-93601709D01*
X149164355Y-93358488D01*
X148957512Y-93151645D01*
X148783120Y-93035120D01*
X148957512Y-92918595D01*
X149164355Y-92711752D01*
X149326870Y-92468531D01*
X149438812Y-92198278D01*
X149495880Y-91911380D01*
X149495880Y-91618860D01*
X149438812Y-91331962D01*
X149326870Y-91061709D01*
X149164355Y-90818488D01*
X148957512Y-90611645D01*
X148714291Y-90449130D01*
X148444038Y-90337188D01*
X148157140Y-90280120D01*
X147864620Y-90280120D01*
X147577722Y-90337188D01*
X147307469Y-90449130D01*
X147064248Y-90611645D01*
X146932393Y-90743500D01*
X146910382Y-90670940D01*
X146851417Y-90560626D01*
X146772065Y-90463935D01*
X146675374Y-90384583D01*
X146565060Y-90325618D01*
X146445362Y-90289308D01*
X146320880Y-90277048D01*
X144620880Y-90277048D01*
X144496398Y-90289308D01*
X144376700Y-90325618D01*
X144266386Y-90384583D01*
X144169695Y-90463935D01*
X144090343Y-90560626D01*
X144031378Y-90670940D01*
X143995068Y-90790638D01*
X143982808Y-90915120D01*
X116072691Y-90915120D01*
X116170737Y-90817074D01*
X116284005Y-90647556D01*
X116362026Y-90459198D01*
X116401800Y-90259239D01*
X116401800Y-90055361D01*
X116362026Y-89855402D01*
X116284005Y-89667044D01*
X116170737Y-89497526D01*
X116042772Y-89369561D01*
X117481400Y-89369561D01*
X117481400Y-89573439D01*
X117521174Y-89773398D01*
X117599195Y-89961756D01*
X117712463Y-90131274D01*
X117856626Y-90275437D01*
X118026144Y-90388705D01*
X118214502Y-90466726D01*
X118414461Y-90506500D01*
X118618339Y-90506500D01*
X118818298Y-90466726D01*
X119006656Y-90388705D01*
X119176174Y-90275437D01*
X119320337Y-90131274D01*
X119433605Y-89961756D01*
X119511626Y-89773398D01*
X119551400Y-89573439D01*
X119551400Y-89369561D01*
X119526755Y-89245661D01*
X122368700Y-89245661D01*
X122368700Y-89449539D01*
X122408474Y-89649498D01*
X122486495Y-89837856D01*
X122599763Y-90007374D01*
X122743926Y-90151537D01*
X122913444Y-90264805D01*
X123101802Y-90342826D01*
X123301761Y-90382600D01*
X123505639Y-90382600D01*
X123705598Y-90342826D01*
X123893956Y-90264805D01*
X123903700Y-90258294D01*
X123913444Y-90264805D01*
X124101802Y-90342826D01*
X124301761Y-90382600D01*
X124505639Y-90382600D01*
X124705598Y-90342826D01*
X124867396Y-90275807D01*
X124892426Y-90300837D01*
X125061944Y-90414105D01*
X125250302Y-90492126D01*
X125450261Y-90531900D01*
X125654139Y-90531900D01*
X125854098Y-90492126D01*
X126042456Y-90414105D01*
X126211974Y-90300837D01*
X126356137Y-90156674D01*
X126469405Y-89987156D01*
X126547426Y-89798798D01*
X126587200Y-89598839D01*
X126587200Y-89394961D01*
X126547426Y-89195002D01*
X126469405Y-89006644D01*
X126356137Y-88837126D01*
X126211974Y-88692963D01*
X126042456Y-88579695D01*
X125854098Y-88501674D01*
X125654139Y-88461900D01*
X125450261Y-88461900D01*
X125250302Y-88501674D01*
X125088504Y-88568693D01*
X125063474Y-88543663D01*
X124893956Y-88430395D01*
X124705598Y-88352374D01*
X124505639Y-88312600D01*
X124301761Y-88312600D01*
X124101802Y-88352374D01*
X123913444Y-88430395D01*
X123903700Y-88436906D01*
X123893956Y-88430395D01*
X123705598Y-88352374D01*
X123505639Y-88312600D01*
X123301761Y-88312600D01*
X123101802Y-88352374D01*
X122913444Y-88430395D01*
X122743926Y-88543663D01*
X122599763Y-88687826D01*
X122486495Y-88857344D01*
X122408474Y-89045702D01*
X122368700Y-89245661D01*
X119526755Y-89245661D01*
X119511626Y-89169602D01*
X119433605Y-88981244D01*
X119320337Y-88811726D01*
X119176174Y-88667563D01*
X119006656Y-88554295D01*
X118818298Y-88476274D01*
X118618339Y-88436500D01*
X118414461Y-88436500D01*
X118214502Y-88476274D01*
X118026144Y-88554295D01*
X117856626Y-88667563D01*
X117712463Y-88811726D01*
X117599195Y-88981244D01*
X117521174Y-89169602D01*
X117481400Y-89369561D01*
X116042772Y-89369561D01*
X116026574Y-89353363D01*
X115857056Y-89240095D01*
X115668698Y-89162074D01*
X115468739Y-89122300D01*
X115264861Y-89122300D01*
X115064902Y-89162074D01*
X114876544Y-89240095D01*
X114707026Y-89353363D01*
X114562863Y-89497526D01*
X114449595Y-89667044D01*
X114371574Y-89855402D01*
X114331800Y-90055361D01*
X92788700Y-90055361D01*
X92788700Y-88378961D01*
X112693500Y-88378961D01*
X112693500Y-88582839D01*
X112733274Y-88782798D01*
X112811295Y-88971156D01*
X112924563Y-89140674D01*
X113068726Y-89284837D01*
X113238244Y-89398105D01*
X113426602Y-89476126D01*
X113626561Y-89515900D01*
X113830439Y-89515900D01*
X114030398Y-89476126D01*
X114218756Y-89398105D01*
X114388274Y-89284837D01*
X114532437Y-89140674D01*
X114645705Y-88971156D01*
X114723726Y-88782798D01*
X114763500Y-88582839D01*
X114763500Y-88378961D01*
X114723726Y-88179002D01*
X114645705Y-87990644D01*
X114532437Y-87821126D01*
X114388274Y-87676963D01*
X114218756Y-87563695D01*
X114030398Y-87485674D01*
X113830439Y-87445900D01*
X113626561Y-87445900D01*
X113426602Y-87485674D01*
X113238244Y-87563695D01*
X113068726Y-87676963D01*
X112924563Y-87821126D01*
X112811295Y-87990644D01*
X112733274Y-88179002D01*
X112693500Y-88378961D01*
X92788700Y-88378961D01*
X92788700Y-87126741D01*
X109013040Y-87126741D01*
X109013040Y-87330619D01*
X109052814Y-87530578D01*
X109130835Y-87718936D01*
X109244103Y-87888454D01*
X109388266Y-88032617D01*
X109557784Y-88145885D01*
X109746142Y-88223906D01*
X109946101Y-88263680D01*
X110149979Y-88263680D01*
X110349938Y-88223906D01*
X110538296Y-88145885D01*
X110707814Y-88032617D01*
X110851977Y-87888454D01*
X110965245Y-87718936D01*
X111043266Y-87530578D01*
X111083040Y-87330619D01*
X111083040Y-87126741D01*
X111049190Y-86956561D01*
X132315000Y-86956561D01*
X132315000Y-87160439D01*
X132354774Y-87360398D01*
X132432795Y-87548756D01*
X132546063Y-87718274D01*
X132690226Y-87862437D01*
X132859744Y-87975705D01*
X133048102Y-88053726D01*
X133248061Y-88093500D01*
X133451939Y-88093500D01*
X133651898Y-88053726D01*
X133840256Y-87975705D01*
X134009774Y-87862437D01*
X134153937Y-87718274D01*
X134267205Y-87548756D01*
X134345226Y-87360398D01*
X134385000Y-87160439D01*
X134385000Y-86956561D01*
X134345226Y-86756602D01*
X134267205Y-86568244D01*
X134153937Y-86398726D01*
X134009774Y-86254563D01*
X133840256Y-86141295D01*
X133651898Y-86063274D01*
X133451939Y-86023500D01*
X133248061Y-86023500D01*
X133048102Y-86063274D01*
X132859744Y-86141295D01*
X132690226Y-86254563D01*
X132546063Y-86398726D01*
X132432795Y-86568244D01*
X132354774Y-86756602D01*
X132315000Y-86956561D01*
X111049190Y-86956561D01*
X111043266Y-86926782D01*
X110965245Y-86738424D01*
X110851977Y-86568906D01*
X110707814Y-86424743D01*
X110538296Y-86311475D01*
X110349938Y-86233454D01*
X110149979Y-86193680D01*
X109946101Y-86193680D01*
X109746142Y-86233454D01*
X109557784Y-86311475D01*
X109388266Y-86424743D01*
X109244103Y-86568906D01*
X109130835Y-86738424D01*
X109052814Y-86926782D01*
X109013040Y-87126741D01*
X92788700Y-87126741D01*
X92788700Y-77907019D01*
X103718700Y-77907019D01*
X103718700Y-78288181D01*
X103793061Y-78662019D01*
X103938925Y-79014166D01*
X104150687Y-79331091D01*
X104420209Y-79600613D01*
X104737134Y-79812375D01*
X105089281Y-79958239D01*
X105463119Y-80032600D01*
X105844281Y-80032600D01*
X106218119Y-79958239D01*
X106570266Y-79812375D01*
X106887191Y-79600613D01*
X107113143Y-79374661D01*
X139287300Y-79374661D01*
X139287300Y-79578539D01*
X139327074Y-79778498D01*
X139405095Y-79966856D01*
X139518363Y-80136374D01*
X139662526Y-80280537D01*
X139832044Y-80393805D01*
X140020402Y-80471826D01*
X140220361Y-80511600D01*
X140424239Y-80511600D01*
X140624198Y-80471826D01*
X140812556Y-80393805D01*
X140982074Y-80280537D01*
X141126237Y-80136374D01*
X141239505Y-79966856D01*
X141317526Y-79778498D01*
X141357300Y-79578539D01*
X141357300Y-79374661D01*
X141317526Y-79174702D01*
X141239505Y-78986344D01*
X141126237Y-78816826D01*
X140982074Y-78672663D01*
X140812556Y-78559395D01*
X140624198Y-78481374D01*
X140424239Y-78441600D01*
X140220361Y-78441600D01*
X140020402Y-78481374D01*
X139832044Y-78559395D01*
X139662526Y-78672663D01*
X139518363Y-78816826D01*
X139405095Y-78986344D01*
X139327074Y-79174702D01*
X139287300Y-79374661D01*
X107113143Y-79374661D01*
X107156713Y-79331091D01*
X107368475Y-79014166D01*
X107514339Y-78662019D01*
X107588700Y-78288181D01*
X107588700Y-77907019D01*
X107514339Y-77533181D01*
X107368475Y-77181034D01*
X107156713Y-76864109D01*
X106887191Y-76594587D01*
X106570266Y-76382825D01*
X106218119Y-76236961D01*
X105844281Y-76162600D01*
X105463119Y-76162600D01*
X105089281Y-76236961D01*
X104737134Y-76382825D01*
X104420209Y-76594587D01*
X104150687Y-76864109D01*
X103938925Y-77181034D01*
X103793061Y-77533181D01*
X103718700Y-77907019D01*
X92788700Y-77907019D01*
X92788700Y-74907019D01*
X108418700Y-74907019D01*
X108418700Y-75288181D01*
X108493061Y-75662019D01*
X108638925Y-76014166D01*
X108850687Y-76331091D01*
X109120209Y-76600613D01*
X109437134Y-76812375D01*
X109789281Y-76958239D01*
X110163119Y-77032600D01*
X110544281Y-77032600D01*
X110918119Y-76958239D01*
X111270266Y-76812375D01*
X111587191Y-76600613D01*
X111856713Y-76331091D01*
X112068475Y-76014166D01*
X112214339Y-75662019D01*
X112288700Y-75288181D01*
X112288700Y-74907019D01*
X112253537Y-74730240D01*
X116652408Y-74730240D01*
X116652408Y-76430240D01*
X116664668Y-76554722D01*
X116700978Y-76674420D01*
X116759943Y-76784734D01*
X116839295Y-76881425D01*
X116935986Y-76960777D01*
X117046300Y-77019742D01*
X117165998Y-77056052D01*
X117290480Y-77068312D01*
X118990480Y-77068312D01*
X119114962Y-77056052D01*
X119234660Y-77019742D01*
X119344974Y-76960777D01*
X119441665Y-76881425D01*
X119521017Y-76784734D01*
X119579982Y-76674420D01*
X119601993Y-76601860D01*
X119733848Y-76733715D01*
X119977069Y-76896230D01*
X120247322Y-77008172D01*
X120534220Y-77065240D01*
X120826740Y-77065240D01*
X121113638Y-77008172D01*
X121383891Y-76896230D01*
X121627112Y-76733715D01*
X121833955Y-76526872D01*
X121996470Y-76283651D01*
X122108412Y-76013398D01*
X122160538Y-75751340D01*
X125628700Y-75751340D01*
X125628700Y-76043860D01*
X125685768Y-76330758D01*
X125797710Y-76601011D01*
X125960225Y-76844232D01*
X126167068Y-77051075D01*
X126410289Y-77213590D01*
X126680542Y-77325532D01*
X126967440Y-77382600D01*
X127259960Y-77382600D01*
X127546858Y-77325532D01*
X127817111Y-77213590D01*
X128060332Y-77051075D01*
X128192187Y-76919220D01*
X128214198Y-76991780D01*
X128273163Y-77102094D01*
X128352515Y-77198785D01*
X128449206Y-77278137D01*
X128559520Y-77337102D01*
X128679218Y-77373412D01*
X128803700Y-77385672D01*
X129367950Y-77382600D01*
X129526700Y-77223850D01*
X129526700Y-76024600D01*
X129780700Y-76024600D01*
X129780700Y-77223850D01*
X129939450Y-77382600D01*
X130503700Y-77385672D01*
X130628182Y-77373412D01*
X130747880Y-77337102D01*
X130858194Y-77278137D01*
X130954885Y-77198785D01*
X131034237Y-77102094D01*
X131093202Y-76991780D01*
X131129512Y-76872082D01*
X131141772Y-76747600D01*
X131138700Y-76183350D01*
X130979950Y-76024600D01*
X129780700Y-76024600D01*
X129526700Y-76024600D01*
X129506700Y-76024600D01*
X129506700Y-75770600D01*
X129526700Y-75770600D01*
X129526700Y-74571350D01*
X129780700Y-74571350D01*
X129780700Y-75770600D01*
X130979950Y-75770600D01*
X131138700Y-75611850D01*
X131141772Y-75047600D01*
X131129512Y-74923118D01*
X131093202Y-74803420D01*
X131034237Y-74693106D01*
X130954885Y-74596415D01*
X130858194Y-74517063D01*
X130747880Y-74458098D01*
X130628182Y-74421788D01*
X130503700Y-74409528D01*
X129939450Y-74412600D01*
X129780700Y-74571350D01*
X129526700Y-74571350D01*
X129367950Y-74412600D01*
X128803700Y-74409528D01*
X128679218Y-74421788D01*
X128559520Y-74458098D01*
X128449206Y-74517063D01*
X128352515Y-74596415D01*
X128273163Y-74693106D01*
X128214198Y-74803420D01*
X128192187Y-74875980D01*
X128060332Y-74744125D01*
X127817111Y-74581610D01*
X127546858Y-74469668D01*
X127259960Y-74412600D01*
X126967440Y-74412600D01*
X126680542Y-74469668D01*
X126410289Y-74581610D01*
X126167068Y-74744125D01*
X125960225Y-74950968D01*
X125797710Y-75194189D01*
X125685768Y-75464442D01*
X125628700Y-75751340D01*
X122160538Y-75751340D01*
X122165480Y-75726500D01*
X122165480Y-75433980D01*
X122108412Y-75147082D01*
X121996470Y-74876829D01*
X121833955Y-74633608D01*
X121627112Y-74426765D01*
X121383891Y-74264250D01*
X121343695Y-74247600D01*
X134665628Y-74247600D01*
X134665628Y-75947600D01*
X134677888Y-76072082D01*
X134714198Y-76191780D01*
X134773163Y-76302094D01*
X134852515Y-76398785D01*
X134949206Y-76478137D01*
X135059520Y-76537102D01*
X135179218Y-76573412D01*
X135303700Y-76585672D01*
X137003700Y-76585672D01*
X137128182Y-76573412D01*
X137247880Y-76537102D01*
X137358194Y-76478137D01*
X137454885Y-76398785D01*
X137534237Y-76302094D01*
X137593202Y-76191780D01*
X137615213Y-76119220D01*
X137747068Y-76251075D01*
X137990289Y-76413590D01*
X138260542Y-76525532D01*
X138547440Y-76582600D01*
X138839960Y-76582600D01*
X139126858Y-76525532D01*
X139397111Y-76413590D01*
X139640332Y-76251075D01*
X139847175Y-76044232D01*
X140009690Y-75801011D01*
X140121632Y-75530758D01*
X140178700Y-75243860D01*
X140178700Y-74951340D01*
X140121632Y-74664442D01*
X140009690Y-74394189D01*
X139847175Y-74150968D01*
X139640332Y-73944125D01*
X139465940Y-73827600D01*
X139640332Y-73711075D01*
X139847175Y-73504232D01*
X140009690Y-73261011D01*
X140121632Y-72990758D01*
X140178700Y-72703860D01*
X140178700Y-72411340D01*
X140121632Y-72124442D01*
X140009690Y-71854189D01*
X139847175Y-71610968D01*
X139640332Y-71404125D01*
X139397111Y-71241610D01*
X139126858Y-71129668D01*
X138839960Y-71072600D01*
X138547440Y-71072600D01*
X138260542Y-71129668D01*
X137990289Y-71241610D01*
X137747068Y-71404125D01*
X137540225Y-71610968D01*
X137423700Y-71785360D01*
X137307175Y-71610968D01*
X137100332Y-71404125D01*
X136857111Y-71241610D01*
X136586858Y-71129668D01*
X136299960Y-71072600D01*
X136007440Y-71072600D01*
X135720542Y-71129668D01*
X135450289Y-71241610D01*
X135207068Y-71404125D01*
X135000225Y-71610968D01*
X134837710Y-71854189D01*
X134725768Y-72124442D01*
X134668700Y-72411340D01*
X134668700Y-72703860D01*
X134725768Y-72990758D01*
X134837710Y-73261011D01*
X135000225Y-73504232D01*
X135132080Y-73636087D01*
X135059520Y-73658098D01*
X134949206Y-73717063D01*
X134852515Y-73796415D01*
X134773163Y-73893106D01*
X134714198Y-74003420D01*
X134677888Y-74123118D01*
X134665628Y-74247600D01*
X121343695Y-74247600D01*
X121113638Y-74152308D01*
X120826740Y-74095240D01*
X120534220Y-74095240D01*
X120247322Y-74152308D01*
X119977069Y-74264250D01*
X119733848Y-74426765D01*
X119601993Y-74558620D01*
X119579982Y-74486060D01*
X119521017Y-74375746D01*
X119441665Y-74279055D01*
X119344974Y-74199703D01*
X119234660Y-74140738D01*
X119114962Y-74104428D01*
X118990480Y-74092168D01*
X117290480Y-74092168D01*
X117165998Y-74104428D01*
X117046300Y-74140738D01*
X116935986Y-74199703D01*
X116839295Y-74279055D01*
X116759943Y-74375746D01*
X116700978Y-74486060D01*
X116664668Y-74605758D01*
X116652408Y-74730240D01*
X112253537Y-74730240D01*
X112214339Y-74533181D01*
X112068475Y-74181034D01*
X111856713Y-73864109D01*
X111587191Y-73594587D01*
X111270266Y-73382825D01*
X110918119Y-73236961D01*
X110544281Y-73162600D01*
X110163119Y-73162600D01*
X109789281Y-73236961D01*
X109437134Y-73382825D01*
X109120209Y-73594587D01*
X108850687Y-73864109D01*
X108638925Y-74181034D01*
X108493061Y-74533181D01*
X108418700Y-74907019D01*
X92788700Y-74907019D01*
X92788700Y-71153109D01*
X92812346Y-70911944D01*
X93768700Y-70911944D01*
X93768700Y-71283256D01*
X93841139Y-71647434D01*
X93983234Y-71990482D01*
X94189525Y-72299218D01*
X94452082Y-72561775D01*
X94760818Y-72768066D01*
X95103866Y-72910161D01*
X95468044Y-72982600D01*
X95839356Y-72982600D01*
X96203534Y-72910161D01*
X96546582Y-72768066D01*
X96855318Y-72561775D01*
X97117875Y-72299218D01*
X97324166Y-71990482D01*
X97466261Y-71647434D01*
X97538700Y-71283256D01*
X97538700Y-70911944D01*
X97515956Y-70797600D01*
X103715628Y-70797600D01*
X103715628Y-73397600D01*
X103727888Y-73522082D01*
X103764198Y-73641780D01*
X103823163Y-73752094D01*
X103902515Y-73848785D01*
X103999206Y-73928137D01*
X104109520Y-73987102D01*
X104229218Y-74023412D01*
X104353700Y-74035672D01*
X106953700Y-74035672D01*
X107078182Y-74023412D01*
X107197880Y-73987102D01*
X107308194Y-73928137D01*
X107404885Y-73848785D01*
X107484237Y-73752094D01*
X107543202Y-73641780D01*
X107579512Y-73522082D01*
X107591772Y-73397600D01*
X107591772Y-70911944D01*
X145768700Y-70911944D01*
X145768700Y-71283256D01*
X145841139Y-71647434D01*
X145983234Y-71990482D01*
X146189525Y-72299218D01*
X146452082Y-72561775D01*
X146760818Y-72768066D01*
X147103866Y-72910161D01*
X147468044Y-72982600D01*
X147839356Y-72982600D01*
X148203534Y-72910161D01*
X148546582Y-72768066D01*
X148855318Y-72561775D01*
X149117875Y-72299218D01*
X149324166Y-71990482D01*
X149466261Y-71647434D01*
X149538700Y-71283256D01*
X149538700Y-70911944D01*
X149466261Y-70547766D01*
X149324166Y-70204718D01*
X149117875Y-69895982D01*
X148855318Y-69633425D01*
X148546582Y-69427134D01*
X148203534Y-69285039D01*
X147839356Y-69212600D01*
X147468044Y-69212600D01*
X147103866Y-69285039D01*
X146760818Y-69427134D01*
X146452082Y-69633425D01*
X146189525Y-69895982D01*
X145983234Y-70204718D01*
X145841139Y-70547766D01*
X145768700Y-70911944D01*
X107591772Y-70911944D01*
X107591772Y-70797600D01*
X107579512Y-70673118D01*
X107543202Y-70553420D01*
X107484237Y-70443106D01*
X107404885Y-70346415D01*
X107308194Y-70267063D01*
X107197880Y-70208098D01*
X107078182Y-70171788D01*
X106953700Y-70159528D01*
X104353700Y-70159528D01*
X104229218Y-70171788D01*
X104109520Y-70208098D01*
X103999206Y-70267063D01*
X103902515Y-70346415D01*
X103823163Y-70443106D01*
X103764198Y-70553420D01*
X103727888Y-70673118D01*
X103715628Y-70797600D01*
X97515956Y-70797600D01*
X97466261Y-70547766D01*
X97324166Y-70204718D01*
X97117875Y-69895982D01*
X96855318Y-69633425D01*
X96546582Y-69427134D01*
X96203534Y-69285039D01*
X95839356Y-69212600D01*
X95468044Y-69212600D01*
X95103866Y-69285039D01*
X94760818Y-69427134D01*
X94452082Y-69633425D01*
X94189525Y-69895982D01*
X93983234Y-70204718D01*
X93841139Y-70547766D01*
X93768700Y-70911944D01*
X92812346Y-70911944D01*
X92848602Y-70542178D01*
X93009908Y-70007906D01*
X93271915Y-69515144D01*
X93624641Y-69082659D01*
X94054653Y-68726921D01*
X94545579Y-68461479D01*
X95078707Y-68296448D01*
X95686179Y-68232600D01*
X147598191Y-68232600D01*
X148209122Y-68292502D01*
%TA.AperFunction,Conductor*%
D17*
G36*
X148209122Y-68292502D02*
G01*
X148743394Y-68453808D01*
X149236156Y-68715815D01*
X149668641Y-69068541D01*
X150024379Y-69498553D01*
X150289821Y-69989479D01*
X150454852Y-70522607D01*
X150518700Y-71130079D01*
X150518701Y-121042081D01*
X150458798Y-121653021D01*
X150297491Y-122187295D01*
X150035489Y-122680050D01*
X149682759Y-123112541D01*
X149252744Y-123468280D01*
X148761822Y-123733721D01*
X148228693Y-123898752D01*
X147621222Y-123962600D01*
X95709209Y-123962600D01*
X95098279Y-123902698D01*
X94564005Y-123741391D01*
X94071250Y-123479389D01*
X93638759Y-123126659D01*
X93283020Y-122696644D01*
X93017579Y-122205722D01*
X92852548Y-121672593D01*
X92788700Y-121065122D01*
X92788700Y-120911944D01*
X93768700Y-120911944D01*
X93768700Y-121283256D01*
X93841139Y-121647434D01*
X93983234Y-121990482D01*
X94189525Y-122299218D01*
X94452082Y-122561775D01*
X94760818Y-122768066D01*
X95103866Y-122910161D01*
X95468044Y-122982600D01*
X95839356Y-122982600D01*
X96203534Y-122910161D01*
X96546582Y-122768066D01*
X96855318Y-122561775D01*
X97117875Y-122299218D01*
X97324166Y-121990482D01*
X97466261Y-121647434D01*
X97538700Y-121283256D01*
X97538700Y-120911944D01*
X145768700Y-120911944D01*
X145768700Y-121283256D01*
X145841139Y-121647434D01*
X145983234Y-121990482D01*
X146189525Y-122299218D01*
X146452082Y-122561775D01*
X146760818Y-122768066D01*
X147103866Y-122910161D01*
X147468044Y-122982600D01*
X147839356Y-122982600D01*
X148203534Y-122910161D01*
X148546582Y-122768066D01*
X148855318Y-122561775D01*
X149117875Y-122299218D01*
X149324166Y-121990482D01*
X149466261Y-121647434D01*
X149538700Y-121283256D01*
X149538700Y-120911944D01*
X149466261Y-120547766D01*
X149324166Y-120204718D01*
X149117875Y-119895982D01*
X148855318Y-119633425D01*
X148546582Y-119427134D01*
X148203534Y-119285039D01*
X147839356Y-119212600D01*
X147468044Y-119212600D01*
X147103866Y-119285039D01*
X146760818Y-119427134D01*
X146452082Y-119633425D01*
X146189525Y-119895982D01*
X145983234Y-120204718D01*
X145841139Y-120547766D01*
X145768700Y-120911944D01*
X97538700Y-120911944D01*
X97466261Y-120547766D01*
X97324166Y-120204718D01*
X97117875Y-119895982D01*
X96855318Y-119633425D01*
X96546582Y-119427134D01*
X96203534Y-119285039D01*
X95839356Y-119212600D01*
X95468044Y-119212600D01*
X95103866Y-119285039D01*
X94760818Y-119427134D01*
X94452082Y-119633425D01*
X94189525Y-119895982D01*
X93983234Y-120204718D01*
X93841139Y-120547766D01*
X93768700Y-120911944D01*
X92788700Y-120911944D01*
X92788700Y-117933100D01*
X114920128Y-117933100D01*
X114920128Y-119633100D01*
X114932388Y-119757582D01*
X114968698Y-119877280D01*
X115027663Y-119987594D01*
X115107015Y-120084285D01*
X115203706Y-120163637D01*
X115314020Y-120222602D01*
X115433718Y-120258912D01*
X115558200Y-120271172D01*
X117258200Y-120271172D01*
X117382682Y-120258912D01*
X117502380Y-120222602D01*
X117612694Y-120163637D01*
X117709385Y-120084285D01*
X117788737Y-119987594D01*
X117847702Y-119877280D01*
X117869713Y-119804720D01*
X118001568Y-119936575D01*
X118244789Y-120099090D01*
X118515042Y-120211032D01*
X118801940Y-120268100D01*
X119094460Y-120268100D01*
X119381358Y-120211032D01*
X119651611Y-120099090D01*
X119894832Y-119936575D01*
X120101675Y-119729732D01*
X120218200Y-119555340D01*
X120334725Y-119729732D01*
X120541568Y-119936575D01*
X120784789Y-120099090D01*
X121055042Y-120211032D01*
X121341940Y-120268100D01*
X121634460Y-120268100D01*
X121921358Y-120211032D01*
X122191611Y-120099090D01*
X122434832Y-119936575D01*
X122641675Y-119729732D01*
X122758200Y-119555340D01*
X122874725Y-119729732D01*
X123081568Y-119936575D01*
X123324789Y-120099090D01*
X123595042Y-120211032D01*
X123881940Y-120268100D01*
X124174460Y-120268100D01*
X124461358Y-120211032D01*
X124731611Y-120099090D01*
X124974832Y-119936575D01*
X125181675Y-119729732D01*
X125344190Y-119486511D01*
X125456132Y-119216258D01*
X125513200Y-118929360D01*
X125513200Y-118636840D01*
X125456132Y-118349942D01*
X125344190Y-118079689D01*
X125181675Y-117836468D01*
X124974832Y-117629625D01*
X124731611Y-117467110D01*
X124461358Y-117355168D01*
X124174460Y-117298100D01*
X123881940Y-117298100D01*
X123595042Y-117355168D01*
X123324789Y-117467110D01*
X123081568Y-117629625D01*
X122874725Y-117836468D01*
X122758200Y-118010860D01*
X122641675Y-117836468D01*
X122434832Y-117629625D01*
X122191611Y-117467110D01*
X121921358Y-117355168D01*
X121634460Y-117298100D01*
X121341940Y-117298100D01*
X121055042Y-117355168D01*
X120784789Y-117467110D01*
X120541568Y-117629625D01*
X120334725Y-117836468D01*
X120218200Y-118010860D01*
X120101675Y-117836468D01*
X119894832Y-117629625D01*
X119651611Y-117467110D01*
X119381358Y-117355168D01*
X119094460Y-117298100D01*
X118801940Y-117298100D01*
X118515042Y-117355168D01*
X118244789Y-117467110D01*
X118001568Y-117629625D01*
X117869713Y-117761480D01*
X117847702Y-117688920D01*
X117788737Y-117578606D01*
X117709385Y-117481915D01*
X117612694Y-117402563D01*
X117502380Y-117343598D01*
X117382682Y-117307288D01*
X117258200Y-117295028D01*
X115558200Y-117295028D01*
X115433718Y-117307288D01*
X115314020Y-117343598D01*
X115203706Y-117402563D01*
X115107015Y-117481915D01*
X115027663Y-117578606D01*
X114968698Y-117688920D01*
X114932388Y-117808618D01*
X114920128Y-117933100D01*
X92788700Y-117933100D01*
X92788700Y-109435561D01*
X107511900Y-109435561D01*
X107511900Y-109639439D01*
X107551674Y-109839398D01*
X107629695Y-110027756D01*
X107742963Y-110197274D01*
X107887126Y-110341437D01*
X108056644Y-110454705D01*
X108245002Y-110532726D01*
X108444961Y-110572500D01*
X108648839Y-110572500D01*
X108848798Y-110532726D01*
X109037156Y-110454705D01*
X109206674Y-110341437D01*
X109350837Y-110197274D01*
X109464105Y-110027756D01*
X109542126Y-109839398D01*
X109581900Y-109639439D01*
X109581900Y-109435561D01*
X109542126Y-109235602D01*
X109464105Y-109047244D01*
X109350837Y-108877726D01*
X109206674Y-108733563D01*
X109037156Y-108620295D01*
X108848798Y-108542274D01*
X108648839Y-108502500D01*
X108444961Y-108502500D01*
X108245002Y-108542274D01*
X108056644Y-108620295D01*
X107887126Y-108733563D01*
X107742963Y-108877726D01*
X107629695Y-109047244D01*
X107551674Y-109235602D01*
X107511900Y-109435561D01*
X92788700Y-109435561D01*
X92788700Y-108683857D01*
X92953812Y-108716700D01*
X93177388Y-108716700D01*
X93396667Y-108673083D01*
X93603224Y-108587524D01*
X93789120Y-108463312D01*
X93947212Y-108305220D01*
X94071424Y-108119324D01*
X94156983Y-107912767D01*
X94200600Y-107693488D01*
X94200600Y-107469912D01*
X94156983Y-107250633D01*
X94071424Y-107044076D01*
X93947212Y-106858180D01*
X93789120Y-106700088D01*
X93603224Y-106575876D01*
X93396667Y-106490317D01*
X93177388Y-106446700D01*
X92953812Y-106446700D01*
X92788700Y-106479543D01*
X92788700Y-105285512D01*
X93480000Y-105285512D01*
X93480000Y-105509088D01*
X93523617Y-105728367D01*
X93609176Y-105934924D01*
X93733388Y-106120820D01*
X93891480Y-106278912D01*
X94077376Y-106403124D01*
X94283933Y-106488683D01*
X94503212Y-106532300D01*
X94726788Y-106532300D01*
X94946067Y-106488683D01*
X95152624Y-106403124D01*
X95338520Y-106278912D01*
X95496612Y-106120820D01*
X95620824Y-105934924D01*
X95706383Y-105728367D01*
X95750000Y-105509088D01*
X95750000Y-105298212D01*
X96172400Y-105298212D01*
X96172400Y-105521788D01*
X96216017Y-105741067D01*
X96301576Y-105947624D01*
X96425788Y-106133520D01*
X96583880Y-106291612D01*
X96769776Y-106415824D01*
X96976333Y-106501383D01*
X97029868Y-106512032D01*
X96998376Y-106525076D01*
X96812480Y-106649288D01*
X96654388Y-106807380D01*
X96530176Y-106993276D01*
X96444617Y-107199833D01*
X96401000Y-107419112D01*
X96401000Y-107642688D01*
X96444617Y-107861967D01*
X96530176Y-108068524D01*
X96654388Y-108254420D01*
X96812480Y-108412512D01*
X96998376Y-108536724D01*
X97204933Y-108622283D01*
X97424212Y-108665900D01*
X97647788Y-108665900D01*
X97867067Y-108622283D01*
X98073624Y-108536724D01*
X98259520Y-108412512D01*
X98417612Y-108254420D01*
X98541824Y-108068524D01*
X98627383Y-107861967D01*
X98671000Y-107642688D01*
X98671000Y-107419112D01*
X98667907Y-107403561D01*
X127247700Y-107403561D01*
X127247700Y-107607439D01*
X127287474Y-107807398D01*
X127365495Y-107995756D01*
X127478763Y-108165274D01*
X127622926Y-108309437D01*
X127792444Y-108422705D01*
X127980802Y-108500726D01*
X128180761Y-108540500D01*
X128384639Y-108540500D01*
X128584598Y-108500726D01*
X128772956Y-108422705D01*
X128942474Y-108309437D01*
X129086637Y-108165274D01*
X129199905Y-107995756D01*
X129277926Y-107807398D01*
X129317700Y-107607439D01*
X129317700Y-107403561D01*
X129277926Y-107203602D01*
X129199905Y-107015244D01*
X129086637Y-106845726D01*
X128942474Y-106701563D01*
X128772956Y-106588295D01*
X128584598Y-106510274D01*
X128384639Y-106470500D01*
X128180761Y-106470500D01*
X127980802Y-106510274D01*
X127792444Y-106588295D01*
X127622926Y-106701563D01*
X127478763Y-106845726D01*
X127365495Y-107015244D01*
X127287474Y-107203602D01*
X127247700Y-107403561D01*
X98667907Y-107403561D01*
X98627383Y-107199833D01*
X98541824Y-106993276D01*
X98417612Y-106807380D01*
X98259520Y-106649288D01*
X98073624Y-106525076D01*
X97867067Y-106439517D01*
X97813532Y-106428868D01*
X97845024Y-106415824D01*
X98030920Y-106291612D01*
X98189012Y-106133520D01*
X98313224Y-105947624D01*
X98398783Y-105741067D01*
X98442400Y-105521788D01*
X98442400Y-105298212D01*
X98398783Y-105078933D01*
X98313224Y-104872376D01*
X98189012Y-104686480D01*
X98030920Y-104528388D01*
X97981343Y-104495261D01*
X113379300Y-104495261D01*
X113379300Y-104699139D01*
X113419074Y-104899098D01*
X113497095Y-105087456D01*
X113610363Y-105256974D01*
X113754526Y-105401137D01*
X113924044Y-105514405D01*
X114112402Y-105592426D01*
X114312361Y-105632200D01*
X114516239Y-105632200D01*
X114716198Y-105592426D01*
X114904556Y-105514405D01*
X115074074Y-105401137D01*
X115218237Y-105256974D01*
X115331505Y-105087456D01*
X115409526Y-104899098D01*
X115449300Y-104699139D01*
X115449300Y-104495261D01*
X115409526Y-104295302D01*
X115388964Y-104245661D01*
X121118700Y-104245661D01*
X121118700Y-104449539D01*
X121158474Y-104649498D01*
X121236495Y-104837856D01*
X121349763Y-105007374D01*
X121493926Y-105151537D01*
X121564762Y-105198868D01*
X121539626Y-105215663D01*
X121395463Y-105359826D01*
X121282195Y-105529344D01*
X121204174Y-105717702D01*
X121164400Y-105917661D01*
X121164400Y-106121539D01*
X121204174Y-106321498D01*
X121282195Y-106509856D01*
X121395463Y-106679374D01*
X121539626Y-106823537D01*
X121709144Y-106936805D01*
X121897502Y-107014826D01*
X122097461Y-107054600D01*
X122301339Y-107054600D01*
X122501298Y-107014826D01*
X122689656Y-106936805D01*
X122859174Y-106823537D01*
X123003337Y-106679374D01*
X123116605Y-106509856D01*
X123194626Y-106321498D01*
X123234400Y-106121539D01*
X123234400Y-105917661D01*
X123194626Y-105717702D01*
X123116605Y-105529344D01*
X123003337Y-105359826D01*
X122859174Y-105215663D01*
X122788338Y-105168332D01*
X122813474Y-105151537D01*
X122957637Y-105007374D01*
X123070905Y-104837856D01*
X123148926Y-104649498D01*
X123188700Y-104449539D01*
X123188700Y-104245661D01*
X123148926Y-104045702D01*
X123070905Y-103857344D01*
X122957637Y-103687826D01*
X122813474Y-103543663D01*
X122643956Y-103430395D01*
X122455598Y-103352374D01*
X122255639Y-103312600D01*
X122051761Y-103312600D01*
X121851802Y-103352374D01*
X121663444Y-103430395D01*
X121493926Y-103543663D01*
X121349763Y-103687826D01*
X121236495Y-103857344D01*
X121158474Y-104045702D01*
X121118700Y-104245661D01*
X115388964Y-104245661D01*
X115331505Y-104106944D01*
X115218237Y-103937426D01*
X115074074Y-103793263D01*
X114904556Y-103679995D01*
X114716198Y-103601974D01*
X114516239Y-103562200D01*
X114312361Y-103562200D01*
X114112402Y-103601974D01*
X113924044Y-103679995D01*
X113754526Y-103793263D01*
X113610363Y-103937426D01*
X113497095Y-104106944D01*
X113419074Y-104295302D01*
X113379300Y-104495261D01*
X97981343Y-104495261D01*
X97845024Y-104404176D01*
X97638467Y-104318617D01*
X97419188Y-104275000D01*
X97195612Y-104275000D01*
X96976333Y-104318617D01*
X96769776Y-104404176D01*
X96583880Y-104528388D01*
X96425788Y-104686480D01*
X96301576Y-104872376D01*
X96216017Y-105078933D01*
X96172400Y-105298212D01*
X95750000Y-105298212D01*
X95750000Y-105285512D01*
X95706383Y-105066233D01*
X95620824Y-104859676D01*
X95496612Y-104673780D01*
X95338520Y-104515688D01*
X95152624Y-104391476D01*
X94946067Y-104305917D01*
X94726788Y-104262300D01*
X94503212Y-104262300D01*
X94283933Y-104305917D01*
X94077376Y-104391476D01*
X93891480Y-104515688D01*
X93733388Y-104673780D01*
X93609176Y-104859676D01*
X93523617Y-105066233D01*
X93480000Y-105285512D01*
X92788700Y-105285512D01*
X92788700Y-92347600D01*
X94465628Y-92347600D01*
X94465628Y-94047600D01*
X94477888Y-94172082D01*
X94514198Y-94291780D01*
X94573163Y-94402094D01*
X94652515Y-94498785D01*
X94749206Y-94578137D01*
X94859520Y-94637102D01*
X94932080Y-94659113D01*
X94800225Y-94790968D01*
X94637710Y-95034189D01*
X94525768Y-95304442D01*
X94468700Y-95591340D01*
X94468700Y-95883860D01*
X94525768Y-96170758D01*
X94637710Y-96441011D01*
X94800225Y-96684232D01*
X95007068Y-96891075D01*
X95181460Y-97007600D01*
X95007068Y-97124125D01*
X94800225Y-97330968D01*
X94637710Y-97574189D01*
X94525768Y-97844442D01*
X94468700Y-98131340D01*
X94468700Y-98423860D01*
X94525768Y-98710758D01*
X94637710Y-98981011D01*
X94800225Y-99224232D01*
X95007068Y-99431075D01*
X95181460Y-99547600D01*
X95007068Y-99664125D01*
X94800225Y-99870968D01*
X94637710Y-100114189D01*
X94525768Y-100384442D01*
X94468700Y-100671340D01*
X94468700Y-100963860D01*
X94525768Y-101250758D01*
X94637710Y-101521011D01*
X94800225Y-101764232D01*
X95007068Y-101971075D01*
X95250289Y-102133590D01*
X95520542Y-102245532D01*
X95807440Y-102302600D01*
X96099960Y-102302600D01*
X96386858Y-102245532D01*
X96657111Y-102133590D01*
X96900332Y-101971075D01*
X97107175Y-101764232D01*
X97223700Y-101589840D01*
X97340225Y-101764232D01*
X97547068Y-101971075D01*
X97790289Y-102133590D01*
X98060542Y-102245532D01*
X98347440Y-102302600D01*
X98639960Y-102302600D01*
X98926858Y-102245532D01*
X99197111Y-102133590D01*
X99440332Y-101971075D01*
X99647175Y-101764232D01*
X99809690Y-101521011D01*
X99921632Y-101250758D01*
X99978700Y-100963860D01*
X99978700Y-100863061D01*
X100895200Y-100863061D01*
X100895200Y-101066939D01*
X100934974Y-101266898D01*
X101012995Y-101455256D01*
X101126263Y-101624774D01*
X101270426Y-101768937D01*
X101439944Y-101882205D01*
X101628302Y-101960226D01*
X101828261Y-102000000D01*
X102032139Y-102000000D01*
X102232098Y-101960226D01*
X102420456Y-101882205D01*
X102589974Y-101768937D01*
X102734137Y-101624774D01*
X102847405Y-101455256D01*
X102925426Y-101266898D01*
X102965200Y-101066939D01*
X102965200Y-100863061D01*
X102925426Y-100663102D01*
X102847405Y-100474744D01*
X102734137Y-100305226D01*
X102589974Y-100161063D01*
X102420456Y-100047795D01*
X102232098Y-99969774D01*
X102032139Y-99930000D01*
X101828261Y-99930000D01*
X101628302Y-99969774D01*
X101439944Y-100047795D01*
X101270426Y-100161063D01*
X101126263Y-100305226D01*
X101012995Y-100474744D01*
X100934974Y-100663102D01*
X100895200Y-100863061D01*
X99978700Y-100863061D01*
X99978700Y-100671340D01*
X99921632Y-100384442D01*
X99809690Y-100114189D01*
X99647175Y-99870968D01*
X99440332Y-99664125D01*
X99265940Y-99547600D01*
X99440332Y-99431075D01*
X99647175Y-99224232D01*
X99809690Y-98981011D01*
X99921632Y-98710758D01*
X99978700Y-98423860D01*
X99978700Y-98131340D01*
X99951155Y-97992861D01*
X100933300Y-97992861D01*
X100933300Y-98196739D01*
X100973074Y-98396698D01*
X101051095Y-98585056D01*
X101164363Y-98754574D01*
X101308526Y-98898737D01*
X101478044Y-99012005D01*
X101666402Y-99090026D01*
X101866361Y-99129800D01*
X102070239Y-99129800D01*
X102270198Y-99090026D01*
X102458556Y-99012005D01*
X102628074Y-98898737D01*
X102772237Y-98754574D01*
X102885505Y-98585056D01*
X102963526Y-98396698D01*
X103003300Y-98196739D01*
X103003300Y-97992861D01*
X102963526Y-97792902D01*
X102885505Y-97604544D01*
X102772237Y-97435026D01*
X102628074Y-97290863D01*
X102458556Y-97177595D01*
X102270198Y-97099574D01*
X102070239Y-97059800D01*
X101866361Y-97059800D01*
X101666402Y-97099574D01*
X101478044Y-97177595D01*
X101308526Y-97290863D01*
X101164363Y-97435026D01*
X101051095Y-97604544D01*
X100973074Y-97792902D01*
X100933300Y-97992861D01*
X99951155Y-97992861D01*
X99921632Y-97844442D01*
X99809690Y-97574189D01*
X99647175Y-97330968D01*
X99440332Y-97124125D01*
X99265940Y-97007600D01*
X99440332Y-96891075D01*
X99647175Y-96684232D01*
X99809690Y-96441011D01*
X99921632Y-96170758D01*
X99978700Y-95883860D01*
X99978700Y-95591340D01*
X99958734Y-95490961D01*
X100869800Y-95490961D01*
X100869800Y-95694839D01*
X100909574Y-95894798D01*
X100987595Y-96083156D01*
X101100863Y-96252674D01*
X101245026Y-96396837D01*
X101414544Y-96510105D01*
X101602902Y-96588126D01*
X101802861Y-96627900D01*
X102006739Y-96627900D01*
X102206698Y-96588126D01*
X102395056Y-96510105D01*
X102564574Y-96396837D01*
X102708737Y-96252674D01*
X102822005Y-96083156D01*
X102900026Y-95894798D01*
X102939800Y-95694839D01*
X102939800Y-95490961D01*
X102900026Y-95291002D01*
X102822005Y-95102644D01*
X102708737Y-94933126D01*
X102564574Y-94788963D01*
X102395056Y-94675695D01*
X102206698Y-94597674D01*
X102006739Y-94557900D01*
X101802861Y-94557900D01*
X101602902Y-94597674D01*
X101414544Y-94675695D01*
X101245026Y-94788963D01*
X101100863Y-94933126D01*
X100987595Y-95102644D01*
X100909574Y-95291002D01*
X100869800Y-95490961D01*
X99958734Y-95490961D01*
X99921632Y-95304442D01*
X99809690Y-95034189D01*
X99647175Y-94790968D01*
X99440332Y-94584125D01*
X99265940Y-94467600D01*
X99440332Y-94351075D01*
X99647175Y-94144232D01*
X99809690Y-93901011D01*
X99921632Y-93630758D01*
X99978700Y-93343860D01*
X99978700Y-93179561D01*
X100895200Y-93179561D01*
X100895200Y-93383439D01*
X100934974Y-93583398D01*
X101012995Y-93771756D01*
X101126263Y-93941274D01*
X101270426Y-94085437D01*
X101439944Y-94198705D01*
X101628302Y-94276726D01*
X101828261Y-94316500D01*
X102032139Y-94316500D01*
X102232098Y-94276726D01*
X102420456Y-94198705D01*
X102589974Y-94085437D01*
X102734137Y-93941274D01*
X102784467Y-93865949D01*
X104558507Y-93865949D01*
X104558507Y-98865949D01*
X104560947Y-98890725D01*
X104568174Y-98914550D01*
X104579910Y-98936506D01*
X104595704Y-98955752D01*
X104614950Y-98971546D01*
X104636906Y-98983282D01*
X104660731Y-98990509D01*
X104685507Y-98992949D01*
X105806296Y-98992949D01*
X105751286Y-102180037D01*
X105753298Y-102204852D01*
X105760113Y-102228798D01*
X105771468Y-102250954D01*
X105786928Y-102270468D01*
X105805898Y-102286592D01*
X105827649Y-102298705D01*
X105851345Y-102306343D01*
X105878267Y-102309229D01*
X111187260Y-102309229D01*
X111159263Y-102337226D01*
X111045995Y-102506744D01*
X110967974Y-102695102D01*
X110928200Y-102895061D01*
X110928200Y-103098939D01*
X110967974Y-103298898D01*
X111045995Y-103487256D01*
X111159263Y-103656774D01*
X111303426Y-103800937D01*
X111472944Y-103914205D01*
X111661302Y-103992226D01*
X111861261Y-104032000D01*
X112065139Y-104032000D01*
X112265098Y-103992226D01*
X112453456Y-103914205D01*
X112622974Y-103800937D01*
X112767137Y-103656774D01*
X112880405Y-103487256D01*
X112958426Y-103298898D01*
X112998200Y-103098939D01*
X112998200Y-102895061D01*
X112958426Y-102695102D01*
X112880405Y-102506744D01*
X112767137Y-102337226D01*
X112709212Y-102279301D01*
X112718070Y-102272032D01*
X112733864Y-102252786D01*
X112745600Y-102230830D01*
X112752827Y-102207005D01*
X112755228Y-102185366D01*
X112774095Y-101421861D01*
X130867200Y-101421861D01*
X130867200Y-101625739D01*
X130906974Y-101825698D01*
X130984995Y-102014056D01*
X131098263Y-102183574D01*
X131242426Y-102327737D01*
X131411944Y-102441005D01*
X131600302Y-102519026D01*
X131800261Y-102558800D01*
X132004139Y-102558800D01*
X132204098Y-102519026D01*
X132392456Y-102441005D01*
X132448386Y-102403634D01*
X132580344Y-102491805D01*
X132768702Y-102569826D01*
X132968661Y-102609600D01*
X133172539Y-102609600D01*
X133372498Y-102569826D01*
X133560856Y-102491805D01*
X133658040Y-102426869D01*
X133812244Y-102529905D01*
X134000602Y-102607926D01*
X134200561Y-102647700D01*
X134404439Y-102647700D01*
X134604398Y-102607926D01*
X134792756Y-102529905D01*
X134899357Y-102458677D01*
X134967944Y-102504505D01*
X135156302Y-102582526D01*
X135356261Y-102622300D01*
X135560139Y-102622300D01*
X135760098Y-102582526D01*
X135948456Y-102504505D01*
X136117974Y-102391237D01*
X136262137Y-102247074D01*
X136375405Y-102077556D01*
X136453426Y-101889198D01*
X136493200Y-101689239D01*
X136493200Y-101485361D01*
X136453426Y-101285402D01*
X136375405Y-101097044D01*
X136262137Y-100927526D01*
X136117974Y-100783363D01*
X135948456Y-100670095D01*
X135760098Y-100592074D01*
X135560139Y-100552300D01*
X135356261Y-100552300D01*
X135156302Y-100592074D01*
X134967944Y-100670095D01*
X134861343Y-100741323D01*
X134792756Y-100695495D01*
X134604398Y-100617474D01*
X134404439Y-100577700D01*
X134200561Y-100577700D01*
X134000602Y-100617474D01*
X133812244Y-100695495D01*
X133715060Y-100760431D01*
X133560856Y-100657395D01*
X133372498Y-100579374D01*
X133172539Y-100539600D01*
X132968661Y-100539600D01*
X132768702Y-100579374D01*
X132580344Y-100657395D01*
X132524414Y-100694766D01*
X132392456Y-100606595D01*
X132204098Y-100528574D01*
X132004139Y-100488800D01*
X131800261Y-100488800D01*
X131600302Y-100528574D01*
X131411944Y-100606595D01*
X131242426Y-100719863D01*
X131098263Y-100864026D01*
X130984995Y-101033544D01*
X130906974Y-101221902D01*
X130867200Y-101421861D01*
X112774095Y-101421861D01*
X112809407Y-99992949D01*
X114185507Y-99992949D01*
X114210283Y-99990509D01*
X114234108Y-99983282D01*
X114256064Y-99971546D01*
X114275310Y-99955752D01*
X114291104Y-99936506D01*
X114302840Y-99914550D01*
X114310067Y-99890725D01*
X114312507Y-99865949D01*
X114312507Y-98242949D01*
X114935507Y-98242949D01*
X114960283Y-98240509D01*
X114984108Y-98233282D01*
X115006064Y-98221546D01*
X115025310Y-98205752D01*
X115041104Y-98186506D01*
X115052840Y-98164550D01*
X115060067Y-98140725D01*
X115062056Y-98105253D01*
X115057183Y-98047600D01*
X136165628Y-98047600D01*
X136165628Y-99747600D01*
X136177888Y-99872082D01*
X136214198Y-99991780D01*
X136273163Y-100102094D01*
X136352515Y-100198785D01*
X136449206Y-100278137D01*
X136559520Y-100337102D01*
X136679218Y-100373412D01*
X136803700Y-100385672D01*
X138503700Y-100385672D01*
X138628182Y-100373412D01*
X138747880Y-100337102D01*
X138858194Y-100278137D01*
X138954885Y-100198785D01*
X139034237Y-100102094D01*
X139093202Y-99991780D01*
X139129512Y-99872082D01*
X139141772Y-99747600D01*
X139141772Y-98047600D01*
X139129512Y-97923118D01*
X139093202Y-97803420D01*
X139034237Y-97693106D01*
X138954885Y-97596415D01*
X138858194Y-97517063D01*
X138747880Y-97458098D01*
X138675320Y-97436087D01*
X138807175Y-97304232D01*
X138969690Y-97061011D01*
X139081632Y-96790758D01*
X139138700Y-96503860D01*
X139138700Y-96211340D01*
X139081632Y-95924442D01*
X138969690Y-95654189D01*
X138807175Y-95410968D01*
X138600332Y-95204125D01*
X138357111Y-95041610D01*
X138086858Y-94929668D01*
X137799960Y-94872600D01*
X137507440Y-94872600D01*
X137220542Y-94929668D01*
X136950289Y-95041610D01*
X136707068Y-95204125D01*
X136500225Y-95410968D01*
X136337710Y-95654189D01*
X136225768Y-95924442D01*
X136168700Y-96211340D01*
X136168700Y-96503860D01*
X136225768Y-96790758D01*
X136337710Y-97061011D01*
X136500225Y-97304232D01*
X136632080Y-97436087D01*
X136559520Y-97458098D01*
X136449206Y-97517063D01*
X136352515Y-97596415D01*
X136273163Y-97693106D01*
X136214198Y-97803420D01*
X136177888Y-97923118D01*
X136165628Y-98047600D01*
X115057183Y-98047600D01*
X114951219Y-96793931D01*
X116634256Y-96750724D01*
X116710195Y-96934056D01*
X116823463Y-97103574D01*
X116967626Y-97247737D01*
X117137144Y-97361005D01*
X117325502Y-97439026D01*
X117525461Y-97478800D01*
X117729339Y-97478800D01*
X117929298Y-97439026D01*
X118117656Y-97361005D01*
X118287174Y-97247737D01*
X118431337Y-97103574D01*
X118544605Y-96934056D01*
X118622626Y-96745698D01*
X118662400Y-96545739D01*
X118662400Y-96341861D01*
X118622626Y-96141902D01*
X118544605Y-95953544D01*
X118431337Y-95784026D01*
X118287174Y-95639863D01*
X118117656Y-95526595D01*
X117929298Y-95448574D01*
X117729339Y-95408800D01*
X117525461Y-95408800D01*
X117325502Y-95448574D01*
X117137144Y-95526595D01*
X117062507Y-95576466D01*
X117062507Y-94115949D01*
X117060067Y-94091173D01*
X117052840Y-94067348D01*
X117041104Y-94045392D01*
X117025310Y-94026146D01*
X117006064Y-94010352D01*
X116984108Y-93998616D01*
X116960283Y-93991389D01*
X116936837Y-93988956D01*
X114124076Y-93959491D01*
X114148926Y-93899498D01*
X114188700Y-93699539D01*
X114188700Y-93662161D01*
X131108500Y-93662161D01*
X131108500Y-93866039D01*
X131148274Y-94065998D01*
X131226295Y-94254356D01*
X131339563Y-94423874D01*
X131483726Y-94568037D01*
X131653244Y-94681305D01*
X131841602Y-94759326D01*
X132041561Y-94799100D01*
X132245439Y-94799100D01*
X132445398Y-94759326D01*
X132633756Y-94681305D01*
X132803274Y-94568037D01*
X132947437Y-94423874D01*
X133060705Y-94254356D01*
X133138726Y-94065998D01*
X133178500Y-93866039D01*
X133178500Y-93662161D01*
X133138726Y-93462202D01*
X133060705Y-93273844D01*
X132947437Y-93104326D01*
X132803274Y-92960163D01*
X132633756Y-92846895D01*
X132445398Y-92768874D01*
X132245439Y-92729100D01*
X132041561Y-92729100D01*
X131841602Y-92768874D01*
X131653244Y-92846895D01*
X131483726Y-92960163D01*
X131339563Y-93104326D01*
X131226295Y-93273844D01*
X131148274Y-93462202D01*
X131108500Y-93662161D01*
X114188700Y-93662161D01*
X114188700Y-93495661D01*
X114148926Y-93295702D01*
X114070905Y-93107344D01*
X113980872Y-92972600D01*
X114070905Y-92837856D01*
X114148926Y-92649498D01*
X114188700Y-92449539D01*
X114188700Y-92245661D01*
X114148926Y-92045702D01*
X114070905Y-91857344D01*
X113957637Y-91687826D01*
X113813474Y-91543663D01*
X113643956Y-91430395D01*
X113455598Y-91352374D01*
X113255639Y-91312600D01*
X113051761Y-91312600D01*
X112851802Y-91352374D01*
X112775085Y-91384151D01*
X112785678Y-90502765D01*
X112783535Y-90477961D01*
X112776595Y-90454052D01*
X112765124Y-90431956D01*
X112749562Y-90412522D01*
X112730508Y-90396498D01*
X112708694Y-90384499D01*
X112684959Y-90376986D01*
X112657858Y-90374242D01*
X105727578Y-90419492D01*
X105702818Y-90422094D01*
X105679041Y-90429476D01*
X105657162Y-90441355D01*
X105638020Y-90457275D01*
X105622352Y-90476623D01*
X105610759Y-90498655D01*
X105603688Y-90522526D01*
X105601418Y-90544848D01*
X105560138Y-93738949D01*
X104685507Y-93738949D01*
X104660731Y-93741389D01*
X104636906Y-93748616D01*
X104614950Y-93760352D01*
X104595704Y-93776146D01*
X104579910Y-93795392D01*
X104568174Y-93817348D01*
X104560947Y-93841173D01*
X104558507Y-93865949D01*
X102784467Y-93865949D01*
X102847405Y-93771756D01*
X102925426Y-93583398D01*
X102965200Y-93383439D01*
X102965200Y-93179561D01*
X102925426Y-92979602D01*
X102847405Y-92791244D01*
X102734137Y-92621726D01*
X102589974Y-92477563D01*
X102420456Y-92364295D01*
X102232098Y-92286274D01*
X102032139Y-92246500D01*
X101828261Y-92246500D01*
X101628302Y-92286274D01*
X101439944Y-92364295D01*
X101270426Y-92477563D01*
X101126263Y-92621726D01*
X101012995Y-92791244D01*
X100934974Y-92979602D01*
X100895200Y-93179561D01*
X99978700Y-93179561D01*
X99978700Y-93051340D01*
X99921632Y-92764442D01*
X99809690Y-92494189D01*
X99647175Y-92250968D01*
X99440332Y-92044125D01*
X99197111Y-91881610D01*
X98926858Y-91769668D01*
X98639960Y-91712600D01*
X98347440Y-91712600D01*
X98060542Y-91769668D01*
X97790289Y-91881610D01*
X97547068Y-92044125D01*
X97415213Y-92175980D01*
X97393202Y-92103420D01*
X97334237Y-91993106D01*
X97254885Y-91896415D01*
X97158194Y-91817063D01*
X97047880Y-91758098D01*
X96928182Y-91721788D01*
X96803700Y-91709528D01*
X95103700Y-91709528D01*
X94979218Y-91721788D01*
X94859520Y-91758098D01*
X94749206Y-91817063D01*
X94652515Y-91896415D01*
X94573163Y-91993106D01*
X94514198Y-92103420D01*
X94477888Y-92223118D01*
X94465628Y-92347600D01*
X92788700Y-92347600D01*
X92788700Y-90055361D01*
X114331800Y-90055361D01*
X114331800Y-90259239D01*
X114371574Y-90459198D01*
X114449595Y-90647556D01*
X114562863Y-90817074D01*
X114707026Y-90961237D01*
X114876544Y-91074505D01*
X115064902Y-91152526D01*
X115264861Y-91192300D01*
X115468739Y-91192300D01*
X115668698Y-91152526D01*
X115857056Y-91074505D01*
X116026574Y-90961237D01*
X116072691Y-90915120D01*
X143982808Y-90915120D01*
X143982808Y-92615120D01*
X143995068Y-92739602D01*
X144031378Y-92859300D01*
X144090343Y-92969614D01*
X144169695Y-93066305D01*
X144266386Y-93145657D01*
X144376700Y-93204622D01*
X144449260Y-93226633D01*
X144317405Y-93358488D01*
X144154890Y-93601709D01*
X144042948Y-93871962D01*
X143985880Y-94158860D01*
X143985880Y-94451380D01*
X144042948Y-94738278D01*
X144154890Y-95008531D01*
X144317405Y-95251752D01*
X144524248Y-95458595D01*
X144698640Y-95575120D01*
X144524248Y-95691645D01*
X144317405Y-95898488D01*
X144154890Y-96141709D01*
X144042948Y-96411962D01*
X143985880Y-96698860D01*
X143985880Y-96991380D01*
X144042948Y-97278278D01*
X144154890Y-97548531D01*
X144317405Y-97791752D01*
X144524248Y-97998595D01*
X144698640Y-98115120D01*
X144524248Y-98231645D01*
X144317405Y-98438488D01*
X144154890Y-98681709D01*
X144042948Y-98951962D01*
X143985880Y-99238860D01*
X143985880Y-99531380D01*
X144042948Y-99818278D01*
X144154890Y-100088531D01*
X144317405Y-100331752D01*
X144524248Y-100538595D01*
X144767469Y-100701110D01*
X145037722Y-100813052D01*
X145324620Y-100870120D01*
X145617140Y-100870120D01*
X145904038Y-100813052D01*
X146174291Y-100701110D01*
X146417512Y-100538595D01*
X146624355Y-100331752D01*
X146740880Y-100157360D01*
X146857405Y-100331752D01*
X147064248Y-100538595D01*
X147307469Y-100701110D01*
X147577722Y-100813052D01*
X147864620Y-100870120D01*
X148157140Y-100870120D01*
X148444038Y-100813052D01*
X148714291Y-100701110D01*
X148957512Y-100538595D01*
X149164355Y-100331752D01*
X149326870Y-100088531D01*
X149438812Y-99818278D01*
X149495880Y-99531380D01*
X149495880Y-99238860D01*
X149438812Y-98951962D01*
X149326870Y-98681709D01*
X149164355Y-98438488D01*
X148957512Y-98231645D01*
X148783120Y-98115120D01*
X148957512Y-97998595D01*
X149164355Y-97791752D01*
X149326870Y-97548531D01*
X149438812Y-97278278D01*
X149495880Y-96991380D01*
X149495880Y-96698860D01*
X149438812Y-96411962D01*
X149326870Y-96141709D01*
X149164355Y-95898488D01*
X148957512Y-95691645D01*
X148783120Y-95575120D01*
X148957512Y-95458595D01*
X149164355Y-95251752D01*
X149326870Y-95008531D01*
X149438812Y-94738278D01*
X149495880Y-94451380D01*
X149495880Y-94158860D01*
X149438812Y-93871962D01*
X149326870Y-93601709D01*
X149164355Y-93358488D01*
X148957512Y-93151645D01*
X148783120Y-93035120D01*
X148957512Y-92918595D01*
X149164355Y-92711752D01*
X149326870Y-92468531D01*
X149438812Y-92198278D01*
X149495880Y-91911380D01*
X149495880Y-91618860D01*
X149438812Y-91331962D01*
X149326870Y-91061709D01*
X149164355Y-90818488D01*
X148957512Y-90611645D01*
X148714291Y-90449130D01*
X148444038Y-90337188D01*
X148157140Y-90280120D01*
X147864620Y-90280120D01*
X147577722Y-90337188D01*
X147307469Y-90449130D01*
X147064248Y-90611645D01*
X146932393Y-90743500D01*
X146910382Y-90670940D01*
X146851417Y-90560626D01*
X146772065Y-90463935D01*
X146675374Y-90384583D01*
X146565060Y-90325618D01*
X146445362Y-90289308D01*
X146320880Y-90277048D01*
X144620880Y-90277048D01*
X144496398Y-90289308D01*
X144376700Y-90325618D01*
X144266386Y-90384583D01*
X144169695Y-90463935D01*
X144090343Y-90560626D01*
X144031378Y-90670940D01*
X143995068Y-90790638D01*
X143982808Y-90915120D01*
X116072691Y-90915120D01*
X116170737Y-90817074D01*
X116284005Y-90647556D01*
X116362026Y-90459198D01*
X116401800Y-90259239D01*
X116401800Y-90055361D01*
X116362026Y-89855402D01*
X116284005Y-89667044D01*
X116170737Y-89497526D01*
X116042772Y-89369561D01*
X117481400Y-89369561D01*
X117481400Y-89573439D01*
X117521174Y-89773398D01*
X117599195Y-89961756D01*
X117712463Y-90131274D01*
X117856626Y-90275437D01*
X118026144Y-90388705D01*
X118214502Y-90466726D01*
X118414461Y-90506500D01*
X118618339Y-90506500D01*
X118818298Y-90466726D01*
X119006656Y-90388705D01*
X119176174Y-90275437D01*
X119320337Y-90131274D01*
X119433605Y-89961756D01*
X119511626Y-89773398D01*
X119551400Y-89573439D01*
X119551400Y-89369561D01*
X119526755Y-89245661D01*
X122368700Y-89245661D01*
X122368700Y-89449539D01*
X122408474Y-89649498D01*
X122486495Y-89837856D01*
X122599763Y-90007374D01*
X122743926Y-90151537D01*
X122913444Y-90264805D01*
X123101802Y-90342826D01*
X123301761Y-90382600D01*
X123505639Y-90382600D01*
X123705598Y-90342826D01*
X123893956Y-90264805D01*
X123903700Y-90258294D01*
X123913444Y-90264805D01*
X124101802Y-90342826D01*
X124301761Y-90382600D01*
X124505639Y-90382600D01*
X124705598Y-90342826D01*
X124867396Y-90275807D01*
X124892426Y-90300837D01*
X125061944Y-90414105D01*
X125250302Y-90492126D01*
X125450261Y-90531900D01*
X125654139Y-90531900D01*
X125854098Y-90492126D01*
X126042456Y-90414105D01*
X126211974Y-90300837D01*
X126356137Y-90156674D01*
X126469405Y-89987156D01*
X126547426Y-89798798D01*
X126587200Y-89598839D01*
X126587200Y-89394961D01*
X126547426Y-89195002D01*
X126469405Y-89006644D01*
X126356137Y-88837126D01*
X126211974Y-88692963D01*
X126042456Y-88579695D01*
X125854098Y-88501674D01*
X125654139Y-88461900D01*
X125450261Y-88461900D01*
X125250302Y-88501674D01*
X125088504Y-88568693D01*
X125063474Y-88543663D01*
X124893956Y-88430395D01*
X124705598Y-88352374D01*
X124505639Y-88312600D01*
X124301761Y-88312600D01*
X124101802Y-88352374D01*
X123913444Y-88430395D01*
X123903700Y-88436906D01*
X123893956Y-88430395D01*
X123705598Y-88352374D01*
X123505639Y-88312600D01*
X123301761Y-88312600D01*
X123101802Y-88352374D01*
X122913444Y-88430395D01*
X122743926Y-88543663D01*
X122599763Y-88687826D01*
X122486495Y-88857344D01*
X122408474Y-89045702D01*
X122368700Y-89245661D01*
X119526755Y-89245661D01*
X119511626Y-89169602D01*
X119433605Y-88981244D01*
X119320337Y-88811726D01*
X119176174Y-88667563D01*
X119006656Y-88554295D01*
X118818298Y-88476274D01*
X118618339Y-88436500D01*
X118414461Y-88436500D01*
X118214502Y-88476274D01*
X118026144Y-88554295D01*
X117856626Y-88667563D01*
X117712463Y-88811726D01*
X117599195Y-88981244D01*
X117521174Y-89169602D01*
X117481400Y-89369561D01*
X116042772Y-89369561D01*
X116026574Y-89353363D01*
X115857056Y-89240095D01*
X115668698Y-89162074D01*
X115468739Y-89122300D01*
X115264861Y-89122300D01*
X115064902Y-89162074D01*
X114876544Y-89240095D01*
X114707026Y-89353363D01*
X114562863Y-89497526D01*
X114449595Y-89667044D01*
X114371574Y-89855402D01*
X114331800Y-90055361D01*
X92788700Y-90055361D01*
X92788700Y-88378961D01*
X112693500Y-88378961D01*
X112693500Y-88582839D01*
X112733274Y-88782798D01*
X112811295Y-88971156D01*
X112924563Y-89140674D01*
X113068726Y-89284837D01*
X113238244Y-89398105D01*
X113426602Y-89476126D01*
X113626561Y-89515900D01*
X113830439Y-89515900D01*
X114030398Y-89476126D01*
X114218756Y-89398105D01*
X114388274Y-89284837D01*
X114532437Y-89140674D01*
X114645705Y-88971156D01*
X114723726Y-88782798D01*
X114763500Y-88582839D01*
X114763500Y-88378961D01*
X114723726Y-88179002D01*
X114645705Y-87990644D01*
X114532437Y-87821126D01*
X114388274Y-87676963D01*
X114218756Y-87563695D01*
X114030398Y-87485674D01*
X113830439Y-87445900D01*
X113626561Y-87445900D01*
X113426602Y-87485674D01*
X113238244Y-87563695D01*
X113068726Y-87676963D01*
X112924563Y-87821126D01*
X112811295Y-87990644D01*
X112733274Y-88179002D01*
X112693500Y-88378961D01*
X92788700Y-88378961D01*
X92788700Y-87126741D01*
X109013040Y-87126741D01*
X109013040Y-87330619D01*
X109052814Y-87530578D01*
X109130835Y-87718936D01*
X109244103Y-87888454D01*
X109388266Y-88032617D01*
X109557784Y-88145885D01*
X109746142Y-88223906D01*
X109946101Y-88263680D01*
X110149979Y-88263680D01*
X110349938Y-88223906D01*
X110538296Y-88145885D01*
X110707814Y-88032617D01*
X110851977Y-87888454D01*
X110965245Y-87718936D01*
X111043266Y-87530578D01*
X111083040Y-87330619D01*
X111083040Y-87126741D01*
X111049190Y-86956561D01*
X132315000Y-86956561D01*
X132315000Y-87160439D01*
X132354774Y-87360398D01*
X132432795Y-87548756D01*
X132546063Y-87718274D01*
X132690226Y-87862437D01*
X132859744Y-87975705D01*
X133048102Y-88053726D01*
X133248061Y-88093500D01*
X133451939Y-88093500D01*
X133651898Y-88053726D01*
X133840256Y-87975705D01*
X134009774Y-87862437D01*
X134153937Y-87718274D01*
X134267205Y-87548756D01*
X134345226Y-87360398D01*
X134385000Y-87160439D01*
X134385000Y-86956561D01*
X134345226Y-86756602D01*
X134267205Y-86568244D01*
X134153937Y-86398726D01*
X134009774Y-86254563D01*
X133840256Y-86141295D01*
X133651898Y-86063274D01*
X133451939Y-86023500D01*
X133248061Y-86023500D01*
X133048102Y-86063274D01*
X132859744Y-86141295D01*
X132690226Y-86254563D01*
X132546063Y-86398726D01*
X132432795Y-86568244D01*
X132354774Y-86756602D01*
X132315000Y-86956561D01*
X111049190Y-86956561D01*
X111043266Y-86926782D01*
X110965245Y-86738424D01*
X110851977Y-86568906D01*
X110707814Y-86424743D01*
X110538296Y-86311475D01*
X110349938Y-86233454D01*
X110149979Y-86193680D01*
X109946101Y-86193680D01*
X109746142Y-86233454D01*
X109557784Y-86311475D01*
X109388266Y-86424743D01*
X109244103Y-86568906D01*
X109130835Y-86738424D01*
X109052814Y-86926782D01*
X109013040Y-87126741D01*
X92788700Y-87126741D01*
X92788700Y-77907019D01*
X103718700Y-77907019D01*
X103718700Y-78288181D01*
X103793061Y-78662019D01*
X103938925Y-79014166D01*
X104150687Y-79331091D01*
X104420209Y-79600613D01*
X104737134Y-79812375D01*
X105089281Y-79958239D01*
X105463119Y-80032600D01*
X105844281Y-80032600D01*
X106218119Y-79958239D01*
X106570266Y-79812375D01*
X106887191Y-79600613D01*
X107113143Y-79374661D01*
X139287300Y-79374661D01*
X139287300Y-79578539D01*
X139327074Y-79778498D01*
X139405095Y-79966856D01*
X139518363Y-80136374D01*
X139662526Y-80280537D01*
X139832044Y-80393805D01*
X140020402Y-80471826D01*
X140220361Y-80511600D01*
X140424239Y-80511600D01*
X140624198Y-80471826D01*
X140812556Y-80393805D01*
X140982074Y-80280537D01*
X141126237Y-80136374D01*
X141239505Y-79966856D01*
X141317526Y-79778498D01*
X141357300Y-79578539D01*
X141357300Y-79374661D01*
X141317526Y-79174702D01*
X141239505Y-78986344D01*
X141126237Y-78816826D01*
X140982074Y-78672663D01*
X140812556Y-78559395D01*
X140624198Y-78481374D01*
X140424239Y-78441600D01*
X140220361Y-78441600D01*
X140020402Y-78481374D01*
X139832044Y-78559395D01*
X139662526Y-78672663D01*
X139518363Y-78816826D01*
X139405095Y-78986344D01*
X139327074Y-79174702D01*
X139287300Y-79374661D01*
X107113143Y-79374661D01*
X107156713Y-79331091D01*
X107368475Y-79014166D01*
X107514339Y-78662019D01*
X107588700Y-78288181D01*
X107588700Y-77907019D01*
X107514339Y-77533181D01*
X107368475Y-77181034D01*
X107156713Y-76864109D01*
X106887191Y-76594587D01*
X106570266Y-76382825D01*
X106218119Y-76236961D01*
X105844281Y-76162600D01*
X105463119Y-76162600D01*
X105089281Y-76236961D01*
X104737134Y-76382825D01*
X104420209Y-76594587D01*
X104150687Y-76864109D01*
X103938925Y-77181034D01*
X103793061Y-77533181D01*
X103718700Y-77907019D01*
X92788700Y-77907019D01*
X92788700Y-74907019D01*
X108418700Y-74907019D01*
X108418700Y-75288181D01*
X108493061Y-75662019D01*
X108638925Y-76014166D01*
X108850687Y-76331091D01*
X109120209Y-76600613D01*
X109437134Y-76812375D01*
X109789281Y-76958239D01*
X110163119Y-77032600D01*
X110544281Y-77032600D01*
X110918119Y-76958239D01*
X111270266Y-76812375D01*
X111587191Y-76600613D01*
X111856713Y-76331091D01*
X112068475Y-76014166D01*
X112214339Y-75662019D01*
X112288700Y-75288181D01*
X112288700Y-74907019D01*
X112253537Y-74730240D01*
X116652408Y-74730240D01*
X116652408Y-76430240D01*
X116664668Y-76554722D01*
X116700978Y-76674420D01*
X116759943Y-76784734D01*
X116839295Y-76881425D01*
X116935986Y-76960777D01*
X117046300Y-77019742D01*
X117165998Y-77056052D01*
X117290480Y-77068312D01*
X118990480Y-77068312D01*
X119114962Y-77056052D01*
X119234660Y-77019742D01*
X119344974Y-76960777D01*
X119441665Y-76881425D01*
X119521017Y-76784734D01*
X119579982Y-76674420D01*
X119601993Y-76601860D01*
X119733848Y-76733715D01*
X119977069Y-76896230D01*
X120247322Y-77008172D01*
X120534220Y-77065240D01*
X120826740Y-77065240D01*
X121113638Y-77008172D01*
X121383891Y-76896230D01*
X121627112Y-76733715D01*
X121833955Y-76526872D01*
X121996470Y-76283651D01*
X122108412Y-76013398D01*
X122160538Y-75751340D01*
X125628700Y-75751340D01*
X125628700Y-76043860D01*
X125685768Y-76330758D01*
X125797710Y-76601011D01*
X125960225Y-76844232D01*
X126167068Y-77051075D01*
X126410289Y-77213590D01*
X126680542Y-77325532D01*
X126967440Y-77382600D01*
X127259960Y-77382600D01*
X127546858Y-77325532D01*
X127817111Y-77213590D01*
X128060332Y-77051075D01*
X128192187Y-76919220D01*
X128214198Y-76991780D01*
X128273163Y-77102094D01*
X128352515Y-77198785D01*
X128449206Y-77278137D01*
X128559520Y-77337102D01*
X128679218Y-77373412D01*
X128803700Y-77385672D01*
X129367950Y-77382600D01*
X129526700Y-77223850D01*
X129526700Y-76024600D01*
X129780700Y-76024600D01*
X129780700Y-77223850D01*
X129939450Y-77382600D01*
X130503700Y-77385672D01*
X130628182Y-77373412D01*
X130747880Y-77337102D01*
X130858194Y-77278137D01*
X130954885Y-77198785D01*
X131034237Y-77102094D01*
X131093202Y-76991780D01*
X131129512Y-76872082D01*
X131141772Y-76747600D01*
X131138700Y-76183350D01*
X130979950Y-76024600D01*
X129780700Y-76024600D01*
X129526700Y-76024600D01*
X129506700Y-76024600D01*
X129506700Y-75770600D01*
X129526700Y-75770600D01*
X129526700Y-74571350D01*
X129780700Y-74571350D01*
X129780700Y-75770600D01*
X130979950Y-75770600D01*
X131138700Y-75611850D01*
X131141772Y-75047600D01*
X131129512Y-74923118D01*
X131093202Y-74803420D01*
X131034237Y-74693106D01*
X130954885Y-74596415D01*
X130858194Y-74517063D01*
X130747880Y-74458098D01*
X130628182Y-74421788D01*
X130503700Y-74409528D01*
X129939450Y-74412600D01*
X129780700Y-74571350D01*
X129526700Y-74571350D01*
X129367950Y-74412600D01*
X128803700Y-74409528D01*
X128679218Y-74421788D01*
X128559520Y-74458098D01*
X128449206Y-74517063D01*
X128352515Y-74596415D01*
X128273163Y-74693106D01*
X128214198Y-74803420D01*
X128192187Y-74875980D01*
X128060332Y-74744125D01*
X127817111Y-74581610D01*
X127546858Y-74469668D01*
X127259960Y-74412600D01*
X126967440Y-74412600D01*
X126680542Y-74469668D01*
X126410289Y-74581610D01*
X126167068Y-74744125D01*
X125960225Y-74950968D01*
X125797710Y-75194189D01*
X125685768Y-75464442D01*
X125628700Y-75751340D01*
X122160538Y-75751340D01*
X122165480Y-75726500D01*
X122165480Y-75433980D01*
X122108412Y-75147082D01*
X121996470Y-74876829D01*
X121833955Y-74633608D01*
X121627112Y-74426765D01*
X121383891Y-74264250D01*
X121343695Y-74247600D01*
X134665628Y-74247600D01*
X134665628Y-75947600D01*
X134677888Y-76072082D01*
X134714198Y-76191780D01*
X134773163Y-76302094D01*
X134852515Y-76398785D01*
X134949206Y-76478137D01*
X135059520Y-76537102D01*
X135179218Y-76573412D01*
X135303700Y-76585672D01*
X137003700Y-76585672D01*
X137128182Y-76573412D01*
X137247880Y-76537102D01*
X137358194Y-76478137D01*
X137454885Y-76398785D01*
X137534237Y-76302094D01*
X137593202Y-76191780D01*
X137615213Y-76119220D01*
X137747068Y-76251075D01*
X137990289Y-76413590D01*
X138260542Y-76525532D01*
X138547440Y-76582600D01*
X138839960Y-76582600D01*
X139126858Y-76525532D01*
X139397111Y-76413590D01*
X139640332Y-76251075D01*
X139847175Y-76044232D01*
X140009690Y-75801011D01*
X140121632Y-75530758D01*
X140178700Y-75243860D01*
X140178700Y-74951340D01*
X140121632Y-74664442D01*
X140009690Y-74394189D01*
X139847175Y-74150968D01*
X139640332Y-73944125D01*
X139465940Y-73827600D01*
X139640332Y-73711075D01*
X139847175Y-73504232D01*
X140009690Y-73261011D01*
X140121632Y-72990758D01*
X140178700Y-72703860D01*
X140178700Y-72411340D01*
X140121632Y-72124442D01*
X140009690Y-71854189D01*
X139847175Y-71610968D01*
X139640332Y-71404125D01*
X139397111Y-71241610D01*
X139126858Y-71129668D01*
X138839960Y-71072600D01*
X138547440Y-71072600D01*
X138260542Y-71129668D01*
X137990289Y-71241610D01*
X137747068Y-71404125D01*
X137540225Y-71610968D01*
X137423700Y-71785360D01*
X137307175Y-71610968D01*
X137100332Y-71404125D01*
X136857111Y-71241610D01*
X136586858Y-71129668D01*
X136299960Y-71072600D01*
X136007440Y-71072600D01*
X135720542Y-71129668D01*
X135450289Y-71241610D01*
X135207068Y-71404125D01*
X135000225Y-71610968D01*
X134837710Y-71854189D01*
X134725768Y-72124442D01*
X134668700Y-72411340D01*
X134668700Y-72703860D01*
X134725768Y-72990758D01*
X134837710Y-73261011D01*
X135000225Y-73504232D01*
X135132080Y-73636087D01*
X135059520Y-73658098D01*
X134949206Y-73717063D01*
X134852515Y-73796415D01*
X134773163Y-73893106D01*
X134714198Y-74003420D01*
X134677888Y-74123118D01*
X134665628Y-74247600D01*
X121343695Y-74247600D01*
X121113638Y-74152308D01*
X120826740Y-74095240D01*
X120534220Y-74095240D01*
X120247322Y-74152308D01*
X119977069Y-74264250D01*
X119733848Y-74426765D01*
X119601993Y-74558620D01*
X119579982Y-74486060D01*
X119521017Y-74375746D01*
X119441665Y-74279055D01*
X119344974Y-74199703D01*
X119234660Y-74140738D01*
X119114962Y-74104428D01*
X118990480Y-74092168D01*
X117290480Y-74092168D01*
X117165998Y-74104428D01*
X117046300Y-74140738D01*
X116935986Y-74199703D01*
X116839295Y-74279055D01*
X116759943Y-74375746D01*
X116700978Y-74486060D01*
X116664668Y-74605758D01*
X116652408Y-74730240D01*
X112253537Y-74730240D01*
X112214339Y-74533181D01*
X112068475Y-74181034D01*
X111856713Y-73864109D01*
X111587191Y-73594587D01*
X111270266Y-73382825D01*
X110918119Y-73236961D01*
X110544281Y-73162600D01*
X110163119Y-73162600D01*
X109789281Y-73236961D01*
X109437134Y-73382825D01*
X109120209Y-73594587D01*
X108850687Y-73864109D01*
X108638925Y-74181034D01*
X108493061Y-74533181D01*
X108418700Y-74907019D01*
X92788700Y-74907019D01*
X92788700Y-71153109D01*
X92812346Y-70911944D01*
X93768700Y-70911944D01*
X93768700Y-71283256D01*
X93841139Y-71647434D01*
X93983234Y-71990482D01*
X94189525Y-72299218D01*
X94452082Y-72561775D01*
X94760818Y-72768066D01*
X95103866Y-72910161D01*
X95468044Y-72982600D01*
X95839356Y-72982600D01*
X96203534Y-72910161D01*
X96546582Y-72768066D01*
X96855318Y-72561775D01*
X97117875Y-72299218D01*
X97324166Y-71990482D01*
X97466261Y-71647434D01*
X97538700Y-71283256D01*
X97538700Y-70911944D01*
X97515956Y-70797600D01*
X103715628Y-70797600D01*
X103715628Y-73397600D01*
X103727888Y-73522082D01*
X103764198Y-73641780D01*
X103823163Y-73752094D01*
X103902515Y-73848785D01*
X103999206Y-73928137D01*
X104109520Y-73987102D01*
X104229218Y-74023412D01*
X104353700Y-74035672D01*
X106953700Y-74035672D01*
X107078182Y-74023412D01*
X107197880Y-73987102D01*
X107308194Y-73928137D01*
X107404885Y-73848785D01*
X107484237Y-73752094D01*
X107543202Y-73641780D01*
X107579512Y-73522082D01*
X107591772Y-73397600D01*
X107591772Y-70911944D01*
X145768700Y-70911944D01*
X145768700Y-71283256D01*
X145841139Y-71647434D01*
X145983234Y-71990482D01*
X146189525Y-72299218D01*
X146452082Y-72561775D01*
X146760818Y-72768066D01*
X147103866Y-72910161D01*
X147468044Y-72982600D01*
X147839356Y-72982600D01*
X148203534Y-72910161D01*
X148546582Y-72768066D01*
X148855318Y-72561775D01*
X149117875Y-72299218D01*
X149324166Y-71990482D01*
X149466261Y-71647434D01*
X149538700Y-71283256D01*
X149538700Y-70911944D01*
X149466261Y-70547766D01*
X149324166Y-70204718D01*
X149117875Y-69895982D01*
X148855318Y-69633425D01*
X148546582Y-69427134D01*
X148203534Y-69285039D01*
X147839356Y-69212600D01*
X147468044Y-69212600D01*
X147103866Y-69285039D01*
X146760818Y-69427134D01*
X146452082Y-69633425D01*
X146189525Y-69895982D01*
X145983234Y-70204718D01*
X145841139Y-70547766D01*
X145768700Y-70911944D01*
X107591772Y-70911944D01*
X107591772Y-70797600D01*
X107579512Y-70673118D01*
X107543202Y-70553420D01*
X107484237Y-70443106D01*
X107404885Y-70346415D01*
X107308194Y-70267063D01*
X107197880Y-70208098D01*
X107078182Y-70171788D01*
X106953700Y-70159528D01*
X104353700Y-70159528D01*
X104229218Y-70171788D01*
X104109520Y-70208098D01*
X103999206Y-70267063D01*
X103902515Y-70346415D01*
X103823163Y-70443106D01*
X103764198Y-70553420D01*
X103727888Y-70673118D01*
X103715628Y-70797600D01*
X97515956Y-70797600D01*
X97466261Y-70547766D01*
X97324166Y-70204718D01*
X97117875Y-69895982D01*
X96855318Y-69633425D01*
X96546582Y-69427134D01*
X96203534Y-69285039D01*
X95839356Y-69212600D01*
X95468044Y-69212600D01*
X95103866Y-69285039D01*
X94760818Y-69427134D01*
X94452082Y-69633425D01*
X94189525Y-69895982D01*
X93983234Y-70204718D01*
X93841139Y-70547766D01*
X93768700Y-70911944D01*
X92812346Y-70911944D01*
X92848602Y-70542178D01*
X93009908Y-70007906D01*
X93271915Y-69515144D01*
X93624641Y-69082659D01*
X94054653Y-68726921D01*
X94545579Y-68461479D01*
X95078707Y-68296448D01*
X95686179Y-68232600D01*
X147598191Y-68232600D01*
X148209122Y-68292502D01*
G37*
%TD.AperFunction*%
%TD*%
M02*
